M48
; DRILL file {KiCad (5.1.6-0-10_14)} date Friday, September 23, 2022 at 07:30:50 PM
; FORMAT={-:-/ absolute / metric / decimal}
; #@! TF.CreationDate,2022-09-23T19:30:50+09:00
; #@! TF.GenerationSoftware,Kicad,Pcbnew,(5.1.6-0-10_14)
; #@! TF.FileFunction,NonPlated,1,2,NPTH
FMAT,2
METRIC
T1C1.200
T2C1.900
T3C3.000
T4C4.100
%
G90
G05
T1
X112.69Y-143.25
X112.69Y-145.0
X119.69Y-143.25
X119.69Y-145.0
T2
X137.5Y-139.04
X147.66Y-139.04
X194.65Y-119.99
X204.81Y-119.99
X156.55Y-119.99
X166.71Y-119.99
X175.6Y-139.04
X185.76Y-139.04
X194.65Y-158.09
X204.81Y-158.09
X232.75Y-139.04
X242.91Y-139.04
X232.75Y-158.09
X242.91Y-158.09
X156.55Y-177.14
X166.71Y-177.14
X213.7Y-158.09
X223.86Y-158.09
X137.5Y-119.99
X147.66Y-119.99
X213.7Y-139.04
X223.86Y-139.04
X175.6Y-119.99
X185.76Y-119.99
X118.45Y-177.14
X128.61Y-177.14
X156.55Y-139.04
X166.71Y-139.04
X194.65Y-139.04
X204.81Y-139.04
X232.75Y-119.99
X242.91Y-119.99
X232.75Y-100.94
X242.91Y-100.94
X118.45Y-158.09
X128.61Y-158.09
X232.75Y-177.14
X242.91Y-177.14
X194.65Y-100.94
X204.81Y-100.94
X156.55Y-100.94
X166.71Y-100.94
X213.7Y-177.14
X223.86Y-177.14
X137.5Y-177.14
X147.66Y-177.14
X175.6Y-100.94
X185.76Y-100.94
X213.7Y-100.94
X223.86Y-100.94
X213.7Y-119.99
X223.86Y-119.99
X137.5Y-158.09
X147.66Y-158.09
X175.6Y-177.14
X185.76Y-177.14
X137.5Y-100.94
X147.66Y-100.94
X175.6Y-158.09
X185.76Y-158.09
X194.65Y-177.14
X204.81Y-177.14
X156.55Y-158.09
X166.71Y-158.09
T3
X234.02Y-136.5
X235.29Y-133.96
X240.37Y-133.96
X241.64Y-136.5
X234.02Y-155.55
X235.29Y-153.01
X240.37Y-153.01
X241.64Y-155.55
X157.82Y-174.6
X159.09Y-172.06
X164.17Y-172.06
X165.44Y-174.6
X214.97Y-155.55
X216.24Y-153.01
X221.32Y-153.01
X222.59Y-155.55
X138.77Y-117.45
X140.04Y-114.91
X145.12Y-114.91
X146.39Y-117.45
X214.97Y-136.5
X216.24Y-133.96
X221.32Y-133.96
X222.59Y-136.5
X176.87Y-117.45
X178.14Y-114.91
X183.22Y-114.91
X184.49Y-117.45
X119.72Y-174.6
X120.99Y-172.06
X126.07Y-172.06
X127.34Y-174.6
X157.82Y-136.5
X159.09Y-133.96
X164.17Y-133.96
X165.44Y-136.5
X195.92Y-136.5
X197.19Y-133.96
X202.27Y-133.96
X203.54Y-136.5
X234.02Y-117.45
X235.29Y-114.91
X240.37Y-114.91
X241.64Y-117.45
X234.02Y-98.4
X235.29Y-95.86
X240.37Y-95.86
X241.64Y-98.4
X119.72Y-155.55
X120.99Y-153.01
X126.07Y-153.01
X127.34Y-155.55
X234.02Y-174.6
X235.29Y-172.06
X240.37Y-172.06
X241.64Y-174.6
X195.92Y-98.4
X197.19Y-95.86
X202.27Y-95.86
X203.54Y-98.4
X157.82Y-98.4
X159.09Y-95.86
X164.17Y-95.86
X165.44Y-98.4
X214.97Y-174.6
X216.24Y-172.06
X221.32Y-172.06
X222.59Y-174.6
X138.77Y-174.6
X140.04Y-172.06
X145.12Y-172.06
X146.39Y-174.6
X176.87Y-98.4
X178.14Y-95.86
X183.22Y-95.86
X184.49Y-98.4
X214.97Y-98.4
X216.24Y-95.86
X221.32Y-95.86
X222.59Y-98.4
X214.97Y-117.45
X216.24Y-114.91
X221.32Y-114.91
X222.59Y-117.45
X138.77Y-155.55
X140.04Y-153.01
X145.12Y-153.01
X146.39Y-155.55
X176.87Y-174.6
X178.14Y-172.06
X183.22Y-172.06
X184.49Y-174.6
X138.77Y-98.4
X140.04Y-95.86
X145.12Y-95.86
X146.39Y-98.4
X176.87Y-155.55
X178.14Y-153.01
X183.22Y-153.01
X184.49Y-155.55
X195.92Y-174.6
X197.19Y-172.06
X202.27Y-172.06
X203.54Y-174.6
X157.82Y-155.55
X159.09Y-153.01
X164.17Y-153.01
X165.44Y-155.55
X138.77Y-136.5
X140.04Y-133.96
X145.12Y-133.96
X146.39Y-136.5
X195.92Y-117.45
X197.19Y-114.91
X202.27Y-114.91
X203.54Y-117.45
X157.82Y-117.45
X159.09Y-114.91
X164.17Y-114.91
X165.44Y-117.45
X176.87Y-136.5
X178.14Y-133.96
X183.22Y-133.96
X184.49Y-136.5
X195.92Y-155.55
X197.19Y-153.01
X202.27Y-153.01
X203.54Y-155.55
T4
X123.53Y-177.14
X161.63Y-139.04
X199.73Y-139.04
X237.83Y-119.99
X237.83Y-100.94
X123.53Y-158.09
X237.83Y-177.14
X199.73Y-100.94
X161.63Y-100.94
X218.78Y-177.14
X142.58Y-177.14
X180.68Y-100.94
X218.78Y-100.94
X218.78Y-119.99
X142.58Y-158.09
X180.68Y-177.14
X142.58Y-100.94
X180.68Y-158.09
X199.73Y-177.14
X161.63Y-158.09
X142.58Y-139.04
X199.73Y-119.99
X161.63Y-119.99
X180.68Y-139.04
X199.73Y-158.09
X237.83Y-139.04
X237.83Y-158.09
X161.63Y-177.14
X218.78Y-158.09
X142.58Y-119.99
X218.78Y-139.04
X180.68Y-119.99
T0
M30
