G04 #@! TF.GenerationSoftware,KiCad,Pcbnew,(5.1.6-0-10_14)*
G04 #@! TF.CreationDate,2022-09-23T19:30:47+09:00*
G04 #@! TF.ProjectId,cool664,636f6f6c-3636-4342-9e6b-696361645f70,rev?*
G04 #@! TF.SameCoordinates,Original*
G04 #@! TF.FileFunction,Legend,Bot*
G04 #@! TF.FilePolarity,Positive*
%FSLAX46Y46*%
G04 Gerber Fmt 4.6, Leading zero omitted, Abs format (unit mm)*
G04 Created by KiCad (PCBNEW (5.1.6-0-10_14)) date 2022-09-23 19:30:47*
%MOMM*%
%LPD*%
G01*
G04 APERTURE LIST*
%ADD10C,0.300000*%
%ADD11C,0.150000*%
%ADD12C,0.400000*%
%ADD13C,0.500000*%
%ADD14C,3.500000*%
%ADD15C,1.000000*%
%ADD16C,3.000000*%
%ADD17C,0.800000*%
G04 APERTURE END LIST*
D10*
X187987142Y-181482142D02*
X188130000Y-181553571D01*
X188415714Y-181553571D01*
X188558571Y-181482142D01*
X188630000Y-181410714D01*
X188701428Y-181267857D01*
X188701428Y-180839285D01*
X188630000Y-180696428D01*
X188558571Y-180625000D01*
X188415714Y-180553571D01*
X188130000Y-180553571D01*
X187987142Y-180625000D01*
X187130000Y-181553571D02*
X187272857Y-181482142D01*
X187344285Y-181410714D01*
X187415714Y-181267857D01*
X187415714Y-180839285D01*
X187344285Y-180696428D01*
X187272857Y-180625000D01*
X187130000Y-180553571D01*
X186915714Y-180553571D01*
X186772857Y-180625000D01*
X186701428Y-180696428D01*
X186630000Y-180839285D01*
X186630000Y-181267857D01*
X186701428Y-181410714D01*
X186772857Y-181482142D01*
X186915714Y-181553571D01*
X187130000Y-181553571D01*
X185772857Y-181553571D02*
X185915714Y-181482142D01*
X185987142Y-181410714D01*
X186058571Y-181267857D01*
X186058571Y-180839285D01*
X185987142Y-180696428D01*
X185915714Y-180625000D01*
X185772857Y-180553571D01*
X185558571Y-180553571D01*
X185415714Y-180625000D01*
X185344285Y-180696428D01*
X185272857Y-180839285D01*
X185272857Y-181267857D01*
X185344285Y-181410714D01*
X185415714Y-181482142D01*
X185558571Y-181553571D01*
X185772857Y-181553571D01*
X184415714Y-181553571D02*
X184558571Y-181482142D01*
X184630000Y-181339285D01*
X184630000Y-180053571D01*
X183201428Y-180053571D02*
X183487142Y-180053571D01*
X183630000Y-180125000D01*
X183701428Y-180196428D01*
X183844285Y-180410714D01*
X183915714Y-180696428D01*
X183915714Y-181267857D01*
X183844285Y-181410714D01*
X183772857Y-181482142D01*
X183630000Y-181553571D01*
X183344285Y-181553571D01*
X183201428Y-181482142D01*
X183130000Y-181410714D01*
X183058571Y-181267857D01*
X183058571Y-180910714D01*
X183130000Y-180767857D01*
X183201428Y-180696428D01*
X183344285Y-180625000D01*
X183630000Y-180625000D01*
X183772857Y-180696428D01*
X183844285Y-180767857D01*
X183915714Y-180910714D01*
X181772857Y-180053571D02*
X182058571Y-180053571D01*
X182201428Y-180125000D01*
X182272857Y-180196428D01*
X182415714Y-180410714D01*
X182487142Y-180696428D01*
X182487142Y-181267857D01*
X182415714Y-181410714D01*
X182344285Y-181482142D01*
X182201428Y-181553571D01*
X181915714Y-181553571D01*
X181772857Y-181482142D01*
X181701428Y-181410714D01*
X181630000Y-181267857D01*
X181630000Y-180910714D01*
X181701428Y-180767857D01*
X181772857Y-180696428D01*
X181915714Y-180625000D01*
X182201428Y-180625000D01*
X182344285Y-180696428D01*
X182415714Y-180767857D01*
X182487142Y-180910714D01*
X180344285Y-180553571D02*
X180344285Y-181553571D01*
X180701428Y-179982142D02*
X181058571Y-181053571D01*
X180130000Y-181053571D01*
X176630000Y-181553571D02*
X176630000Y-180053571D01*
X176630000Y-181482142D02*
X176772857Y-181553571D01*
X177058571Y-181553571D01*
X177201428Y-181482142D01*
X177272857Y-181410714D01*
X177344285Y-181267857D01*
X177344285Y-180839285D01*
X177272857Y-180696428D01*
X177201428Y-180625000D01*
X177058571Y-180553571D01*
X176772857Y-180553571D01*
X176630000Y-180625000D01*
X175344285Y-181482142D02*
X175487142Y-181553571D01*
X175772857Y-181553571D01*
X175915714Y-181482142D01*
X175987142Y-181339285D01*
X175987142Y-180767857D01*
X175915714Y-180625000D01*
X175772857Y-180553571D01*
X175487142Y-180553571D01*
X175344285Y-180625000D01*
X175272857Y-180767857D01*
X175272857Y-180910714D01*
X175987142Y-181053571D01*
X174701428Y-181482142D02*
X174558571Y-181553571D01*
X174272857Y-181553571D01*
X174130000Y-181482142D01*
X174058571Y-181339285D01*
X174058571Y-181267857D01*
X174130000Y-181125000D01*
X174272857Y-181053571D01*
X174487142Y-181053571D01*
X174630000Y-180982142D01*
X174701428Y-180839285D01*
X174701428Y-180767857D01*
X174630000Y-180625000D01*
X174487142Y-180553571D01*
X174272857Y-180553571D01*
X174130000Y-180625000D01*
X173415714Y-181553571D02*
X173415714Y-180553571D01*
X173415714Y-180053571D02*
X173487142Y-180125000D01*
X173415714Y-180196428D01*
X173344285Y-180125000D01*
X173415714Y-180053571D01*
X173415714Y-180196428D01*
X172058571Y-180553571D02*
X172058571Y-181767857D01*
X172130000Y-181910714D01*
X172201428Y-181982142D01*
X172344285Y-182053571D01*
X172558571Y-182053571D01*
X172701428Y-181982142D01*
X172058571Y-181482142D02*
X172201428Y-181553571D01*
X172487142Y-181553571D01*
X172630000Y-181482142D01*
X172701428Y-181410714D01*
X172772857Y-181267857D01*
X172772857Y-180839285D01*
X172701428Y-180696428D01*
X172630000Y-180625000D01*
X172487142Y-180553571D01*
X172201428Y-180553571D01*
X172058571Y-180625000D01*
X171344285Y-180553571D02*
X171344285Y-181553571D01*
X171344285Y-180696428D02*
X171272857Y-180625000D01*
X171130000Y-180553571D01*
X170915714Y-180553571D01*
X170772857Y-180625000D01*
X170701428Y-180767857D01*
X170701428Y-181553571D01*
X169415714Y-181482142D02*
X169558571Y-181553571D01*
X169844285Y-181553571D01*
X169987142Y-181482142D01*
X170058571Y-181339285D01*
X170058571Y-180767857D01*
X169987142Y-180625000D01*
X169844285Y-180553571D01*
X169558571Y-180553571D01*
X169415714Y-180625000D01*
X169344285Y-180767857D01*
X169344285Y-180910714D01*
X170058571Y-181053571D01*
X168058571Y-181553571D02*
X168058571Y-180053571D01*
X168058571Y-181482142D02*
X168201428Y-181553571D01*
X168487142Y-181553571D01*
X168630000Y-181482142D01*
X168701428Y-181410714D01*
X168772857Y-181267857D01*
X168772857Y-180839285D01*
X168701428Y-180696428D01*
X168630000Y-180625000D01*
X168487142Y-180553571D01*
X168201428Y-180553571D01*
X168058571Y-180625000D01*
X166201428Y-181553571D02*
X166201428Y-180053571D01*
X166201428Y-180625000D02*
X166058571Y-180553571D01*
X165772857Y-180553571D01*
X165630000Y-180625000D01*
X165558571Y-180696428D01*
X165487142Y-180839285D01*
X165487142Y-181267857D01*
X165558571Y-181410714D01*
X165630000Y-181482142D01*
X165772857Y-181553571D01*
X166058571Y-181553571D01*
X166201428Y-181482142D01*
X164987142Y-180553571D02*
X164630000Y-181553571D01*
X164272857Y-180553571D02*
X164630000Y-181553571D01*
X164772857Y-181910714D01*
X164844285Y-181982142D01*
X164987142Y-182053571D01*
X162558571Y-181553571D02*
X162558571Y-180553571D01*
X162558571Y-180696428D02*
X162487142Y-180625000D01*
X162344285Y-180553571D01*
X162130000Y-180553571D01*
X161987142Y-180625000D01*
X161915714Y-180767857D01*
X161915714Y-181553571D01*
X161915714Y-180767857D02*
X161844285Y-180625000D01*
X161701428Y-180553571D01*
X161487142Y-180553571D01*
X161344285Y-180625000D01*
X161272857Y-180767857D01*
X161272857Y-181553571D01*
X160558571Y-181410714D02*
X160487142Y-181482142D01*
X160558571Y-181553571D01*
X160630000Y-181482142D01*
X160558571Y-181410714D01*
X160558571Y-181553571D01*
X159844285Y-181553571D02*
X159844285Y-180053571D01*
X159701428Y-180982142D02*
X159272857Y-181553571D01*
X159272857Y-180553571D02*
X159844285Y-181125000D01*
X158630000Y-181553571D02*
X158630000Y-180553571D01*
X158630000Y-180053571D02*
X158701428Y-180125000D01*
X158630000Y-180196428D01*
X158558571Y-180125000D01*
X158630000Y-180053571D01*
X158630000Y-180196428D01*
X186522857Y-183103571D02*
X186165714Y-184103571D01*
X185808571Y-183103571D01*
X184665714Y-184032142D02*
X184808571Y-184103571D01*
X185094285Y-184103571D01*
X185237142Y-184032142D01*
X185308571Y-183889285D01*
X185308571Y-183317857D01*
X185237142Y-183175000D01*
X185094285Y-183103571D01*
X184808571Y-183103571D01*
X184665714Y-183175000D01*
X184594285Y-183317857D01*
X184594285Y-183460714D01*
X185308571Y-183603571D01*
X183951428Y-184103571D02*
X183951428Y-183103571D01*
X183951428Y-183389285D02*
X183880000Y-183246428D01*
X183808571Y-183175000D01*
X183665714Y-183103571D01*
X183522857Y-183103571D01*
X183022857Y-183960714D02*
X182951428Y-184032142D01*
X183022857Y-184103571D01*
X183094285Y-184032142D01*
X183022857Y-183960714D01*
X183022857Y-184103571D01*
X181522857Y-184103571D02*
X182380000Y-184103571D01*
X181951428Y-184103571D02*
X181951428Y-182603571D01*
X182094285Y-182817857D01*
X182237142Y-182960714D01*
X182380000Y-183032142D01*
X180880000Y-183960714D02*
X180808571Y-184032142D01*
X180880000Y-184103571D01*
X180951428Y-184032142D01*
X180880000Y-183960714D01*
X180880000Y-184103571D01*
X179880000Y-182603571D02*
X179737142Y-182603571D01*
X179594285Y-182675000D01*
X179522857Y-182746428D01*
X179451428Y-182889285D01*
X179380000Y-183175000D01*
X179380000Y-183532142D01*
X179451428Y-183817857D01*
X179522857Y-183960714D01*
X179594285Y-184032142D01*
X179737142Y-184103571D01*
X179880000Y-184103571D01*
X180022857Y-184032142D01*
X180094285Y-183960714D01*
X180165714Y-183817857D01*
X180237142Y-183532142D01*
X180237142Y-183175000D01*
X180165714Y-182889285D01*
X180094285Y-182746428D01*
X180022857Y-182675000D01*
X179880000Y-182603571D01*
X176951428Y-184103571D02*
X176951428Y-182603571D01*
X176951428Y-184032142D02*
X177094285Y-184103571D01*
X177380000Y-184103571D01*
X177522857Y-184032142D01*
X177594285Y-183960714D01*
X177665714Y-183817857D01*
X177665714Y-183389285D01*
X177594285Y-183246428D01*
X177522857Y-183175000D01*
X177380000Y-183103571D01*
X177094285Y-183103571D01*
X176951428Y-183175000D01*
X175594285Y-184103571D02*
X175594285Y-183317857D01*
X175665714Y-183175000D01*
X175808571Y-183103571D01*
X176094285Y-183103571D01*
X176237142Y-183175000D01*
X175594285Y-184032142D02*
X175737142Y-184103571D01*
X176094285Y-184103571D01*
X176237142Y-184032142D01*
X176308571Y-183889285D01*
X176308571Y-183746428D01*
X176237142Y-183603571D01*
X176094285Y-183532142D01*
X175737142Y-183532142D01*
X175594285Y-183460714D01*
X175094285Y-183103571D02*
X174522857Y-183103571D01*
X174880000Y-182603571D02*
X174880000Y-183889285D01*
X174808571Y-184032142D01*
X174665714Y-184103571D01*
X174522857Y-184103571D01*
X173451428Y-184032142D02*
X173594285Y-184103571D01*
X173880000Y-184103571D01*
X174022857Y-184032142D01*
X174094285Y-183889285D01*
X174094285Y-183317857D01*
X174022857Y-183175000D01*
X173880000Y-183103571D01*
X173594285Y-183103571D01*
X173451428Y-183175000D01*
X173380000Y-183317857D01*
X173380000Y-183460714D01*
X174094285Y-183603571D01*
X171665714Y-182746428D02*
X171594285Y-182675000D01*
X171451428Y-182603571D01*
X171094285Y-182603571D01*
X170951428Y-182675000D01*
X170880000Y-182746428D01*
X170808571Y-182889285D01*
X170808571Y-183032142D01*
X170880000Y-183246428D01*
X171737142Y-184103571D01*
X170808571Y-184103571D01*
X169880000Y-182603571D02*
X169737142Y-182603571D01*
X169594285Y-182675000D01*
X169522857Y-182746428D01*
X169451428Y-182889285D01*
X169380000Y-183175000D01*
X169380000Y-183532142D01*
X169451428Y-183817857D01*
X169522857Y-183960714D01*
X169594285Y-184032142D01*
X169737142Y-184103571D01*
X169880000Y-184103571D01*
X170022857Y-184032142D01*
X170094285Y-183960714D01*
X170165714Y-183817857D01*
X170237142Y-183532142D01*
X170237142Y-183175000D01*
X170165714Y-182889285D01*
X170094285Y-182746428D01*
X170022857Y-182675000D01*
X169880000Y-182603571D01*
X168808571Y-182746428D02*
X168737142Y-182675000D01*
X168594285Y-182603571D01*
X168237142Y-182603571D01*
X168094285Y-182675000D01*
X168022857Y-182746428D01*
X167951428Y-182889285D01*
X167951428Y-183032142D01*
X168022857Y-183246428D01*
X168880000Y-184103571D01*
X167951428Y-184103571D01*
X167380000Y-182746428D02*
X167308571Y-182675000D01*
X167165714Y-182603571D01*
X166808571Y-182603571D01*
X166665714Y-182675000D01*
X166594285Y-182746428D01*
X166522857Y-182889285D01*
X166522857Y-183032142D01*
X166594285Y-183246428D01*
X167451428Y-184103571D01*
X166522857Y-184103571D01*
X165594285Y-182603571D02*
X165451428Y-182603571D01*
X165308571Y-182675000D01*
X165237142Y-182746428D01*
X165165714Y-182889285D01*
X165094285Y-183175000D01*
X165094285Y-183532142D01*
X165165714Y-183817857D01*
X165237142Y-183960714D01*
X165308571Y-184032142D01*
X165451428Y-184103571D01*
X165594285Y-184103571D01*
X165737142Y-184032142D01*
X165808571Y-183960714D01*
X165880000Y-183817857D01*
X165951428Y-183532142D01*
X165951428Y-183175000D01*
X165880000Y-182889285D01*
X165808571Y-182746428D01*
X165737142Y-182675000D01*
X165594285Y-182603571D01*
X164380000Y-184103571D02*
X164094285Y-184103571D01*
X163951428Y-184032142D01*
X163880000Y-183960714D01*
X163737142Y-183746428D01*
X163665714Y-183460714D01*
X163665714Y-182889285D01*
X163737142Y-182746428D01*
X163808571Y-182675000D01*
X163951428Y-182603571D01*
X164237142Y-182603571D01*
X164380000Y-182675000D01*
X164451428Y-182746428D01*
X164522857Y-182889285D01*
X164522857Y-183246428D01*
X164451428Y-183389285D01*
X164380000Y-183460714D01*
X164237142Y-183532142D01*
X163951428Y-183532142D01*
X163808571Y-183460714D01*
X163737142Y-183389285D01*
X163665714Y-183246428D01*
X163094285Y-182746428D02*
X163022857Y-182675000D01*
X162880000Y-182603571D01*
X162522857Y-182603571D01*
X162380000Y-182675000D01*
X162308571Y-182746428D01*
X162237142Y-182889285D01*
X162237142Y-183032142D01*
X162308571Y-183246428D01*
X163165714Y-184103571D01*
X162237142Y-184103571D01*
X161737142Y-182603571D02*
X160808571Y-182603571D01*
X161308571Y-183175000D01*
X161094285Y-183175000D01*
X160951428Y-183246428D01*
X160880000Y-183317857D01*
X160808571Y-183460714D01*
X160808571Y-183817857D01*
X160880000Y-183960714D01*
X160951428Y-184032142D01*
X161094285Y-184103571D01*
X161522857Y-184103571D01*
X161665714Y-184032142D01*
X161737142Y-183960714D01*
D11*
X243455238Y-183564761D02*
X243550476Y-183612380D01*
X243740952Y-183612380D01*
X243836190Y-183564761D01*
X243883809Y-183517142D01*
X243931428Y-183421904D01*
X243931428Y-183136190D01*
X243883809Y-183040952D01*
X243836190Y-182993333D01*
X243740952Y-182945714D01*
X243550476Y-182945714D01*
X243455238Y-182993333D01*
X242883809Y-183612380D02*
X242979047Y-183564761D01*
X243026666Y-183517142D01*
X243074285Y-183421904D01*
X243074285Y-183136190D01*
X243026666Y-183040952D01*
X242979047Y-182993333D01*
X242883809Y-182945714D01*
X242740952Y-182945714D01*
X242645714Y-182993333D01*
X242598095Y-183040952D01*
X242550476Y-183136190D01*
X242550476Y-183421904D01*
X242598095Y-183517142D01*
X242645714Y-183564761D01*
X242740952Y-183612380D01*
X242883809Y-183612380D01*
X241979047Y-183612380D02*
X242074285Y-183564761D01*
X242121904Y-183517142D01*
X242169523Y-183421904D01*
X242169523Y-183136190D01*
X242121904Y-183040952D01*
X242074285Y-182993333D01*
X241979047Y-182945714D01*
X241836190Y-182945714D01*
X241740952Y-182993333D01*
X241693333Y-183040952D01*
X241645714Y-183136190D01*
X241645714Y-183421904D01*
X241693333Y-183517142D01*
X241740952Y-183564761D01*
X241836190Y-183612380D01*
X241979047Y-183612380D01*
X241074285Y-183612380D02*
X241169523Y-183564761D01*
X241217142Y-183469523D01*
X241217142Y-182612380D01*
X240264761Y-182612380D02*
X240455238Y-182612380D01*
X240550476Y-182660000D01*
X240598095Y-182707619D01*
X240693333Y-182850476D01*
X240740952Y-183040952D01*
X240740952Y-183421904D01*
X240693333Y-183517142D01*
X240645714Y-183564761D01*
X240550476Y-183612380D01*
X240360000Y-183612380D01*
X240264761Y-183564761D01*
X240217142Y-183517142D01*
X240169523Y-183421904D01*
X240169523Y-183183809D01*
X240217142Y-183088571D01*
X240264761Y-183040952D01*
X240360000Y-182993333D01*
X240550476Y-182993333D01*
X240645714Y-183040952D01*
X240693333Y-183088571D01*
X240740952Y-183183809D01*
X239312380Y-182612380D02*
X239502857Y-182612380D01*
X239598095Y-182660000D01*
X239645714Y-182707619D01*
X239740952Y-182850476D01*
X239788571Y-183040952D01*
X239788571Y-183421904D01*
X239740952Y-183517142D01*
X239693333Y-183564761D01*
X239598095Y-183612380D01*
X239407619Y-183612380D01*
X239312380Y-183564761D01*
X239264761Y-183517142D01*
X239217142Y-183421904D01*
X239217142Y-183183809D01*
X239264761Y-183088571D01*
X239312380Y-183040952D01*
X239407619Y-182993333D01*
X239598095Y-182993333D01*
X239693333Y-183040952D01*
X239740952Y-183088571D01*
X239788571Y-183183809D01*
X238360000Y-182945714D02*
X238360000Y-183612380D01*
X238598095Y-182564761D02*
X238836190Y-183279047D01*
X238217142Y-183279047D01*
X236740952Y-183088571D02*
X237074285Y-183088571D01*
X237074285Y-183612380D02*
X237074285Y-182612380D01*
X236598095Y-182612380D01*
X236217142Y-183612380D02*
X236217142Y-182945714D01*
X236217142Y-183136190D02*
X236169523Y-183040952D01*
X236121904Y-182993333D01*
X236026666Y-182945714D01*
X235931428Y-182945714D01*
X235455238Y-183612380D02*
X235550476Y-183564761D01*
X235598095Y-183517142D01*
X235645714Y-183421904D01*
X235645714Y-183136190D01*
X235598095Y-183040952D01*
X235550476Y-182993333D01*
X235455238Y-182945714D01*
X235312380Y-182945714D01*
X235217142Y-182993333D01*
X235169523Y-183040952D01*
X235121904Y-183136190D01*
X235121904Y-183421904D01*
X235169523Y-183517142D01*
X235217142Y-183564761D01*
X235312380Y-183612380D01*
X235455238Y-183612380D01*
X234693333Y-182945714D02*
X234693333Y-183612380D01*
X234693333Y-183040952D02*
X234645714Y-182993333D01*
X234550476Y-182945714D01*
X234407619Y-182945714D01*
X234312380Y-182993333D01*
X234264761Y-183088571D01*
X234264761Y-183612380D01*
X233931428Y-182945714D02*
X233550476Y-182945714D01*
X233788571Y-182612380D02*
X233788571Y-183469523D01*
X233740952Y-183564761D01*
X233645714Y-183612380D01*
X233550476Y-183612380D01*
X233217142Y-183231428D02*
X232455238Y-183231428D01*
X231502857Y-183612380D02*
X231979047Y-183612380D01*
X231979047Y-182612380D01*
X230788571Y-183564761D02*
X230883809Y-183612380D01*
X231074285Y-183612380D01*
X231169523Y-183564761D01*
X231217142Y-183469523D01*
X231217142Y-183088571D01*
X231169523Y-182993333D01*
X231074285Y-182945714D01*
X230883809Y-182945714D01*
X230788571Y-182993333D01*
X230740952Y-183088571D01*
X230740952Y-183183809D01*
X231217142Y-183279047D01*
X230455238Y-182945714D02*
X230074285Y-182945714D01*
X230312380Y-183612380D02*
X230312380Y-182755238D01*
X230264761Y-182660000D01*
X230169523Y-182612380D01*
X230074285Y-182612380D01*
X229883809Y-182945714D02*
X229502857Y-182945714D01*
X229740952Y-182612380D02*
X229740952Y-183469523D01*
X229693333Y-183564761D01*
X229598095Y-183612380D01*
X229502857Y-183612380D01*
X228455238Y-183564761D02*
X228360000Y-183612380D01*
X228169523Y-183612380D01*
X228074285Y-183564761D01*
X228026666Y-183469523D01*
X228026666Y-183421904D01*
X228074285Y-183326666D01*
X228169523Y-183279047D01*
X228312380Y-183279047D01*
X228407619Y-183231428D01*
X228455238Y-183136190D01*
X228455238Y-183088571D01*
X228407619Y-182993333D01*
X228312380Y-182945714D01*
X228169523Y-182945714D01*
X228074285Y-182993333D01*
X227598095Y-183612380D02*
X227598095Y-182945714D01*
X227598095Y-182612380D02*
X227645714Y-182660000D01*
X227598095Y-182707619D01*
X227550476Y-182660000D01*
X227598095Y-182612380D01*
X227598095Y-182707619D01*
X226693333Y-183612380D02*
X226693333Y-182612380D01*
X226693333Y-183564761D02*
X226788571Y-183612380D01*
X226979047Y-183612380D01*
X227074285Y-183564761D01*
X227121904Y-183517142D01*
X227169523Y-183421904D01*
X227169523Y-183136190D01*
X227121904Y-183040952D01*
X227074285Y-182993333D01*
X226979047Y-182945714D01*
X226788571Y-182945714D01*
X226693333Y-182993333D01*
X225836190Y-183564761D02*
X225931428Y-183612380D01*
X226121904Y-183612380D01*
X226217142Y-183564761D01*
X226264761Y-183469523D01*
X226264761Y-183088571D01*
X226217142Y-182993333D01*
X226121904Y-182945714D01*
X225931428Y-182945714D01*
X225836190Y-182993333D01*
X225788571Y-183088571D01*
X225788571Y-183183809D01*
X226264761Y-183279047D01*
X110240000Y-118600000D02*
X109990000Y-118600000D01*
X109990000Y-118600000D02*
X109990000Y-112600000D01*
X109990000Y-112600000D02*
X110240000Y-112600000D01*
X113240000Y-112600000D02*
X113490000Y-112600000D01*
X113490000Y-112600000D02*
X113490000Y-118600000D01*
X113490000Y-118600000D02*
X113240000Y-118600000D01*
X123190000Y-148000000D02*
X111190000Y-148000000D01*
X123190000Y-142000000D02*
X123190000Y-148000000D01*
X111190000Y-142000000D02*
X123190000Y-142000000D01*
X111190000Y-148000000D02*
X111190000Y-142000000D01*
X145250000Y-110000000D02*
X145250000Y-108500000D01*
X139850000Y-110000000D02*
X145250000Y-110000000D01*
X139850000Y-108500000D02*
X139850000Y-110000000D01*
X145250000Y-108500000D02*
X139850000Y-108500000D01*
X143050000Y-109750000D02*
X143050000Y-108750000D01*
X142050000Y-108750000D02*
X142950000Y-109250000D01*
X142050000Y-109750000D02*
X142050000Y-108750000D01*
X142950000Y-109250000D02*
X142050000Y-109750000D01*
X161980000Y-109250000D02*
X161080000Y-109750000D01*
X161080000Y-109750000D02*
X161080000Y-108750000D01*
X161080000Y-108750000D02*
X161980000Y-109250000D01*
X162080000Y-109750000D02*
X162080000Y-108750000D01*
X164280000Y-108500000D02*
X158880000Y-108500000D01*
X158880000Y-108500000D02*
X158880000Y-110000000D01*
X158880000Y-110000000D02*
X164280000Y-110000000D01*
X164280000Y-110000000D02*
X164280000Y-108500000D01*
X183440000Y-109910000D02*
X183440000Y-108410000D01*
X178040000Y-109910000D02*
X183440000Y-109910000D01*
X178040000Y-108410000D02*
X178040000Y-109910000D01*
X183440000Y-108410000D02*
X178040000Y-108410000D01*
X181240000Y-109660000D02*
X181240000Y-108660000D01*
X180240000Y-108660000D02*
X181140000Y-109160000D01*
X180240000Y-109660000D02*
X180240000Y-108660000D01*
X181140000Y-109160000D02*
X180240000Y-109660000D01*
X200140000Y-109250000D02*
X199240000Y-109750000D01*
X199240000Y-109750000D02*
X199240000Y-108750000D01*
X199240000Y-108750000D02*
X200140000Y-109250000D01*
X200240000Y-109750000D02*
X200240000Y-108750000D01*
X202440000Y-108500000D02*
X197040000Y-108500000D01*
X197040000Y-108500000D02*
X197040000Y-110000000D01*
X197040000Y-110000000D02*
X202440000Y-110000000D01*
X202440000Y-110000000D02*
X202440000Y-108500000D01*
X219220000Y-109230000D02*
X218320000Y-109730000D01*
X218320000Y-109730000D02*
X218320000Y-108730000D01*
X218320000Y-108730000D02*
X219220000Y-109230000D01*
X219320000Y-109730000D02*
X219320000Y-108730000D01*
X221520000Y-108480000D02*
X216120000Y-108480000D01*
X216120000Y-108480000D02*
X216120000Y-109980000D01*
X216120000Y-109980000D02*
X221520000Y-109980000D01*
X221520000Y-109980000D02*
X221520000Y-108480000D01*
X240520000Y-110000000D02*
X240520000Y-108500000D01*
X235120000Y-110000000D02*
X240520000Y-110000000D01*
X235120000Y-108500000D02*
X235120000Y-110000000D01*
X240520000Y-108500000D02*
X235120000Y-108500000D01*
X238320000Y-109750000D02*
X238320000Y-108750000D01*
X237320000Y-108750000D02*
X238220000Y-109250000D01*
X237320000Y-109750000D02*
X237320000Y-108750000D01*
X238220000Y-109250000D02*
X237320000Y-109750000D01*
X145270000Y-112500000D02*
X145270000Y-111000000D01*
X139870000Y-112500000D02*
X145270000Y-112500000D01*
X139870000Y-111000000D02*
X139870000Y-112500000D01*
X145270000Y-111000000D02*
X139870000Y-111000000D01*
X143070000Y-112250000D02*
X143070000Y-111250000D01*
X142070000Y-111250000D02*
X142970000Y-111750000D01*
X142070000Y-112250000D02*
X142070000Y-111250000D01*
X142970000Y-111750000D02*
X142070000Y-112250000D01*
X161870000Y-111770000D02*
X160970000Y-112270000D01*
X160970000Y-112270000D02*
X160970000Y-111270000D01*
X160970000Y-111270000D02*
X161870000Y-111770000D01*
X161970000Y-112270000D02*
X161970000Y-111270000D01*
X164170000Y-111020000D02*
X158770000Y-111020000D01*
X158770000Y-111020000D02*
X158770000Y-112520000D01*
X158770000Y-112520000D02*
X164170000Y-112520000D01*
X164170000Y-112520000D02*
X164170000Y-111020000D01*
X181150000Y-111730000D02*
X180250000Y-112230000D01*
X180250000Y-112230000D02*
X180250000Y-111230000D01*
X180250000Y-111230000D02*
X181150000Y-111730000D01*
X181250000Y-112230000D02*
X181250000Y-111230000D01*
X183450000Y-110980000D02*
X178050000Y-110980000D01*
X178050000Y-110980000D02*
X178050000Y-112480000D01*
X178050000Y-112480000D02*
X183450000Y-112480000D01*
X183450000Y-112480000D02*
X183450000Y-110980000D01*
X200080000Y-111730000D02*
X199180000Y-112230000D01*
X199180000Y-112230000D02*
X199180000Y-111230000D01*
X199180000Y-111230000D02*
X200080000Y-111730000D01*
X200180000Y-112230000D02*
X200180000Y-111230000D01*
X202380000Y-110980000D02*
X196980000Y-110980000D01*
X196980000Y-110980000D02*
X196980000Y-112480000D01*
X196980000Y-112480000D02*
X202380000Y-112480000D01*
X202380000Y-112480000D02*
X202380000Y-110980000D01*
X219240000Y-111640000D02*
X218340000Y-112140000D01*
X218340000Y-112140000D02*
X218340000Y-111140000D01*
X218340000Y-111140000D02*
X219240000Y-111640000D01*
X219340000Y-112140000D02*
X219340000Y-111140000D01*
X221540000Y-110890000D02*
X216140000Y-110890000D01*
X216140000Y-110890000D02*
X216140000Y-112390000D01*
X216140000Y-112390000D02*
X221540000Y-112390000D01*
X221540000Y-112390000D02*
X221540000Y-110890000D01*
X238110000Y-111740000D02*
X237210000Y-112240000D01*
X237210000Y-112240000D02*
X237210000Y-111240000D01*
X237210000Y-111240000D02*
X238110000Y-111740000D01*
X238210000Y-112240000D02*
X238210000Y-111240000D01*
X240410000Y-110990000D02*
X235010000Y-110990000D01*
X235010000Y-110990000D02*
X235010000Y-112490000D01*
X235010000Y-112490000D02*
X240410000Y-112490000D01*
X240410000Y-112490000D02*
X240410000Y-110990000D01*
X145360000Y-148130000D02*
X145360000Y-146630000D01*
X139960000Y-148130000D02*
X145360000Y-148130000D01*
X139960000Y-146630000D02*
X139960000Y-148130000D01*
X145360000Y-146630000D02*
X139960000Y-146630000D01*
X143160000Y-147880000D02*
X143160000Y-146880000D01*
X142160000Y-146880000D02*
X143060000Y-147380000D01*
X142160000Y-147880000D02*
X142160000Y-146880000D01*
X143060000Y-147380000D02*
X142160000Y-147880000D01*
X164380000Y-148300000D02*
X164380000Y-146800000D01*
X158980000Y-148300000D02*
X164380000Y-148300000D01*
X158980000Y-146800000D02*
X158980000Y-148300000D01*
X164380000Y-146800000D02*
X158980000Y-146800000D01*
X162180000Y-148050000D02*
X162180000Y-147050000D01*
X161180000Y-147050000D02*
X162080000Y-147550000D01*
X161180000Y-148050000D02*
X161180000Y-147050000D01*
X162080000Y-147550000D02*
X161180000Y-148050000D01*
X180960000Y-147410000D02*
X180060000Y-147910000D01*
X180060000Y-147910000D02*
X180060000Y-146910000D01*
X180060000Y-146910000D02*
X180960000Y-147410000D01*
X181060000Y-147910000D02*
X181060000Y-146910000D01*
X183260000Y-146660000D02*
X177860000Y-146660000D01*
X177860000Y-146660000D02*
X177860000Y-148160000D01*
X177860000Y-148160000D02*
X183260000Y-148160000D01*
X183260000Y-148160000D02*
X183260000Y-146660000D01*
X202380000Y-148240000D02*
X202380000Y-146740000D01*
X196980000Y-148240000D02*
X202380000Y-148240000D01*
X196980000Y-146740000D02*
X196980000Y-148240000D01*
X202380000Y-146740000D02*
X196980000Y-146740000D01*
X200180000Y-147990000D02*
X200180000Y-146990000D01*
X199180000Y-146990000D02*
X200080000Y-147490000D01*
X199180000Y-147990000D02*
X199180000Y-146990000D01*
X200080000Y-147490000D02*
X199180000Y-147990000D01*
X219090000Y-147340000D02*
X218190000Y-147840000D01*
X218190000Y-147840000D02*
X218190000Y-146840000D01*
X218190000Y-146840000D02*
X219090000Y-147340000D01*
X219190000Y-147840000D02*
X219190000Y-146840000D01*
X221390000Y-146590000D02*
X215990000Y-146590000D01*
X215990000Y-146590000D02*
X215990000Y-148090000D01*
X215990000Y-148090000D02*
X221390000Y-148090000D01*
X221390000Y-148090000D02*
X221390000Y-146590000D01*
X240600000Y-148140000D02*
X240600000Y-146640000D01*
X235200000Y-148140000D02*
X240600000Y-148140000D01*
X235200000Y-146640000D02*
X235200000Y-148140000D01*
X240600000Y-146640000D02*
X235200000Y-146640000D01*
X238400000Y-147890000D02*
X238400000Y-146890000D01*
X237400000Y-146890000D02*
X238300000Y-147390000D01*
X237400000Y-147890000D02*
X237400000Y-146890000D01*
X238300000Y-147390000D02*
X237400000Y-147890000D01*
X143000000Y-144640000D02*
X142100000Y-145140000D01*
X142100000Y-145140000D02*
X142100000Y-144140000D01*
X142100000Y-144140000D02*
X143000000Y-144640000D01*
X143100000Y-145140000D02*
X143100000Y-144140000D01*
X145300000Y-143890000D02*
X139900000Y-143890000D01*
X139900000Y-143890000D02*
X139900000Y-145390000D01*
X139900000Y-145390000D02*
X145300000Y-145390000D01*
X145300000Y-145390000D02*
X145300000Y-143890000D01*
X145310000Y-150500000D02*
X145310000Y-149000000D01*
X139910000Y-150500000D02*
X145310000Y-150500000D01*
X139910000Y-149000000D02*
X139910000Y-150500000D01*
X145310000Y-149000000D02*
X139910000Y-149000000D01*
X143110000Y-150250000D02*
X143110000Y-149250000D01*
X142110000Y-149250000D02*
X143010000Y-149750000D01*
X142110000Y-150250000D02*
X142110000Y-149250000D01*
X143010000Y-149750000D02*
X142110000Y-150250000D01*
X164380000Y-150480000D02*
X164380000Y-148980000D01*
X158980000Y-150480000D02*
X164380000Y-150480000D01*
X158980000Y-148980000D02*
X158980000Y-150480000D01*
X164380000Y-148980000D02*
X158980000Y-148980000D01*
X162180000Y-150230000D02*
X162180000Y-149230000D01*
X161180000Y-149230000D02*
X162080000Y-149730000D01*
X161180000Y-150230000D02*
X161180000Y-149230000D01*
X162080000Y-149730000D02*
X161180000Y-150230000D01*
X183260000Y-150570000D02*
X183260000Y-149070000D01*
X177860000Y-150570000D02*
X183260000Y-150570000D01*
X177860000Y-149070000D02*
X177860000Y-150570000D01*
X183260000Y-149070000D02*
X177860000Y-149070000D01*
X181060000Y-150320000D02*
X181060000Y-149320000D01*
X180060000Y-149320000D02*
X180960000Y-149820000D01*
X180060000Y-150320000D02*
X180060000Y-149320000D01*
X180960000Y-149820000D02*
X180060000Y-150320000D01*
X202360000Y-150590000D02*
X202360000Y-149090000D01*
X196960000Y-150590000D02*
X202360000Y-150590000D01*
X196960000Y-149090000D02*
X196960000Y-150590000D01*
X202360000Y-149090000D02*
X196960000Y-149090000D01*
X200160000Y-150340000D02*
X200160000Y-149340000D01*
X199160000Y-149340000D02*
X200060000Y-149840000D01*
X199160000Y-150340000D02*
X199160000Y-149340000D01*
X200060000Y-149840000D02*
X199160000Y-150340000D01*
X221290000Y-150520000D02*
X221290000Y-149020000D01*
X215890000Y-150520000D02*
X221290000Y-150520000D01*
X215890000Y-149020000D02*
X215890000Y-150520000D01*
X221290000Y-149020000D02*
X215890000Y-149020000D01*
X219090000Y-150270000D02*
X219090000Y-149270000D01*
X218090000Y-149270000D02*
X218990000Y-149770000D01*
X218090000Y-150270000D02*
X218090000Y-149270000D01*
X218990000Y-149770000D02*
X218090000Y-150270000D01*
X240530000Y-150510000D02*
X240530000Y-149010000D01*
X235130000Y-150510000D02*
X240530000Y-150510000D01*
X235130000Y-149010000D02*
X235130000Y-150510000D01*
X240530000Y-149010000D02*
X235130000Y-149010000D01*
X238330000Y-150260000D02*
X238330000Y-149260000D01*
X237330000Y-149260000D02*
X238230000Y-149760000D01*
X237330000Y-150260000D02*
X237330000Y-149260000D01*
X238230000Y-149760000D02*
X237330000Y-150260000D01*
X143520000Y-166580000D02*
X142620000Y-167080000D01*
X142620000Y-167080000D02*
X142620000Y-166080000D01*
X142620000Y-166080000D02*
X143520000Y-166580000D01*
X143620000Y-167080000D02*
X143620000Y-166080000D01*
X145820000Y-165830000D02*
X140420000Y-165830000D01*
X140420000Y-165830000D02*
X140420000Y-167330000D01*
X140420000Y-167330000D02*
X145820000Y-167330000D01*
X145820000Y-167330000D02*
X145820000Y-165830000D01*
X143470000Y-168940000D02*
X142570000Y-169440000D01*
X142570000Y-169440000D02*
X142570000Y-168440000D01*
X142570000Y-168440000D02*
X143470000Y-168940000D01*
X143570000Y-169440000D02*
X143570000Y-168440000D01*
X145770000Y-168190000D02*
X140370000Y-168190000D01*
X140370000Y-168190000D02*
X140370000Y-169690000D01*
X140370000Y-169690000D02*
X145770000Y-169690000D01*
X145770000Y-169690000D02*
X145770000Y-168190000D01*
X162350000Y-168600000D02*
X161450000Y-169100000D01*
X161450000Y-169100000D02*
X161450000Y-168100000D01*
X161450000Y-168100000D02*
X162350000Y-168600000D01*
X162450000Y-169100000D02*
X162450000Y-168100000D01*
X164650000Y-167850000D02*
X159250000Y-167850000D01*
X159250000Y-167850000D02*
X159250000Y-169350000D01*
X159250000Y-169350000D02*
X164650000Y-169350000D01*
X164650000Y-169350000D02*
X164650000Y-167850000D01*
X184310000Y-169500000D02*
X184310000Y-168000000D01*
X178910000Y-169500000D02*
X184310000Y-169500000D01*
X178910000Y-168000000D02*
X178910000Y-169500000D01*
X184310000Y-168000000D02*
X178910000Y-168000000D01*
X182110000Y-169250000D02*
X182110000Y-168250000D01*
X181110000Y-168250000D02*
X182010000Y-168750000D01*
X181110000Y-169250000D02*
X181110000Y-168250000D01*
X182010000Y-168750000D02*
X181110000Y-169250000D01*
X200770000Y-168700000D02*
X199870000Y-169200000D01*
X199870000Y-169200000D02*
X199870000Y-168200000D01*
X199870000Y-168200000D02*
X200770000Y-168700000D01*
X200870000Y-169200000D02*
X200870000Y-168200000D01*
X203070000Y-167950000D02*
X197670000Y-167950000D01*
X197670000Y-167950000D02*
X197670000Y-169450000D01*
X197670000Y-169450000D02*
X203070000Y-169450000D01*
X203070000Y-169450000D02*
X203070000Y-167950000D01*
X221670000Y-169350000D02*
X221670000Y-167850000D01*
X216270000Y-169350000D02*
X221670000Y-169350000D01*
X216270000Y-167850000D02*
X216270000Y-169350000D01*
X221670000Y-167850000D02*
X216270000Y-167850000D01*
X219470000Y-169100000D02*
X219470000Y-168100000D01*
X218470000Y-168100000D02*
X219370000Y-168600000D01*
X218470000Y-169100000D02*
X218470000Y-168100000D01*
X219370000Y-168600000D02*
X218470000Y-169100000D01*
X238860000Y-168550000D02*
X237960000Y-169050000D01*
X237960000Y-169050000D02*
X237960000Y-168050000D01*
X237960000Y-168050000D02*
X238860000Y-168550000D01*
X238960000Y-169050000D02*
X238960000Y-168050000D01*
X241160000Y-167800000D02*
X235760000Y-167800000D01*
X235760000Y-167800000D02*
X235760000Y-169300000D01*
X235760000Y-169300000D02*
X241160000Y-169300000D01*
X241160000Y-169300000D02*
X241160000Y-167800000D01*
D12*
X146980000Y-97040000D02*
X146980000Y-97740000D01*
X146980000Y-94540000D02*
X145580000Y-94540000D01*
D13*
X136880000Y-99640000D02*
X139580000Y-99640000D01*
D11*
X147180000Y-94690000D02*
X147180000Y-94340000D01*
X147180000Y-94340000D02*
X138779999Y-94340000D01*
X142180000Y-97940000D02*
X147180000Y-97940000D01*
X136680000Y-99840000D02*
X139960000Y-99840000D01*
X136680000Y-96240000D02*
X136680000Y-97240000D01*
X136680000Y-99840000D02*
X136680000Y-99480000D01*
X136880000Y-99480000D02*
X136680000Y-99480000D01*
X136910000Y-97240000D02*
X136910000Y-99480000D01*
X136680000Y-97240000D02*
X136880000Y-97240000D01*
X146980000Y-94690000D02*
X147180000Y-94690000D01*
X146960000Y-96940000D02*
X146960000Y-94690000D01*
X147180000Y-96940000D02*
X146980000Y-96940000D01*
X147180000Y-97940000D02*
X147180000Y-96940000D01*
D14*
X145180000Y-96140000D02*
X138480000Y-96140000D01*
D15*
X146480000Y-94940000D02*
X146480000Y-97440000D01*
D13*
X146880000Y-97640000D02*
X145480000Y-97640000D01*
D16*
X138410000Y-95840000D02*
X138410000Y-98080000D01*
D17*
X137280000Y-99340000D02*
X137280000Y-97540001D01*
D10*
X136780000Y-97139999D02*
X136780000Y-96240000D01*
D11*
X139963682Y-99818529D02*
G75*
G02*
X142180000Y-97940000I2151318J-291471D01*
G01*
X136680000Y-96240001D02*
G75*
G02*
X138779999Y-94340000I2000000J-99999D01*
G01*
D15*
X139563682Y-99418529D02*
G75*
G02*
X141780000Y-97540000I2151318J-291471D01*
G01*
D12*
X166030000Y-97040000D02*
X166030000Y-97740000D01*
X166030000Y-94540000D02*
X164630000Y-94540000D01*
D13*
X155930000Y-99640000D02*
X158630000Y-99640000D01*
D11*
X166230000Y-94690000D02*
X166230000Y-94340000D01*
X166230000Y-94340000D02*
X157829999Y-94340000D01*
X161230000Y-97940000D02*
X166230000Y-97940000D01*
X155730000Y-99840000D02*
X159010000Y-99840000D01*
X155730000Y-96240000D02*
X155730000Y-97240000D01*
X155730000Y-99840000D02*
X155730000Y-99480000D01*
X155930000Y-99480000D02*
X155730000Y-99480000D01*
X155960000Y-97240000D02*
X155960000Y-99480000D01*
X155730000Y-97240000D02*
X155930000Y-97240000D01*
X166030000Y-94690000D02*
X166230000Y-94690000D01*
X166010000Y-96940000D02*
X166010000Y-94690000D01*
X166230000Y-96940000D02*
X166030000Y-96940000D01*
X166230000Y-97940000D02*
X166230000Y-96940000D01*
D14*
X164230000Y-96140000D02*
X157530000Y-96140000D01*
D15*
X165530000Y-94940000D02*
X165530000Y-97440000D01*
D13*
X165930000Y-97640000D02*
X164530000Y-97640000D01*
D16*
X157460000Y-95840000D02*
X157460000Y-98080000D01*
D17*
X156330000Y-99340000D02*
X156330000Y-97540001D01*
D10*
X155830000Y-97139999D02*
X155830000Y-96240000D01*
D11*
X159013682Y-99818529D02*
G75*
G02*
X161230000Y-97940000I2151318J-291471D01*
G01*
X155730000Y-96240001D02*
G75*
G02*
X157829999Y-94340000I2000000J-99999D01*
G01*
D15*
X158613682Y-99418529D02*
G75*
G02*
X160830000Y-97540000I2151318J-291471D01*
G01*
D12*
X185080000Y-97040000D02*
X185080000Y-97740000D01*
X185080000Y-94540000D02*
X183680000Y-94540000D01*
D13*
X174980000Y-99640000D02*
X177680000Y-99640000D01*
D11*
X185280000Y-94690000D02*
X185280000Y-94340000D01*
X185280000Y-94340000D02*
X176879999Y-94340000D01*
X180280000Y-97940000D02*
X185280000Y-97940000D01*
X174780000Y-99840000D02*
X178060000Y-99840000D01*
X174780000Y-96240000D02*
X174780000Y-97240000D01*
X174780000Y-99840000D02*
X174780000Y-99480000D01*
X174980000Y-99480000D02*
X174780000Y-99480000D01*
X175010000Y-97240000D02*
X175010000Y-99480000D01*
X174780000Y-97240000D02*
X174980000Y-97240000D01*
X185080000Y-94690000D02*
X185280000Y-94690000D01*
X185060000Y-96940000D02*
X185060000Y-94690000D01*
X185280000Y-96940000D02*
X185080000Y-96940000D01*
X185280000Y-97940000D02*
X185280000Y-96940000D01*
D14*
X183280000Y-96140000D02*
X176580000Y-96140000D01*
D15*
X184580000Y-94940000D02*
X184580000Y-97440000D01*
D13*
X184980000Y-97640000D02*
X183580000Y-97640000D01*
D16*
X176510000Y-95840000D02*
X176510000Y-98080000D01*
D17*
X175380000Y-99340000D02*
X175380000Y-97540001D01*
D10*
X174880000Y-97139999D02*
X174880000Y-96240000D01*
D11*
X178063682Y-99818529D02*
G75*
G02*
X180280000Y-97940000I2151318J-291471D01*
G01*
X174780000Y-96240001D02*
G75*
G02*
X176879999Y-94340000I2000000J-99999D01*
G01*
D15*
X177663682Y-99418529D02*
G75*
G02*
X179880000Y-97540000I2151318J-291471D01*
G01*
D12*
X204130000Y-97040000D02*
X204130000Y-97740000D01*
X204130000Y-94540000D02*
X202730000Y-94540000D01*
D13*
X194030000Y-99640000D02*
X196730000Y-99640000D01*
D11*
X204330000Y-94690000D02*
X204330000Y-94340000D01*
X204330000Y-94340000D02*
X195929999Y-94340000D01*
X199330000Y-97940000D02*
X204330000Y-97940000D01*
X193830000Y-99840000D02*
X197110000Y-99840000D01*
X193830000Y-96240000D02*
X193830000Y-97240000D01*
X193830000Y-99840000D02*
X193830000Y-99480000D01*
X194030000Y-99480000D02*
X193830000Y-99480000D01*
X194060000Y-97240000D02*
X194060000Y-99480000D01*
X193830000Y-97240000D02*
X194030000Y-97240000D01*
X204130000Y-94690000D02*
X204330000Y-94690000D01*
X204110000Y-96940000D02*
X204110000Y-94690000D01*
X204330000Y-96940000D02*
X204130000Y-96940000D01*
X204330000Y-97940000D02*
X204330000Y-96940000D01*
D14*
X202330000Y-96140000D02*
X195630000Y-96140000D01*
D15*
X203630000Y-94940000D02*
X203630000Y-97440000D01*
D13*
X204030000Y-97640000D02*
X202630000Y-97640000D01*
D16*
X195560000Y-95840000D02*
X195560000Y-98080000D01*
D17*
X194430000Y-99340000D02*
X194430000Y-97540001D01*
D10*
X193930000Y-97139999D02*
X193930000Y-96240000D01*
D11*
X197113682Y-99818529D02*
G75*
G02*
X199330000Y-97940000I2151318J-291471D01*
G01*
X193830000Y-96240001D02*
G75*
G02*
X195929999Y-94340000I2000000J-99999D01*
G01*
D15*
X196713682Y-99418529D02*
G75*
G02*
X198930000Y-97540000I2151318J-291471D01*
G01*
D12*
X223180000Y-97040000D02*
X223180000Y-97740000D01*
X223180000Y-94540000D02*
X221780000Y-94540000D01*
D13*
X213080000Y-99640000D02*
X215780000Y-99640000D01*
D11*
X223380000Y-94690000D02*
X223380000Y-94340000D01*
X223380000Y-94340000D02*
X214979999Y-94340000D01*
X218380000Y-97940000D02*
X223380000Y-97940000D01*
X212880000Y-99840000D02*
X216160000Y-99840000D01*
X212880000Y-96240000D02*
X212880000Y-97240000D01*
X212880000Y-99840000D02*
X212880000Y-99480000D01*
X213080000Y-99480000D02*
X212880000Y-99480000D01*
X213110000Y-97240000D02*
X213110000Y-99480000D01*
X212880000Y-97240000D02*
X213080000Y-97240000D01*
X223180000Y-94690000D02*
X223380000Y-94690000D01*
X223160000Y-96940000D02*
X223160000Y-94690000D01*
X223380000Y-96940000D02*
X223180000Y-96940000D01*
X223380000Y-97940000D02*
X223380000Y-96940000D01*
D14*
X221380000Y-96140000D02*
X214680000Y-96140000D01*
D15*
X222680000Y-94940000D02*
X222680000Y-97440000D01*
D13*
X223080000Y-97640000D02*
X221680000Y-97640000D01*
D16*
X214610000Y-95840000D02*
X214610000Y-98080000D01*
D17*
X213480000Y-99340000D02*
X213480000Y-97540001D01*
D10*
X212980000Y-97139999D02*
X212980000Y-96240000D01*
D11*
X216163682Y-99818529D02*
G75*
G02*
X218380000Y-97940000I2151318J-291471D01*
G01*
X212880000Y-96240001D02*
G75*
G02*
X214979999Y-94340000I2000000J-99999D01*
G01*
D15*
X215763682Y-99418529D02*
G75*
G02*
X217980000Y-97540000I2151318J-291471D01*
G01*
D10*
X232030000Y-97139999D02*
X232030000Y-96240000D01*
D17*
X232530000Y-99340000D02*
X232530000Y-97540001D01*
D16*
X233660000Y-95840000D02*
X233660000Y-98080000D01*
D13*
X242130000Y-97640000D02*
X240730000Y-97640000D01*
D15*
X241730000Y-94940000D02*
X241730000Y-97440000D01*
D14*
X240430000Y-96140000D02*
X233730000Y-96140000D01*
D11*
X242430000Y-97940000D02*
X242430000Y-96940000D01*
X242430000Y-96940000D02*
X242230000Y-96940000D01*
X242210000Y-96940000D02*
X242210000Y-94690000D01*
X242230000Y-94690000D02*
X242430000Y-94690000D01*
X231930000Y-97240000D02*
X232130000Y-97240000D01*
X232160000Y-97240000D02*
X232160000Y-99480000D01*
X232130000Y-99480000D02*
X231930000Y-99480000D01*
X231930000Y-99840000D02*
X231930000Y-99480000D01*
X231930000Y-96240000D02*
X231930000Y-97240000D01*
X231930000Y-99840000D02*
X235210000Y-99840000D01*
X237430000Y-97940000D02*
X242430000Y-97940000D01*
X242430000Y-94340000D02*
X234029999Y-94340000D01*
X242430000Y-94690000D02*
X242430000Y-94340000D01*
D13*
X232130000Y-99640000D02*
X234830000Y-99640000D01*
D12*
X242230000Y-94540000D02*
X240830000Y-94540000D01*
X242230000Y-97040000D02*
X242230000Y-97740000D01*
D15*
X234813682Y-99418529D02*
G75*
G02*
X237030000Y-97540000I2151318J-291471D01*
G01*
D11*
X231930000Y-96240001D02*
G75*
G02*
X234029999Y-94340000I2000000J-99999D01*
G01*
X235213682Y-99818529D02*
G75*
G02*
X237430000Y-97940000I2151318J-291471D01*
G01*
D10*
X136780000Y-116189999D02*
X136780000Y-115290000D01*
D17*
X137280000Y-118390000D02*
X137280000Y-116590001D01*
D16*
X138410000Y-114890000D02*
X138410000Y-117130000D01*
D13*
X146880000Y-116690000D02*
X145480000Y-116690000D01*
D15*
X146480000Y-113990000D02*
X146480000Y-116490000D01*
D14*
X145180000Y-115190000D02*
X138480000Y-115190000D01*
D11*
X147180000Y-116990000D02*
X147180000Y-115990000D01*
X147180000Y-115990000D02*
X146980000Y-115990000D01*
X146960000Y-115990000D02*
X146960000Y-113740000D01*
X146980000Y-113740000D02*
X147180000Y-113740000D01*
X136680000Y-116290000D02*
X136880000Y-116290000D01*
X136910000Y-116290000D02*
X136910000Y-118530000D01*
X136880000Y-118530000D02*
X136680000Y-118530000D01*
X136680000Y-118890000D02*
X136680000Y-118530000D01*
X136680000Y-115290000D02*
X136680000Y-116290000D01*
X136680000Y-118890000D02*
X139960000Y-118890000D01*
X142180000Y-116990000D02*
X147180000Y-116990000D01*
X147180000Y-113390000D02*
X138779999Y-113390000D01*
X147180000Y-113740000D02*
X147180000Y-113390000D01*
D13*
X136880000Y-118690000D02*
X139580000Y-118690000D01*
D12*
X146980000Y-113590000D02*
X145580000Y-113590000D01*
X146980000Y-116090000D02*
X146980000Y-116790000D01*
D15*
X139563682Y-118468529D02*
G75*
G02*
X141780000Y-116590000I2151318J-291471D01*
G01*
D11*
X136680000Y-115290001D02*
G75*
G02*
X138779999Y-113390000I2000000J-99999D01*
G01*
X139963682Y-118868529D02*
G75*
G02*
X142180000Y-116990000I2151318J-291471D01*
G01*
D10*
X155830000Y-116189999D02*
X155830000Y-115290000D01*
D17*
X156330000Y-118390000D02*
X156330000Y-116590001D01*
D16*
X157460000Y-114890000D02*
X157460000Y-117130000D01*
D13*
X165930000Y-116690000D02*
X164530000Y-116690000D01*
D15*
X165530000Y-113990000D02*
X165530000Y-116490000D01*
D14*
X164230000Y-115190000D02*
X157530000Y-115190000D01*
D11*
X166230000Y-116990000D02*
X166230000Y-115990000D01*
X166230000Y-115990000D02*
X166030000Y-115990000D01*
X166010000Y-115990000D02*
X166010000Y-113740000D01*
X166030000Y-113740000D02*
X166230000Y-113740000D01*
X155730000Y-116290000D02*
X155930000Y-116290000D01*
X155960000Y-116290000D02*
X155960000Y-118530000D01*
X155930000Y-118530000D02*
X155730000Y-118530000D01*
X155730000Y-118890000D02*
X155730000Y-118530000D01*
X155730000Y-115290000D02*
X155730000Y-116290000D01*
X155730000Y-118890000D02*
X159010000Y-118890000D01*
X161230000Y-116990000D02*
X166230000Y-116990000D01*
X166230000Y-113390000D02*
X157829999Y-113390000D01*
X166230000Y-113740000D02*
X166230000Y-113390000D01*
D13*
X155930000Y-118690000D02*
X158630000Y-118690000D01*
D12*
X166030000Y-113590000D02*
X164630000Y-113590000D01*
X166030000Y-116090000D02*
X166030000Y-116790000D01*
D15*
X158613682Y-118468529D02*
G75*
G02*
X160830000Y-116590000I2151318J-291471D01*
G01*
D11*
X155730000Y-115290001D02*
G75*
G02*
X157829999Y-113390000I2000000J-99999D01*
G01*
X159013682Y-118868529D02*
G75*
G02*
X161230000Y-116990000I2151318J-291471D01*
G01*
D10*
X174880000Y-116189999D02*
X174880000Y-115290000D01*
D17*
X175380000Y-118390000D02*
X175380000Y-116590001D01*
D16*
X176510000Y-114890000D02*
X176510000Y-117130000D01*
D13*
X184980000Y-116690000D02*
X183580000Y-116690000D01*
D15*
X184580000Y-113990000D02*
X184580000Y-116490000D01*
D14*
X183280000Y-115190000D02*
X176580000Y-115190000D01*
D11*
X185280000Y-116990000D02*
X185280000Y-115990000D01*
X185280000Y-115990000D02*
X185080000Y-115990000D01*
X185060000Y-115990000D02*
X185060000Y-113740000D01*
X185080000Y-113740000D02*
X185280000Y-113740000D01*
X174780000Y-116290000D02*
X174980000Y-116290000D01*
X175010000Y-116290000D02*
X175010000Y-118530000D01*
X174980000Y-118530000D02*
X174780000Y-118530000D01*
X174780000Y-118890000D02*
X174780000Y-118530000D01*
X174780000Y-115290000D02*
X174780000Y-116290000D01*
X174780000Y-118890000D02*
X178060000Y-118890000D01*
X180280000Y-116990000D02*
X185280000Y-116990000D01*
X185280000Y-113390000D02*
X176879999Y-113390000D01*
X185280000Y-113740000D02*
X185280000Y-113390000D01*
D13*
X174980000Y-118690000D02*
X177680000Y-118690000D01*
D12*
X185080000Y-113590000D02*
X183680000Y-113590000D01*
X185080000Y-116090000D02*
X185080000Y-116790000D01*
D15*
X177663682Y-118468529D02*
G75*
G02*
X179880000Y-116590000I2151318J-291471D01*
G01*
D11*
X174780000Y-115290001D02*
G75*
G02*
X176879999Y-113390000I2000000J-99999D01*
G01*
X178063682Y-118868529D02*
G75*
G02*
X180280000Y-116990000I2151318J-291471D01*
G01*
D12*
X204130000Y-116090000D02*
X204130000Y-116790000D01*
X204130000Y-113590000D02*
X202730000Y-113590000D01*
D13*
X194030000Y-118690000D02*
X196730000Y-118690000D01*
D11*
X204330000Y-113740000D02*
X204330000Y-113390000D01*
X204330000Y-113390000D02*
X195929999Y-113390000D01*
X199330000Y-116990000D02*
X204330000Y-116990000D01*
X193830000Y-118890000D02*
X197110000Y-118890000D01*
X193830000Y-115290000D02*
X193830000Y-116290000D01*
X193830000Y-118890000D02*
X193830000Y-118530000D01*
X194030000Y-118530000D02*
X193830000Y-118530000D01*
X194060000Y-116290000D02*
X194060000Y-118530000D01*
X193830000Y-116290000D02*
X194030000Y-116290000D01*
X204130000Y-113740000D02*
X204330000Y-113740000D01*
X204110000Y-115990000D02*
X204110000Y-113740000D01*
X204330000Y-115990000D02*
X204130000Y-115990000D01*
X204330000Y-116990000D02*
X204330000Y-115990000D01*
D14*
X202330000Y-115190000D02*
X195630000Y-115190000D01*
D15*
X203630000Y-113990000D02*
X203630000Y-116490000D01*
D13*
X204030000Y-116690000D02*
X202630000Y-116690000D01*
D16*
X195560000Y-114890000D02*
X195560000Y-117130000D01*
D17*
X194430000Y-118390000D02*
X194430000Y-116590001D01*
D10*
X193930000Y-116189999D02*
X193930000Y-115290000D01*
D11*
X197113682Y-118868529D02*
G75*
G02*
X199330000Y-116990000I2151318J-291471D01*
G01*
X193830000Y-115290001D02*
G75*
G02*
X195929999Y-113390000I2000000J-99999D01*
G01*
D15*
X196713682Y-118468529D02*
G75*
G02*
X198930000Y-116590000I2151318J-291471D01*
G01*
D10*
X212980000Y-116189999D02*
X212980000Y-115290000D01*
D17*
X213480000Y-118390000D02*
X213480000Y-116590001D01*
D16*
X214610000Y-114890000D02*
X214610000Y-117130000D01*
D13*
X223080000Y-116690000D02*
X221680000Y-116690000D01*
D15*
X222680000Y-113990000D02*
X222680000Y-116490000D01*
D14*
X221380000Y-115190000D02*
X214680000Y-115190000D01*
D11*
X223380000Y-116990000D02*
X223380000Y-115990000D01*
X223380000Y-115990000D02*
X223180000Y-115990000D01*
X223160000Y-115990000D02*
X223160000Y-113740000D01*
X223180000Y-113740000D02*
X223380000Y-113740000D01*
X212880000Y-116290000D02*
X213080000Y-116290000D01*
X213110000Y-116290000D02*
X213110000Y-118530000D01*
X213080000Y-118530000D02*
X212880000Y-118530000D01*
X212880000Y-118890000D02*
X212880000Y-118530000D01*
X212880000Y-115290000D02*
X212880000Y-116290000D01*
X212880000Y-118890000D02*
X216160000Y-118890000D01*
X218380000Y-116990000D02*
X223380000Y-116990000D01*
X223380000Y-113390000D02*
X214979999Y-113390000D01*
X223380000Y-113740000D02*
X223380000Y-113390000D01*
D13*
X213080000Y-118690000D02*
X215780000Y-118690000D01*
D12*
X223180000Y-113590000D02*
X221780000Y-113590000D01*
X223180000Y-116090000D02*
X223180000Y-116790000D01*
D15*
X215763682Y-118468529D02*
G75*
G02*
X217980000Y-116590000I2151318J-291471D01*
G01*
D11*
X212880000Y-115290001D02*
G75*
G02*
X214979999Y-113390000I2000000J-99999D01*
G01*
X216163682Y-118868529D02*
G75*
G02*
X218380000Y-116990000I2151318J-291471D01*
G01*
D10*
X232030000Y-116189999D02*
X232030000Y-115290000D01*
D17*
X232530000Y-118390000D02*
X232530000Y-116590001D01*
D16*
X233660000Y-114890000D02*
X233660000Y-117130000D01*
D13*
X242130000Y-116690000D02*
X240730000Y-116690000D01*
D15*
X241730000Y-113990000D02*
X241730000Y-116490000D01*
D14*
X240430000Y-115190000D02*
X233730000Y-115190000D01*
D11*
X242430000Y-116990000D02*
X242430000Y-115990000D01*
X242430000Y-115990000D02*
X242230000Y-115990000D01*
X242210000Y-115990000D02*
X242210000Y-113740000D01*
X242230000Y-113740000D02*
X242430000Y-113740000D01*
X231930000Y-116290000D02*
X232130000Y-116290000D01*
X232160000Y-116290000D02*
X232160000Y-118530000D01*
X232130000Y-118530000D02*
X231930000Y-118530000D01*
X231930000Y-118890000D02*
X231930000Y-118530000D01*
X231930000Y-115290000D02*
X231930000Y-116290000D01*
X231930000Y-118890000D02*
X235210000Y-118890000D01*
X237430000Y-116990000D02*
X242430000Y-116990000D01*
X242430000Y-113390000D02*
X234029999Y-113390000D01*
X242430000Y-113740000D02*
X242430000Y-113390000D01*
D13*
X232130000Y-118690000D02*
X234830000Y-118690000D01*
D12*
X242230000Y-113590000D02*
X240830000Y-113590000D01*
X242230000Y-116090000D02*
X242230000Y-116790000D01*
D15*
X234813682Y-118468529D02*
G75*
G02*
X237030000Y-116590000I2151318J-291471D01*
G01*
D11*
X231930000Y-115290001D02*
G75*
G02*
X234029999Y-113390000I2000000J-99999D01*
G01*
X235213682Y-118868529D02*
G75*
G02*
X237430000Y-116990000I2151318J-291471D01*
G01*
D12*
X146980000Y-135140000D02*
X146980000Y-135840000D01*
X146980000Y-132640000D02*
X145580000Y-132640000D01*
D13*
X136880000Y-137740000D02*
X139580000Y-137740000D01*
D11*
X147180000Y-132790000D02*
X147180000Y-132440000D01*
X147180000Y-132440000D02*
X138779999Y-132440000D01*
X142180000Y-136040000D02*
X147180000Y-136040000D01*
X136680000Y-137940000D02*
X139960000Y-137940000D01*
X136680000Y-134340000D02*
X136680000Y-135340000D01*
X136680000Y-137940000D02*
X136680000Y-137580000D01*
X136880000Y-137580000D02*
X136680000Y-137580000D01*
X136910000Y-135340000D02*
X136910000Y-137580000D01*
X136680000Y-135340000D02*
X136880000Y-135340000D01*
X146980000Y-132790000D02*
X147180000Y-132790000D01*
X146960000Y-135040000D02*
X146960000Y-132790000D01*
X147180000Y-135040000D02*
X146980000Y-135040000D01*
X147180000Y-136040000D02*
X147180000Y-135040000D01*
D14*
X145180000Y-134240000D02*
X138480000Y-134240000D01*
D15*
X146480000Y-133040000D02*
X146480000Y-135540000D01*
D13*
X146880000Y-135740000D02*
X145480000Y-135740000D01*
D16*
X138410000Y-133940000D02*
X138410000Y-136180000D01*
D17*
X137280000Y-137440000D02*
X137280000Y-135640001D01*
D10*
X136780000Y-135239999D02*
X136780000Y-134340000D01*
D11*
X139963682Y-137918529D02*
G75*
G02*
X142180000Y-136040000I2151318J-291471D01*
G01*
X136680000Y-134340001D02*
G75*
G02*
X138779999Y-132440000I2000000J-99999D01*
G01*
D15*
X139563682Y-137518529D02*
G75*
G02*
X141780000Y-135640000I2151318J-291471D01*
G01*
D10*
X155830000Y-135239999D02*
X155830000Y-134340000D01*
D17*
X156330000Y-137440000D02*
X156330000Y-135640001D01*
D16*
X157460000Y-133940000D02*
X157460000Y-136180000D01*
D13*
X165930000Y-135740000D02*
X164530000Y-135740000D01*
D15*
X165530000Y-133040000D02*
X165530000Y-135540000D01*
D14*
X164230000Y-134240000D02*
X157530000Y-134240000D01*
D11*
X166230000Y-136040000D02*
X166230000Y-135040000D01*
X166230000Y-135040000D02*
X166030000Y-135040000D01*
X166010000Y-135040000D02*
X166010000Y-132790000D01*
X166030000Y-132790000D02*
X166230000Y-132790000D01*
X155730000Y-135340000D02*
X155930000Y-135340000D01*
X155960000Y-135340000D02*
X155960000Y-137580000D01*
X155930000Y-137580000D02*
X155730000Y-137580000D01*
X155730000Y-137940000D02*
X155730000Y-137580000D01*
X155730000Y-134340000D02*
X155730000Y-135340000D01*
X155730000Y-137940000D02*
X159010000Y-137940000D01*
X161230000Y-136040000D02*
X166230000Y-136040000D01*
X166230000Y-132440000D02*
X157829999Y-132440000D01*
X166230000Y-132790000D02*
X166230000Y-132440000D01*
D13*
X155930000Y-137740000D02*
X158630000Y-137740000D01*
D12*
X166030000Y-132640000D02*
X164630000Y-132640000D01*
X166030000Y-135140000D02*
X166030000Y-135840000D01*
D15*
X158613682Y-137518529D02*
G75*
G02*
X160830000Y-135640000I2151318J-291471D01*
G01*
D11*
X155730000Y-134340001D02*
G75*
G02*
X157829999Y-132440000I2000000J-99999D01*
G01*
X159013682Y-137918529D02*
G75*
G02*
X161230000Y-136040000I2151318J-291471D01*
G01*
D10*
X174880000Y-135239999D02*
X174880000Y-134340000D01*
D17*
X175380000Y-137440000D02*
X175380000Y-135640001D01*
D16*
X176510000Y-133940000D02*
X176510000Y-136180000D01*
D13*
X184980000Y-135740000D02*
X183580000Y-135740000D01*
D15*
X184580000Y-133040000D02*
X184580000Y-135540000D01*
D14*
X183280000Y-134240000D02*
X176580000Y-134240000D01*
D11*
X185280000Y-136040000D02*
X185280000Y-135040000D01*
X185280000Y-135040000D02*
X185080000Y-135040000D01*
X185060000Y-135040000D02*
X185060000Y-132790000D01*
X185080000Y-132790000D02*
X185280000Y-132790000D01*
X174780000Y-135340000D02*
X174980000Y-135340000D01*
X175010000Y-135340000D02*
X175010000Y-137580000D01*
X174980000Y-137580000D02*
X174780000Y-137580000D01*
X174780000Y-137940000D02*
X174780000Y-137580000D01*
X174780000Y-134340000D02*
X174780000Y-135340000D01*
X174780000Y-137940000D02*
X178060000Y-137940000D01*
X180280000Y-136040000D02*
X185280000Y-136040000D01*
X185280000Y-132440000D02*
X176879999Y-132440000D01*
X185280000Y-132790000D02*
X185280000Y-132440000D01*
D13*
X174980000Y-137740000D02*
X177680000Y-137740000D01*
D12*
X185080000Y-132640000D02*
X183680000Y-132640000D01*
X185080000Y-135140000D02*
X185080000Y-135840000D01*
D15*
X177663682Y-137518529D02*
G75*
G02*
X179880000Y-135640000I2151318J-291471D01*
G01*
D11*
X174780000Y-134340001D02*
G75*
G02*
X176879999Y-132440000I2000000J-99999D01*
G01*
X178063682Y-137918529D02*
G75*
G02*
X180280000Y-136040000I2151318J-291471D01*
G01*
D10*
X193930000Y-135239999D02*
X193930000Y-134340000D01*
D17*
X194430000Y-137440000D02*
X194430000Y-135640001D01*
D16*
X195560000Y-133940000D02*
X195560000Y-136180000D01*
D13*
X204030000Y-135740000D02*
X202630000Y-135740000D01*
D15*
X203630000Y-133040000D02*
X203630000Y-135540000D01*
D14*
X202330000Y-134240000D02*
X195630000Y-134240000D01*
D11*
X204330000Y-136040000D02*
X204330000Y-135040000D01*
X204330000Y-135040000D02*
X204130000Y-135040000D01*
X204110000Y-135040000D02*
X204110000Y-132790000D01*
X204130000Y-132790000D02*
X204330000Y-132790000D01*
X193830000Y-135340000D02*
X194030000Y-135340000D01*
X194060000Y-135340000D02*
X194060000Y-137580000D01*
X194030000Y-137580000D02*
X193830000Y-137580000D01*
X193830000Y-137940000D02*
X193830000Y-137580000D01*
X193830000Y-134340000D02*
X193830000Y-135340000D01*
X193830000Y-137940000D02*
X197110000Y-137940000D01*
X199330000Y-136040000D02*
X204330000Y-136040000D01*
X204330000Y-132440000D02*
X195929999Y-132440000D01*
X204330000Y-132790000D02*
X204330000Y-132440000D01*
D13*
X194030000Y-137740000D02*
X196730000Y-137740000D01*
D12*
X204130000Y-132640000D02*
X202730000Y-132640000D01*
X204130000Y-135140000D02*
X204130000Y-135840000D01*
D15*
X196713682Y-137518529D02*
G75*
G02*
X198930000Y-135640000I2151318J-291471D01*
G01*
D11*
X193830000Y-134340001D02*
G75*
G02*
X195929999Y-132440000I2000000J-99999D01*
G01*
X197113682Y-137918529D02*
G75*
G02*
X199330000Y-136040000I2151318J-291471D01*
G01*
D10*
X212980000Y-135239999D02*
X212980000Y-134340000D01*
D17*
X213480000Y-137440000D02*
X213480000Y-135640001D01*
D16*
X214610000Y-133940000D02*
X214610000Y-136180000D01*
D13*
X223080000Y-135740000D02*
X221680000Y-135740000D01*
D15*
X222680000Y-133040000D02*
X222680000Y-135540000D01*
D14*
X221380000Y-134240000D02*
X214680000Y-134240000D01*
D11*
X223380000Y-136040000D02*
X223380000Y-135040000D01*
X223380000Y-135040000D02*
X223180000Y-135040000D01*
X223160000Y-135040000D02*
X223160000Y-132790000D01*
X223180000Y-132790000D02*
X223380000Y-132790000D01*
X212880000Y-135340000D02*
X213080000Y-135340000D01*
X213110000Y-135340000D02*
X213110000Y-137580000D01*
X213080000Y-137580000D02*
X212880000Y-137580000D01*
X212880000Y-137940000D02*
X212880000Y-137580000D01*
X212880000Y-134340000D02*
X212880000Y-135340000D01*
X212880000Y-137940000D02*
X216160000Y-137940000D01*
X218380000Y-136040000D02*
X223380000Y-136040000D01*
X223380000Y-132440000D02*
X214979999Y-132440000D01*
X223380000Y-132790000D02*
X223380000Y-132440000D01*
D13*
X213080000Y-137740000D02*
X215780000Y-137740000D01*
D12*
X223180000Y-132640000D02*
X221780000Y-132640000D01*
X223180000Y-135140000D02*
X223180000Y-135840000D01*
D15*
X215763682Y-137518529D02*
G75*
G02*
X217980000Y-135640000I2151318J-291471D01*
G01*
D11*
X212880000Y-134340001D02*
G75*
G02*
X214979999Y-132440000I2000000J-99999D01*
G01*
X216163682Y-137918529D02*
G75*
G02*
X218380000Y-136040000I2151318J-291471D01*
G01*
D10*
X232030000Y-135239999D02*
X232030000Y-134340000D01*
D17*
X232530000Y-137440000D02*
X232530000Y-135640001D01*
D16*
X233660000Y-133940000D02*
X233660000Y-136180000D01*
D13*
X242130000Y-135740000D02*
X240730000Y-135740000D01*
D15*
X241730000Y-133040000D02*
X241730000Y-135540000D01*
D14*
X240430000Y-134240000D02*
X233730000Y-134240000D01*
D11*
X242430000Y-136040000D02*
X242430000Y-135040000D01*
X242430000Y-135040000D02*
X242230000Y-135040000D01*
X242210000Y-135040000D02*
X242210000Y-132790000D01*
X242230000Y-132790000D02*
X242430000Y-132790000D01*
X231930000Y-135340000D02*
X232130000Y-135340000D01*
X232160000Y-135340000D02*
X232160000Y-137580000D01*
X232130000Y-137580000D02*
X231930000Y-137580000D01*
X231930000Y-137940000D02*
X231930000Y-137580000D01*
X231930000Y-134340000D02*
X231930000Y-135340000D01*
X231930000Y-137940000D02*
X235210000Y-137940000D01*
X237430000Y-136040000D02*
X242430000Y-136040000D01*
X242430000Y-132440000D02*
X234029999Y-132440000D01*
X242430000Y-132790000D02*
X242430000Y-132440000D01*
D13*
X232130000Y-137740000D02*
X234830000Y-137740000D01*
D12*
X242230000Y-132640000D02*
X240830000Y-132640000D01*
X242230000Y-135140000D02*
X242230000Y-135840000D01*
D15*
X234813682Y-137518529D02*
G75*
G02*
X237030000Y-135640000I2151318J-291471D01*
G01*
D11*
X231930000Y-134340001D02*
G75*
G02*
X234029999Y-132440000I2000000J-99999D01*
G01*
X235213682Y-137918529D02*
G75*
G02*
X237430000Y-136040000I2151318J-291471D01*
G01*
D12*
X127930000Y-154190000D02*
X127930000Y-154890000D01*
X127930000Y-151690000D02*
X126530000Y-151690000D01*
D13*
X117830000Y-156790000D02*
X120530000Y-156790000D01*
D11*
X128130000Y-151840000D02*
X128130000Y-151490000D01*
X128130000Y-151490000D02*
X119729999Y-151490000D01*
X123130000Y-155090000D02*
X128130000Y-155090000D01*
X117630000Y-156990000D02*
X120910000Y-156990000D01*
X117630000Y-153390000D02*
X117630000Y-154390000D01*
X117630000Y-156990000D02*
X117630000Y-156630000D01*
X117830000Y-156630000D02*
X117630000Y-156630000D01*
X117860000Y-154390000D02*
X117860000Y-156630000D01*
X117630000Y-154390000D02*
X117830000Y-154390000D01*
X127930000Y-151840000D02*
X128130000Y-151840000D01*
X127910000Y-154090000D02*
X127910000Y-151840000D01*
X128130000Y-154090000D02*
X127930000Y-154090000D01*
X128130000Y-155090000D02*
X128130000Y-154090000D01*
D14*
X126130000Y-153290000D02*
X119430000Y-153290000D01*
D15*
X127430000Y-152090000D02*
X127430000Y-154590000D01*
D13*
X127830000Y-154790000D02*
X126430000Y-154790000D01*
D16*
X119360000Y-152990000D02*
X119360000Y-155230000D01*
D17*
X118230000Y-156490000D02*
X118230000Y-154690001D01*
D10*
X117730000Y-154289999D02*
X117730000Y-153390000D01*
D11*
X120913682Y-156968529D02*
G75*
G02*
X123130000Y-155090000I2151318J-291471D01*
G01*
X117630000Y-153390001D02*
G75*
G02*
X119729999Y-151490000I2000000J-99999D01*
G01*
D15*
X120513682Y-156568529D02*
G75*
G02*
X122730000Y-154690000I2151318J-291471D01*
G01*
D10*
X136780000Y-154289999D02*
X136780000Y-153390000D01*
D17*
X137280000Y-156490000D02*
X137280000Y-154690001D01*
D16*
X138410000Y-152990000D02*
X138410000Y-155230000D01*
D13*
X146880000Y-154790000D02*
X145480000Y-154790000D01*
D15*
X146480000Y-152090000D02*
X146480000Y-154590000D01*
D14*
X145180000Y-153290000D02*
X138480000Y-153290000D01*
D11*
X147180000Y-155090000D02*
X147180000Y-154090000D01*
X147180000Y-154090000D02*
X146980000Y-154090000D01*
X146960000Y-154090000D02*
X146960000Y-151840000D01*
X146980000Y-151840000D02*
X147180000Y-151840000D01*
X136680000Y-154390000D02*
X136880000Y-154390000D01*
X136910000Y-154390000D02*
X136910000Y-156630000D01*
X136880000Y-156630000D02*
X136680000Y-156630000D01*
X136680000Y-156990000D02*
X136680000Y-156630000D01*
X136680000Y-153390000D02*
X136680000Y-154390000D01*
X136680000Y-156990000D02*
X139960000Y-156990000D01*
X142180000Y-155090000D02*
X147180000Y-155090000D01*
X147180000Y-151490000D02*
X138779999Y-151490000D01*
X147180000Y-151840000D02*
X147180000Y-151490000D01*
D13*
X136880000Y-156790000D02*
X139580000Y-156790000D01*
D12*
X146980000Y-151690000D02*
X145580000Y-151690000D01*
X146980000Y-154190000D02*
X146980000Y-154890000D01*
D15*
X139563682Y-156568529D02*
G75*
G02*
X141780000Y-154690000I2151318J-291471D01*
G01*
D11*
X136680000Y-153390001D02*
G75*
G02*
X138779999Y-151490000I2000000J-99999D01*
G01*
X139963682Y-156968529D02*
G75*
G02*
X142180000Y-155090000I2151318J-291471D01*
G01*
D12*
X166030000Y-154190000D02*
X166030000Y-154890000D01*
X166030000Y-151690000D02*
X164630000Y-151690000D01*
D13*
X155930000Y-156790000D02*
X158630000Y-156790000D01*
D11*
X166230000Y-151840000D02*
X166230000Y-151490000D01*
X166230000Y-151490000D02*
X157829999Y-151490000D01*
X161230000Y-155090000D02*
X166230000Y-155090000D01*
X155730000Y-156990000D02*
X159010000Y-156990000D01*
X155730000Y-153390000D02*
X155730000Y-154390000D01*
X155730000Y-156990000D02*
X155730000Y-156630000D01*
X155930000Y-156630000D02*
X155730000Y-156630000D01*
X155960000Y-154390000D02*
X155960000Y-156630000D01*
X155730000Y-154390000D02*
X155930000Y-154390000D01*
X166030000Y-151840000D02*
X166230000Y-151840000D01*
X166010000Y-154090000D02*
X166010000Y-151840000D01*
X166230000Y-154090000D02*
X166030000Y-154090000D01*
X166230000Y-155090000D02*
X166230000Y-154090000D01*
D14*
X164230000Y-153290000D02*
X157530000Y-153290000D01*
D15*
X165530000Y-152090000D02*
X165530000Y-154590000D01*
D13*
X165930000Y-154790000D02*
X164530000Y-154790000D01*
D16*
X157460000Y-152990000D02*
X157460000Y-155230000D01*
D17*
X156330000Y-156490000D02*
X156330000Y-154690001D01*
D10*
X155830000Y-154289999D02*
X155830000Y-153390000D01*
D11*
X159013682Y-156968529D02*
G75*
G02*
X161230000Y-155090000I2151318J-291471D01*
G01*
X155730000Y-153390001D02*
G75*
G02*
X157829999Y-151490000I2000000J-99999D01*
G01*
D15*
X158613682Y-156568529D02*
G75*
G02*
X160830000Y-154690000I2151318J-291471D01*
G01*
D10*
X174880000Y-154289999D02*
X174880000Y-153390000D01*
D17*
X175380000Y-156490000D02*
X175380000Y-154690001D01*
D16*
X176510000Y-152990000D02*
X176510000Y-155230000D01*
D13*
X184980000Y-154790000D02*
X183580000Y-154790000D01*
D15*
X184580000Y-152090000D02*
X184580000Y-154590000D01*
D14*
X183280000Y-153290000D02*
X176580000Y-153290000D01*
D11*
X185280000Y-155090000D02*
X185280000Y-154090000D01*
X185280000Y-154090000D02*
X185080000Y-154090000D01*
X185060000Y-154090000D02*
X185060000Y-151840000D01*
X185080000Y-151840000D02*
X185280000Y-151840000D01*
X174780000Y-154390000D02*
X174980000Y-154390000D01*
X175010000Y-154390000D02*
X175010000Y-156630000D01*
X174980000Y-156630000D02*
X174780000Y-156630000D01*
X174780000Y-156990000D02*
X174780000Y-156630000D01*
X174780000Y-153390000D02*
X174780000Y-154390000D01*
X174780000Y-156990000D02*
X178060000Y-156990000D01*
X180280000Y-155090000D02*
X185280000Y-155090000D01*
X185280000Y-151490000D02*
X176879999Y-151490000D01*
X185280000Y-151840000D02*
X185280000Y-151490000D01*
D13*
X174980000Y-156790000D02*
X177680000Y-156790000D01*
D12*
X185080000Y-151690000D02*
X183680000Y-151690000D01*
X185080000Y-154190000D02*
X185080000Y-154890000D01*
D15*
X177663682Y-156568529D02*
G75*
G02*
X179880000Y-154690000I2151318J-291471D01*
G01*
D11*
X174780000Y-153390001D02*
G75*
G02*
X176879999Y-151490000I2000000J-99999D01*
G01*
X178063682Y-156968529D02*
G75*
G02*
X180280000Y-155090000I2151318J-291471D01*
G01*
D12*
X204130000Y-154190000D02*
X204130000Y-154890000D01*
X204130000Y-151690000D02*
X202730000Y-151690000D01*
D13*
X194030000Y-156790000D02*
X196730000Y-156790000D01*
D11*
X204330000Y-151840000D02*
X204330000Y-151490000D01*
X204330000Y-151490000D02*
X195929999Y-151490000D01*
X199330000Y-155090000D02*
X204330000Y-155090000D01*
X193830000Y-156990000D02*
X197110000Y-156990000D01*
X193830000Y-153390000D02*
X193830000Y-154390000D01*
X193830000Y-156990000D02*
X193830000Y-156630000D01*
X194030000Y-156630000D02*
X193830000Y-156630000D01*
X194060000Y-154390000D02*
X194060000Y-156630000D01*
X193830000Y-154390000D02*
X194030000Y-154390000D01*
X204130000Y-151840000D02*
X204330000Y-151840000D01*
X204110000Y-154090000D02*
X204110000Y-151840000D01*
X204330000Y-154090000D02*
X204130000Y-154090000D01*
X204330000Y-155090000D02*
X204330000Y-154090000D01*
D14*
X202330000Y-153290000D02*
X195630000Y-153290000D01*
D15*
X203630000Y-152090000D02*
X203630000Y-154590000D01*
D13*
X204030000Y-154790000D02*
X202630000Y-154790000D01*
D16*
X195560000Y-152990000D02*
X195560000Y-155230000D01*
D17*
X194430000Y-156490000D02*
X194430000Y-154690001D01*
D10*
X193930000Y-154289999D02*
X193930000Y-153390000D01*
D11*
X197113682Y-156968529D02*
G75*
G02*
X199330000Y-155090000I2151318J-291471D01*
G01*
X193830000Y-153390001D02*
G75*
G02*
X195929999Y-151490000I2000000J-99999D01*
G01*
D15*
X196713682Y-156568529D02*
G75*
G02*
X198930000Y-154690000I2151318J-291471D01*
G01*
D10*
X212980000Y-154289999D02*
X212980000Y-153390000D01*
D17*
X213480000Y-156490000D02*
X213480000Y-154690001D01*
D16*
X214610000Y-152990000D02*
X214610000Y-155230000D01*
D13*
X223080000Y-154790000D02*
X221680000Y-154790000D01*
D15*
X222680000Y-152090000D02*
X222680000Y-154590000D01*
D14*
X221380000Y-153290000D02*
X214680000Y-153290000D01*
D11*
X223380000Y-155090000D02*
X223380000Y-154090000D01*
X223380000Y-154090000D02*
X223180000Y-154090000D01*
X223160000Y-154090000D02*
X223160000Y-151840000D01*
X223180000Y-151840000D02*
X223380000Y-151840000D01*
X212880000Y-154390000D02*
X213080000Y-154390000D01*
X213110000Y-154390000D02*
X213110000Y-156630000D01*
X213080000Y-156630000D02*
X212880000Y-156630000D01*
X212880000Y-156990000D02*
X212880000Y-156630000D01*
X212880000Y-153390000D02*
X212880000Y-154390000D01*
X212880000Y-156990000D02*
X216160000Y-156990000D01*
X218380000Y-155090000D02*
X223380000Y-155090000D01*
X223380000Y-151490000D02*
X214979999Y-151490000D01*
X223380000Y-151840000D02*
X223380000Y-151490000D01*
D13*
X213080000Y-156790000D02*
X215780000Y-156790000D01*
D12*
X223180000Y-151690000D02*
X221780000Y-151690000D01*
X223180000Y-154190000D02*
X223180000Y-154890000D01*
D15*
X215763682Y-156568529D02*
G75*
G02*
X217980000Y-154690000I2151318J-291471D01*
G01*
D11*
X212880000Y-153390001D02*
G75*
G02*
X214979999Y-151490000I2000000J-99999D01*
G01*
X216163682Y-156968529D02*
G75*
G02*
X218380000Y-155090000I2151318J-291471D01*
G01*
D12*
X242230000Y-154190000D02*
X242230000Y-154890000D01*
X242230000Y-151690000D02*
X240830000Y-151690000D01*
D13*
X232130000Y-156790000D02*
X234830000Y-156790000D01*
D11*
X242430000Y-151840000D02*
X242430000Y-151490000D01*
X242430000Y-151490000D02*
X234029999Y-151490000D01*
X237430000Y-155090000D02*
X242430000Y-155090000D01*
X231930000Y-156990000D02*
X235210000Y-156990000D01*
X231930000Y-153390000D02*
X231930000Y-154390000D01*
X231930000Y-156990000D02*
X231930000Y-156630000D01*
X232130000Y-156630000D02*
X231930000Y-156630000D01*
X232160000Y-154390000D02*
X232160000Y-156630000D01*
X231930000Y-154390000D02*
X232130000Y-154390000D01*
X242230000Y-151840000D02*
X242430000Y-151840000D01*
X242210000Y-154090000D02*
X242210000Y-151840000D01*
X242430000Y-154090000D02*
X242230000Y-154090000D01*
X242430000Y-155090000D02*
X242430000Y-154090000D01*
D14*
X240430000Y-153290000D02*
X233730000Y-153290000D01*
D15*
X241730000Y-152090000D02*
X241730000Y-154590000D01*
D13*
X242130000Y-154790000D02*
X240730000Y-154790000D01*
D16*
X233660000Y-152990000D02*
X233660000Y-155230000D01*
D17*
X232530000Y-156490000D02*
X232530000Y-154690001D01*
D10*
X232030000Y-154289999D02*
X232030000Y-153390000D01*
D11*
X235213682Y-156968529D02*
G75*
G02*
X237430000Y-155090000I2151318J-291471D01*
G01*
X231930000Y-153390001D02*
G75*
G02*
X234029999Y-151490000I2000000J-99999D01*
G01*
D15*
X234813682Y-156568529D02*
G75*
G02*
X237030000Y-154690000I2151318J-291471D01*
G01*
D10*
X117730000Y-173339999D02*
X117730000Y-172440000D01*
D17*
X118230000Y-175540000D02*
X118230000Y-173740001D01*
D16*
X119360000Y-172040000D02*
X119360000Y-174280000D01*
D13*
X127830000Y-173840000D02*
X126430000Y-173840000D01*
D15*
X127430000Y-171140000D02*
X127430000Y-173640000D01*
D14*
X126130000Y-172340000D02*
X119430000Y-172340000D01*
D11*
X128130000Y-174140000D02*
X128130000Y-173140000D01*
X128130000Y-173140000D02*
X127930000Y-173140000D01*
X127910000Y-173140000D02*
X127910000Y-170890000D01*
X127930000Y-170890000D02*
X128130000Y-170890000D01*
X117630000Y-173440000D02*
X117830000Y-173440000D01*
X117860000Y-173440000D02*
X117860000Y-175680000D01*
X117830000Y-175680000D02*
X117630000Y-175680000D01*
X117630000Y-176040000D02*
X117630000Y-175680000D01*
X117630000Y-172440000D02*
X117630000Y-173440000D01*
X117630000Y-176040000D02*
X120910000Y-176040000D01*
X123130000Y-174140000D02*
X128130000Y-174140000D01*
X128130000Y-170540000D02*
X119729999Y-170540000D01*
X128130000Y-170890000D02*
X128130000Y-170540000D01*
D13*
X117830000Y-175840000D02*
X120530000Y-175840000D01*
D12*
X127930000Y-170740000D02*
X126530000Y-170740000D01*
X127930000Y-173240000D02*
X127930000Y-173940000D01*
D15*
X120513682Y-175618529D02*
G75*
G02*
X122730000Y-173740000I2151318J-291471D01*
G01*
D11*
X117630000Y-172440001D02*
G75*
G02*
X119729999Y-170540000I2000000J-99999D01*
G01*
X120913682Y-176018529D02*
G75*
G02*
X123130000Y-174140000I2151318J-291471D01*
G01*
D12*
X146980000Y-173240000D02*
X146980000Y-173940000D01*
X146980000Y-170740000D02*
X145580000Y-170740000D01*
D13*
X136880000Y-175840000D02*
X139580000Y-175840000D01*
D11*
X147180000Y-170890000D02*
X147180000Y-170540000D01*
X147180000Y-170540000D02*
X138779999Y-170540000D01*
X142180000Y-174140000D02*
X147180000Y-174140000D01*
X136680000Y-176040000D02*
X139960000Y-176040000D01*
X136680000Y-172440000D02*
X136680000Y-173440000D01*
X136680000Y-176040000D02*
X136680000Y-175680000D01*
X136880000Y-175680000D02*
X136680000Y-175680000D01*
X136910000Y-173440000D02*
X136910000Y-175680000D01*
X136680000Y-173440000D02*
X136880000Y-173440000D01*
X146980000Y-170890000D02*
X147180000Y-170890000D01*
X146960000Y-173140000D02*
X146960000Y-170890000D01*
X147180000Y-173140000D02*
X146980000Y-173140000D01*
X147180000Y-174140000D02*
X147180000Y-173140000D01*
D14*
X145180000Y-172340000D02*
X138480000Y-172340000D01*
D15*
X146480000Y-171140000D02*
X146480000Y-173640000D01*
D13*
X146880000Y-173840000D02*
X145480000Y-173840000D01*
D16*
X138410000Y-172040000D02*
X138410000Y-174280000D01*
D17*
X137280000Y-175540000D02*
X137280000Y-173740001D01*
D10*
X136780000Y-173339999D02*
X136780000Y-172440000D01*
D11*
X139963682Y-176018529D02*
G75*
G02*
X142180000Y-174140000I2151318J-291471D01*
G01*
X136680000Y-172440001D02*
G75*
G02*
X138779999Y-170540000I2000000J-99999D01*
G01*
D15*
X139563682Y-175618529D02*
G75*
G02*
X141780000Y-173740000I2151318J-291471D01*
G01*
D10*
X155830000Y-173339999D02*
X155830000Y-172440000D01*
D17*
X156330000Y-175540000D02*
X156330000Y-173740001D01*
D16*
X157460000Y-172040000D02*
X157460000Y-174280000D01*
D13*
X165930000Y-173840000D02*
X164530000Y-173840000D01*
D15*
X165530000Y-171140000D02*
X165530000Y-173640000D01*
D14*
X164230000Y-172340000D02*
X157530000Y-172340000D01*
D11*
X166230000Y-174140000D02*
X166230000Y-173140000D01*
X166230000Y-173140000D02*
X166030000Y-173140000D01*
X166010000Y-173140000D02*
X166010000Y-170890000D01*
X166030000Y-170890000D02*
X166230000Y-170890000D01*
X155730000Y-173440000D02*
X155930000Y-173440000D01*
X155960000Y-173440000D02*
X155960000Y-175680000D01*
X155930000Y-175680000D02*
X155730000Y-175680000D01*
X155730000Y-176040000D02*
X155730000Y-175680000D01*
X155730000Y-172440000D02*
X155730000Y-173440000D01*
X155730000Y-176040000D02*
X159010000Y-176040000D01*
X161230000Y-174140000D02*
X166230000Y-174140000D01*
X166230000Y-170540000D02*
X157829999Y-170540000D01*
X166230000Y-170890000D02*
X166230000Y-170540000D01*
D13*
X155930000Y-175840000D02*
X158630000Y-175840000D01*
D12*
X166030000Y-170740000D02*
X164630000Y-170740000D01*
X166030000Y-173240000D02*
X166030000Y-173940000D01*
D15*
X158613682Y-175618529D02*
G75*
G02*
X160830000Y-173740000I2151318J-291471D01*
G01*
D11*
X155730000Y-172440001D02*
G75*
G02*
X157829999Y-170540000I2000000J-99999D01*
G01*
X159013682Y-176018529D02*
G75*
G02*
X161230000Y-174140000I2151318J-291471D01*
G01*
D12*
X185080000Y-173240000D02*
X185080000Y-173940000D01*
X185080000Y-170740000D02*
X183680000Y-170740000D01*
D13*
X174980000Y-175840000D02*
X177680000Y-175840000D01*
D11*
X185280000Y-170890000D02*
X185280000Y-170540000D01*
X185280000Y-170540000D02*
X176879999Y-170540000D01*
X180280000Y-174140000D02*
X185280000Y-174140000D01*
X174780000Y-176040000D02*
X178060000Y-176040000D01*
X174780000Y-172440000D02*
X174780000Y-173440000D01*
X174780000Y-176040000D02*
X174780000Y-175680000D01*
X174980000Y-175680000D02*
X174780000Y-175680000D01*
X175010000Y-173440000D02*
X175010000Y-175680000D01*
X174780000Y-173440000D02*
X174980000Y-173440000D01*
X185080000Y-170890000D02*
X185280000Y-170890000D01*
X185060000Y-173140000D02*
X185060000Y-170890000D01*
X185280000Y-173140000D02*
X185080000Y-173140000D01*
X185280000Y-174140000D02*
X185280000Y-173140000D01*
D14*
X183280000Y-172340000D02*
X176580000Y-172340000D01*
D15*
X184580000Y-171140000D02*
X184580000Y-173640000D01*
D13*
X184980000Y-173840000D02*
X183580000Y-173840000D01*
D16*
X176510000Y-172040000D02*
X176510000Y-174280000D01*
D17*
X175380000Y-175540000D02*
X175380000Y-173740001D01*
D10*
X174880000Y-173339999D02*
X174880000Y-172440000D01*
D11*
X178063682Y-176018529D02*
G75*
G02*
X180280000Y-174140000I2151318J-291471D01*
G01*
X174780000Y-172440001D02*
G75*
G02*
X176879999Y-170540000I2000000J-99999D01*
G01*
D15*
X177663682Y-175618529D02*
G75*
G02*
X179880000Y-173740000I2151318J-291471D01*
G01*
D12*
X204130000Y-173240000D02*
X204130000Y-173940000D01*
X204130000Y-170740000D02*
X202730000Y-170740000D01*
D13*
X194030000Y-175840000D02*
X196730000Y-175840000D01*
D11*
X204330000Y-170890000D02*
X204330000Y-170540000D01*
X204330000Y-170540000D02*
X195929999Y-170540000D01*
X199330000Y-174140000D02*
X204330000Y-174140000D01*
X193830000Y-176040000D02*
X197110000Y-176040000D01*
X193830000Y-172440000D02*
X193830000Y-173440000D01*
X193830000Y-176040000D02*
X193830000Y-175680000D01*
X194030000Y-175680000D02*
X193830000Y-175680000D01*
X194060000Y-173440000D02*
X194060000Y-175680000D01*
X193830000Y-173440000D02*
X194030000Y-173440000D01*
X204130000Y-170890000D02*
X204330000Y-170890000D01*
X204110000Y-173140000D02*
X204110000Y-170890000D01*
X204330000Y-173140000D02*
X204130000Y-173140000D01*
X204330000Y-174140000D02*
X204330000Y-173140000D01*
D14*
X202330000Y-172340000D02*
X195630000Y-172340000D01*
D15*
X203630000Y-171140000D02*
X203630000Y-173640000D01*
D13*
X204030000Y-173840000D02*
X202630000Y-173840000D01*
D16*
X195560000Y-172040000D02*
X195560000Y-174280000D01*
D17*
X194430000Y-175540000D02*
X194430000Y-173740001D01*
D10*
X193930000Y-173339999D02*
X193930000Y-172440000D01*
D11*
X197113682Y-176018529D02*
G75*
G02*
X199330000Y-174140000I2151318J-291471D01*
G01*
X193830000Y-172440001D02*
G75*
G02*
X195929999Y-170540000I2000000J-99999D01*
G01*
D15*
X196713682Y-175618529D02*
G75*
G02*
X198930000Y-173740000I2151318J-291471D01*
G01*
D12*
X223180000Y-173240000D02*
X223180000Y-173940000D01*
X223180000Y-170740000D02*
X221780000Y-170740000D01*
D13*
X213080000Y-175840000D02*
X215780000Y-175840000D01*
D11*
X223380000Y-170890000D02*
X223380000Y-170540000D01*
X223380000Y-170540000D02*
X214979999Y-170540000D01*
X218380000Y-174140000D02*
X223380000Y-174140000D01*
X212880000Y-176040000D02*
X216160000Y-176040000D01*
X212880000Y-172440000D02*
X212880000Y-173440000D01*
X212880000Y-176040000D02*
X212880000Y-175680000D01*
X213080000Y-175680000D02*
X212880000Y-175680000D01*
X213110000Y-173440000D02*
X213110000Y-175680000D01*
X212880000Y-173440000D02*
X213080000Y-173440000D01*
X223180000Y-170890000D02*
X223380000Y-170890000D01*
X223160000Y-173140000D02*
X223160000Y-170890000D01*
X223380000Y-173140000D02*
X223180000Y-173140000D01*
X223380000Y-174140000D02*
X223380000Y-173140000D01*
D14*
X221380000Y-172340000D02*
X214680000Y-172340000D01*
D15*
X222680000Y-171140000D02*
X222680000Y-173640000D01*
D13*
X223080000Y-173840000D02*
X221680000Y-173840000D01*
D16*
X214610000Y-172040000D02*
X214610000Y-174280000D01*
D17*
X213480000Y-175540000D02*
X213480000Y-173740001D01*
D10*
X212980000Y-173339999D02*
X212980000Y-172440000D01*
D11*
X216163682Y-176018529D02*
G75*
G02*
X218380000Y-174140000I2151318J-291471D01*
G01*
X212880000Y-172440001D02*
G75*
G02*
X214979999Y-170540000I2000000J-99999D01*
G01*
D15*
X215763682Y-175618529D02*
G75*
G02*
X217980000Y-173740000I2151318J-291471D01*
G01*
D12*
X242230000Y-173240000D02*
X242230000Y-173940000D01*
X242230000Y-170740000D02*
X240830000Y-170740000D01*
D13*
X232130000Y-175840000D02*
X234830000Y-175840000D01*
D11*
X242430000Y-170890000D02*
X242430000Y-170540000D01*
X242430000Y-170540000D02*
X234029999Y-170540000D01*
X237430000Y-174140000D02*
X242430000Y-174140000D01*
X231930000Y-176040000D02*
X235210000Y-176040000D01*
X231930000Y-172440000D02*
X231930000Y-173440000D01*
X231930000Y-176040000D02*
X231930000Y-175680000D01*
X232130000Y-175680000D02*
X231930000Y-175680000D01*
X232160000Y-173440000D02*
X232160000Y-175680000D01*
X231930000Y-173440000D02*
X232130000Y-173440000D01*
X242230000Y-170890000D02*
X242430000Y-170890000D01*
X242210000Y-173140000D02*
X242210000Y-170890000D01*
X242430000Y-173140000D02*
X242230000Y-173140000D01*
X242430000Y-174140000D02*
X242430000Y-173140000D01*
D14*
X240430000Y-172340000D02*
X233730000Y-172340000D01*
D15*
X241730000Y-171140000D02*
X241730000Y-173640000D01*
D13*
X242130000Y-173840000D02*
X240730000Y-173840000D01*
D16*
X233660000Y-172040000D02*
X233660000Y-174280000D01*
D17*
X232530000Y-175540000D02*
X232530000Y-173740001D01*
D10*
X232030000Y-173339999D02*
X232030000Y-172440000D01*
D11*
X235213682Y-176018529D02*
G75*
G02*
X237430000Y-174140000I2151318J-291471D01*
G01*
X231930000Y-172440001D02*
G75*
G02*
X234029999Y-170540000I2000000J-99999D01*
G01*
D15*
X234813682Y-175618529D02*
G75*
G02*
X237030000Y-173740000I2151318J-291471D01*
G01*
D11*
X112192380Y-114274619D02*
X111716190Y-113941285D01*
X112192380Y-113703190D02*
X111192380Y-113703190D01*
X111192380Y-114084142D01*
X111240000Y-114179380D01*
X111287619Y-114227000D01*
X111382857Y-114274619D01*
X111525714Y-114274619D01*
X111620952Y-114227000D01*
X111668571Y-114179380D01*
X111716190Y-114084142D01*
X111716190Y-113703190D01*
X111668571Y-114703190D02*
X111668571Y-115036523D01*
X112192380Y-115179380D02*
X112192380Y-114703190D01*
X111192380Y-114703190D01*
X111192380Y-115179380D01*
X112144761Y-115560333D02*
X112192380Y-115703190D01*
X112192380Y-115941285D01*
X112144761Y-116036523D01*
X112097142Y-116084142D01*
X112001904Y-116131761D01*
X111906666Y-116131761D01*
X111811428Y-116084142D01*
X111763809Y-116036523D01*
X111716190Y-115941285D01*
X111668571Y-115750809D01*
X111620952Y-115655571D01*
X111573333Y-115607952D01*
X111478095Y-115560333D01*
X111382857Y-115560333D01*
X111287619Y-115607952D01*
X111240000Y-115655571D01*
X111192380Y-115750809D01*
X111192380Y-115988904D01*
X111240000Y-116131761D01*
X111668571Y-116560333D02*
X111668571Y-116893666D01*
X112192380Y-117036523D02*
X112192380Y-116560333D01*
X111192380Y-116560333D01*
X111192380Y-117036523D01*
X111192380Y-117322238D02*
X111192380Y-117893666D01*
X112192380Y-117607952D02*
X111192380Y-117607952D01*
X137371904Y-123840000D02*
X137467142Y-123792380D01*
X137610000Y-123792380D01*
X137752857Y-123840000D01*
X137848095Y-123935238D01*
X137895714Y-124030476D01*
X137943333Y-124220952D01*
X137943333Y-124363809D01*
X137895714Y-124554285D01*
X137848095Y-124649523D01*
X137752857Y-124744761D01*
X137610000Y-124792380D01*
X137514761Y-124792380D01*
X137371904Y-124744761D01*
X137324285Y-124697142D01*
X137324285Y-124363809D01*
X137514761Y-124363809D01*
X136895714Y-124792380D02*
X136895714Y-123792380D01*
X136324285Y-124792380D01*
X136324285Y-123792380D01*
X135848095Y-124792380D02*
X135848095Y-123792380D01*
X135610000Y-123792380D01*
X135467142Y-123840000D01*
X135371904Y-123935238D01*
X135324285Y-124030476D01*
X135276666Y-124220952D01*
X135276666Y-124363809D01*
X135324285Y-124554285D01*
X135371904Y-124649523D01*
X135467142Y-124744761D01*
X135610000Y-124792380D01*
X135848095Y-124792380D01*
X137342857Y-127382380D02*
X137819047Y-127382380D01*
X137819047Y-126382380D01*
X137009523Y-126858571D02*
X136676190Y-126858571D01*
X136533333Y-127382380D02*
X137009523Y-127382380D01*
X137009523Y-126382380D01*
X136533333Y-126382380D01*
X136104761Y-127382380D02*
X136104761Y-126382380D01*
X135866666Y-126382380D01*
X135723809Y-126430000D01*
X135628571Y-126525238D01*
X135580952Y-126620476D01*
X135533333Y-126810952D01*
X135533333Y-126953809D01*
X135580952Y-127144285D01*
X135628571Y-127239523D01*
X135723809Y-127334761D01*
X135866666Y-127382380D01*
X136104761Y-127382380D01*
X137993333Y-128842380D02*
X137660000Y-129842380D01*
X137326666Y-128842380D01*
X136421904Y-129747142D02*
X136469523Y-129794761D01*
X136612380Y-129842380D01*
X136707619Y-129842380D01*
X136850476Y-129794761D01*
X136945714Y-129699523D01*
X136993333Y-129604285D01*
X137040952Y-129413809D01*
X137040952Y-129270952D01*
X136993333Y-129080476D01*
X136945714Y-128985238D01*
X136850476Y-128890000D01*
X136707619Y-128842380D01*
X136612380Y-128842380D01*
X136469523Y-128890000D01*
X136421904Y-128937619D01*
X135421904Y-129747142D02*
X135469523Y-129794761D01*
X135612380Y-129842380D01*
X135707619Y-129842380D01*
X135850476Y-129794761D01*
X135945714Y-129699523D01*
X135993333Y-129604285D01*
X136040952Y-129413809D01*
X136040952Y-129270952D01*
X135993333Y-129080476D01*
X135945714Y-128985238D01*
X135850476Y-128890000D01*
X135707619Y-128842380D01*
X135612380Y-128842380D01*
X135469523Y-128890000D01*
X135421904Y-128937619D01*
X117055880Y-142313595D02*
X117055880Y-142885023D01*
X118055880Y-142599309D02*
X117055880Y-142599309D01*
X118055880Y-143789785D02*
X117579690Y-143456452D01*
X118055880Y-143218357D02*
X117055880Y-143218357D01*
X117055880Y-143599309D01*
X117103500Y-143694547D01*
X117151119Y-143742166D01*
X117246357Y-143789785D01*
X117389214Y-143789785D01*
X117484452Y-143742166D01*
X117532071Y-143694547D01*
X117579690Y-143599309D01*
X117579690Y-143218357D01*
X118055880Y-144789785D02*
X117579690Y-144456452D01*
X118055880Y-144218357D02*
X117055880Y-144218357D01*
X117055880Y-144599309D01*
X117103500Y-144694547D01*
X117151119Y-144742166D01*
X117246357Y-144789785D01*
X117389214Y-144789785D01*
X117484452Y-144742166D01*
X117532071Y-144694547D01*
X117579690Y-144599309D01*
X117579690Y-144218357D01*
X118008261Y-145170738D02*
X118055880Y-145313595D01*
X118055880Y-145551690D01*
X118008261Y-145646928D01*
X117960642Y-145694547D01*
X117865404Y-145742166D01*
X117770166Y-145742166D01*
X117674928Y-145694547D01*
X117627309Y-145646928D01*
X117579690Y-145551690D01*
X117532071Y-145361214D01*
X117484452Y-145265976D01*
X117436833Y-145218357D01*
X117341595Y-145170738D01*
X117246357Y-145170738D01*
X117151119Y-145218357D01*
X117103500Y-145265976D01*
X117055880Y-145361214D01*
X117055880Y-145599309D01*
X117103500Y-145742166D01*
M02*
