M48
; DRILL file {KiCad (5.1.6-0-10_14)} date Friday, September 23, 2022 at 07:30:50 PM
; FORMAT={-:-/ absolute / metric / decimal}
; #@! TF.CreationDate,2022-09-23T19:30:50+09:00
; #@! TF.GenerationSoftware,Kicad,Pcbnew,(5.1.6-0-10_14)
; #@! TF.FileFunction,Plated,1,2,PTH
FMAT,2
METRIC
T1C0.400
T2C0.813
T3C1.000
T4C1.300
T5C2.200
%
G90
G05
T1
X113.115Y-133.51
X113.17Y-124.1
X113.97Y-134.22
X113.99Y-122.58
X115.61Y-145.26
X115.63Y-143.155
X115.875Y-149.649
X115.875Y-161.77
X116.68Y-160.72
X116.88Y-143.12
X116.88Y-145.23
X117.069Y-149.662
X117.29Y-179.57
X117.52Y-148.77
X118.74Y-164.77
X119.7Y-160.12
X124.65Y-147.13
X124.885Y-144.175
X129.16Y-150.18
X131.88Y-169.11
X131.97Y-141.74
X132.35Y-171.97
X133.26Y-162.13
X133.366Y-144.544
X134.18Y-130.14
X134.22Y-127.62
X134.64Y-148.54
X134.7Y-143.54
X134.71Y-150.18
X134.75Y-141.71
X134.79Y-110.54
X134.855Y-107.81
X135.58Y-103.84
X136.305Y-150.28
X136.33Y-130.79
X136.369Y-123.801
X136.63Y-93.566
X136.88Y-132.05
X137.04Y-145.82
X137.07Y-179.75
X137.45Y-110.54
X137.48Y-107.78
X137.55Y-128.31
X139.41Y-122.5
X141.74Y-126.91
X144.92Y-161.71
X144.99Y-129.51
X147.42Y-160.2
X148.25Y-141.79
X148.28Y-148.67
X148.28Y-150.78
X148.29Y-143.6
X148.74Y-131.515
X149.59Y-168.63
X150.32Y-141.02
X150.4Y-161.67
X150.99Y-123.17
X152.09Y-124.4
X152.12Y-129.5
X152.735Y-151.17
X153.4Y-148.39
X153.515Y-141.79
X153.515Y-143.56
X153.515Y-145.87
X153.53Y-109.28
X153.61Y-130.79
X153.74Y-149.74
X153.75Y-110.59
X154.63Y-103.81
X155.355Y-149.74
X155.42Y-148.39
X155.49Y-93.77
X155.6Y-109.33
X155.64Y-110.59
X155.796Y-130.671
X155.83Y-131.67
X155.85Y-179.68
X167.34Y-141.79
X167.34Y-145.81
X167.35Y-143.73
X167.43Y-148.67
X167.43Y-150.51
X172.455Y-141.85
X172.455Y-143.86
X172.46Y-109.2
X172.47Y-110.54
X172.49Y-145.87
X172.71Y-148.42
X172.74Y-149.72
X173.68Y-103.95
X174.52Y-149.72
X174.64Y-109.3
X174.67Y-148.48
X174.72Y-110.56
X174.77Y-93.69
X175.0Y-131.61
X175.07Y-179.74
X186.38Y-148.83
X186.38Y-150.61
X186.52Y-145.95
X186.59Y-143.67
X186.61Y-141.88
X191.51Y-109.1
X191.52Y-110.5
X191.8Y-149.8
X191.83Y-143.74
X191.83Y-148.61
X191.93Y-146.04
X192.73Y-103.89
X193.52Y-149.8
X193.59Y-148.58
X193.71Y-109.16
X193.73Y-131.64
X193.74Y-110.53
X193.9Y-179.75
X193.97Y-93.69
X205.36Y-150.565
X205.42Y-148.85
X205.59Y-145.79
X205.63Y-143.74
X210.71Y-149.84
X210.72Y-109.24
X210.76Y-148.29
X210.78Y-110.56
X210.87Y-145.84
X211.78Y-103.89
X212.61Y-149.88
X212.63Y-148.29
X212.77Y-179.75
X212.9Y-94.0
X212.97Y-109.21
X212.99Y-110.56
X213.04Y-131.53
X224.43Y-148.8
X224.43Y-150.495
X224.72Y-145.94
X229.68Y-149.83
X229.69Y-148.17
X229.93Y-110.58
X230.0Y-109.18
X230.83Y-103.65
X231.555Y-149.77
X231.6Y-148.17
X231.84Y-110.61
X231.85Y-109.21
X231.89Y-179.56
X231.94Y-131.36
X232.15Y-93.63
T2
X139.31Y-166.58
X146.93Y-166.58
X234.65Y-168.55
X242.27Y-168.55
X138.85Y-147.38
X146.47Y-147.38
X195.93Y-109.25
X203.55Y-109.25
X138.8Y-149.75
X146.42Y-149.75
X157.87Y-149.73
X165.49Y-149.73
X157.77Y-109.25
X165.39Y-109.25
X214.88Y-147.34
X222.5Y-147.34
X176.94Y-111.73
X184.56Y-111.73
X196.56Y-168.7
X204.18Y-168.7
X138.76Y-111.75
X146.38Y-111.75
X234.02Y-149.76
X241.64Y-149.76
X176.93Y-109.16
X184.55Y-109.16
X195.87Y-147.49
X203.49Y-147.49
X157.66Y-111.77
X165.28Y-111.77
X177.8Y-168.75
X185.42Y-168.75
X214.78Y-149.77
X222.4Y-149.77
X176.75Y-147.41
X184.37Y-147.41
X158.14Y-168.6
X165.76Y-168.6
X234.01Y-109.25
X241.63Y-109.25
X138.79Y-144.64
X146.41Y-144.64
X233.9Y-111.74
X241.52Y-111.74
X116.371Y-109.822
X116.371Y-112.362
X116.371Y-114.902
X116.371Y-117.442
X116.371Y-119.982
X116.371Y-122.522
X116.371Y-125.062
X116.371Y-127.602
X116.371Y-130.142
X116.371Y-132.682
X116.371Y-135.222
X116.371Y-137.762
X131.591Y-109.822
X131.591Y-112.362
X131.591Y-114.902
X131.591Y-117.442
X131.591Y-119.982
X131.591Y-122.522
X131.591Y-125.062
X131.591Y-127.602
X131.591Y-130.142
X131.591Y-132.682
X131.591Y-135.222
X131.591Y-137.762
X157.87Y-147.55
X165.49Y-147.55
X114.42Y-98.33
X114.42Y-100.87
X114.42Y-103.41
X139.26Y-168.94
X146.88Y-168.94
X215.01Y-109.23
X222.63Y-109.23
X195.85Y-149.84
X203.47Y-149.84
X215.03Y-111.64
X222.65Y-111.64
X215.16Y-168.6
X222.78Y-168.6
X176.75Y-149.82
X184.37Y-149.82
X234.09Y-147.39
X241.71Y-147.39
X195.87Y-111.73
X203.49Y-111.73
X138.74Y-109.25
X146.36Y-109.25
T3
X121.06Y-169.63
X121.06Y-184.13
X123.56Y-169.63
X126.06Y-169.63
X126.06Y-184.13
X120.99Y-150.42
X120.99Y-164.92
X123.49Y-150.42
X125.99Y-150.42
X125.99Y-164.92
T4
X111.74Y-112.35
X111.74Y-118.85
T5
X117.96Y-177.13
X129.16Y-177.13
X117.89Y-157.92
X129.09Y-157.92
T3
G00X114.24Y-141.15
M15
G01X114.74Y-141.15
M16
G05
G00X114.24Y-147.1
M15
G01X114.74Y-147.1
M16
G05
G00X117.24Y-141.15
M15
G01X117.74Y-141.15
M16
G05
G00X117.24Y-147.1
M15
G01X117.74Y-147.1
M16
G05
G00X121.24Y-141.15
M15
G01X121.74Y-141.15
M16
G05
G00X121.24Y-147.1
M15
G01X121.74Y-147.1
M16
G05
G00X122.74Y-142.9
M15
G01X123.24Y-142.9
M16
G05
G00X122.74Y-145.35
M15
G01X123.24Y-145.35
M16
G05
T0
M30
