G04 #@! TF.GenerationSoftware,KiCad,Pcbnew,(5.1.6-0-10_14)*
G04 #@! TF.CreationDate,2022-09-23T19:30:47+09:00*
G04 #@! TF.ProjectId,cool664,636f6f6c-3636-4342-9e6b-696361645f70,rev?*
G04 #@! TF.SameCoordinates,Original*
G04 #@! TF.FileFunction,Profile,NP*
%FSLAX46Y46*%
G04 Gerber Fmt 4.6, Leading zero omitted, Abs format (unit mm)*
G04 Created by KiCad (PCBNEW (5.1.6-0-10_14)) date 2022-09-23 19:30:47*
%MOMM*%
%LPD*%
G01*
G04 APERTURE LIST*
G04 #@! TA.AperFunction,Profile*
%ADD10C,0.150000*%
G04 #@! TD*
G04 APERTURE END LIST*
D10*
X130420000Y-104700000D02*
X130120000Y-104700000D01*
X111418984Y-149750000D02*
G75*
G02*
X109330000Y-147661016I0J2088984D01*
G01*
X244210000Y-92890000D02*
G75*
G02*
X246298984Y-94978984I0J-2088984D01*
G01*
X246300000Y-184161016D02*
G75*
G02*
X244211016Y-186250000I-2088984J0D01*
G01*
X116838984Y-186248984D02*
G75*
G02*
X114750000Y-184160000I0J2088984D01*
G01*
X109330000Y-98170000D02*
G75*
G02*
X111418984Y-96081016I2088984J0D01*
G01*
X115750000Y-96080000D02*
G75*
G02*
X117838984Y-98168984I0J-2088984D01*
G01*
X130120000Y-94980000D02*
G75*
G02*
X132208984Y-92891016I2088984J0D01*
G01*
X130120000Y-104700000D02*
X130120000Y-94980000D01*
X130420000Y-139050000D02*
X130420000Y-104700000D01*
X117540000Y-139050000D02*
X130420000Y-139050000D01*
X117540000Y-104690000D02*
X117540000Y-139050000D01*
X117840000Y-104690000D02*
X117540000Y-104690000D01*
X117838984Y-98168984D02*
X117840000Y-104690000D01*
X111418984Y-96081016D02*
X115750000Y-96080000D01*
X109330000Y-147661016D02*
X109330000Y-98170000D01*
X114750000Y-149750000D02*
X111418984Y-149750000D01*
X114750000Y-184160000D02*
X114750000Y-149750000D01*
X244211016Y-186250000D02*
X116838984Y-186248984D01*
X246298984Y-94978984D02*
X246300000Y-184161016D01*
X132208984Y-92891016D02*
X244210000Y-92890000D01*
M02*
