G04 #@! TF.GenerationSoftware,KiCad,Pcbnew,(5.1.6-0-10_14)*
G04 #@! TF.CreationDate,2022-09-23T19:30:47+09:00*
G04 #@! TF.ProjectId,cool664,636f6f6c-3636-4342-9e6b-696361645f70,rev?*
G04 #@! TF.SameCoordinates,Original*
G04 #@! TF.FileFunction,Copper,L2,Bot*
G04 #@! TF.FilePolarity,Positive*
%FSLAX46Y46*%
G04 Gerber Fmt 4.6, Leading zero omitted, Abs format (unit mm)*
G04 Created by KiCad (PCBNEW (5.1.6-0-10_14)) date 2022-09-23 19:30:47*
%MOMM*%
%LPD*%
G01*
G04 APERTURE LIST*
G04 #@! TA.AperFunction,ComponentPad*
%ADD10C,1.397000*%
G04 #@! TD*
G04 #@! TA.AperFunction,ComponentPad*
%ADD11C,2.000000*%
G04 #@! TD*
G04 #@! TA.AperFunction,SMDPad,CuDef*
%ADD12R,1.524000X1.524000*%
G04 #@! TD*
G04 #@! TA.AperFunction,ComponentPad*
%ADD13O,2.500000X1.700000*%
G04 #@! TD*
G04 #@! TA.AperFunction,ComponentPad*
%ADD14C,1.524000*%
G04 #@! TD*
G04 #@! TA.AperFunction,SMDPad,CuDef*
%ADD15R,1.300000X0.950000*%
G04 #@! TD*
G04 #@! TA.AperFunction,ComponentPad*
%ADD16R,1.397000X1.397000*%
G04 #@! TD*
G04 #@! TA.AperFunction,SMDPad,CuDef*
%ADD17R,2.300000X2.000000*%
G04 #@! TD*
G04 #@! TA.AperFunction,ComponentPad*
%ADD18C,2.800000*%
G04 #@! TD*
G04 #@! TA.AperFunction,ComponentPad*
%ADD19R,1.500000X1.500000*%
G04 #@! TD*
G04 #@! TA.AperFunction,ViaPad*
%ADD20C,0.800000*%
G04 #@! TD*
G04 #@! TA.AperFunction,Conductor*
%ADD21C,0.250000*%
G04 #@! TD*
G04 APERTURE END LIST*
D10*
X114420000Y-103410000D03*
X114420000Y-100870000D03*
X114420000Y-98330000D03*
D11*
X111740000Y-112350000D03*
X111740000Y-118850000D03*
D12*
X139410000Y-129490000D03*
X139410000Y-126950000D03*
X139410000Y-124410000D03*
D13*
X122990000Y-145350000D03*
X121490000Y-141150000D03*
X117490000Y-141150000D03*
X114490000Y-141150000D03*
X117490000Y-147100000D03*
X114490000Y-147100000D03*
X122990000Y-142900000D03*
X121490000Y-147100000D03*
D14*
X116371400Y-109822000D03*
X116371400Y-112362000D03*
X116371400Y-114902000D03*
X116371400Y-117442000D03*
X116371400Y-119982000D03*
X116371400Y-122522000D03*
X116371400Y-125062000D03*
X116371400Y-127602000D03*
X116371400Y-130142000D03*
X116371400Y-132682000D03*
X116371400Y-135222000D03*
X116371400Y-137762000D03*
X131591400Y-137762000D03*
X131591400Y-135222000D03*
X131591400Y-132682000D03*
X131591400Y-130142000D03*
X131591400Y-127602000D03*
X131591400Y-125062000D03*
X131591400Y-122522000D03*
X131591400Y-119982000D03*
X131591400Y-117442000D03*
X131591400Y-114902000D03*
X131591400Y-112362000D03*
X131591400Y-109822000D03*
D15*
X144325000Y-109250000D03*
X140775000Y-109250000D03*
D16*
X138740000Y-109250000D03*
D10*
X146360000Y-109250000D03*
X165390000Y-109250000D03*
D16*
X157770000Y-109250000D03*
D15*
X159805000Y-109250000D03*
X163355000Y-109250000D03*
X182515000Y-109160000D03*
X178965000Y-109160000D03*
D16*
X176930000Y-109160000D03*
D10*
X184550000Y-109160000D03*
X203550000Y-109250000D03*
D16*
X195930000Y-109250000D03*
D15*
X197965000Y-109250000D03*
X201515000Y-109250000D03*
D10*
X222630000Y-109230000D03*
D16*
X215010000Y-109230000D03*
D15*
X217045000Y-109230000D03*
X220595000Y-109230000D03*
X239595000Y-109250000D03*
X236045000Y-109250000D03*
D16*
X234010000Y-109250000D03*
D10*
X241630000Y-109250000D03*
D15*
X144345000Y-111750000D03*
X140795000Y-111750000D03*
D16*
X138760000Y-111750000D03*
D10*
X146380000Y-111750000D03*
X165280000Y-111770000D03*
D16*
X157660000Y-111770000D03*
D15*
X159695000Y-111770000D03*
X163245000Y-111770000D03*
D10*
X184560000Y-111730000D03*
D16*
X176940000Y-111730000D03*
D15*
X178975000Y-111730000D03*
X182525000Y-111730000D03*
D10*
X203490000Y-111730000D03*
D16*
X195870000Y-111730000D03*
D15*
X197905000Y-111730000D03*
X201455000Y-111730000D03*
D10*
X222650000Y-111640000D03*
D16*
X215030000Y-111640000D03*
D15*
X217065000Y-111640000D03*
X220615000Y-111640000D03*
D10*
X241520000Y-111740000D03*
D16*
X233900000Y-111740000D03*
D15*
X235935000Y-111740000D03*
X239485000Y-111740000D03*
X144435000Y-147380000D03*
X140885000Y-147380000D03*
D16*
X138850000Y-147380000D03*
D10*
X146470000Y-147380000D03*
D15*
X163455000Y-147550000D03*
X159905000Y-147550000D03*
D16*
X157870000Y-147550000D03*
D10*
X165490000Y-147550000D03*
X184370000Y-147410000D03*
D16*
X176750000Y-147410000D03*
D15*
X178785000Y-147410000D03*
X182335000Y-147410000D03*
X201455000Y-147490000D03*
X197905000Y-147490000D03*
D16*
X195870000Y-147490000D03*
D10*
X203490000Y-147490000D03*
X222500000Y-147340000D03*
D16*
X214880000Y-147340000D03*
D15*
X216915000Y-147340000D03*
X220465000Y-147340000D03*
X239675000Y-147390000D03*
X236125000Y-147390000D03*
D16*
X234090000Y-147390000D03*
D10*
X241710000Y-147390000D03*
X146410000Y-144640000D03*
D16*
X138790000Y-144640000D03*
D15*
X140825000Y-144640000D03*
X144375000Y-144640000D03*
X144385000Y-149750000D03*
X140835000Y-149750000D03*
D16*
X138800000Y-149750000D03*
D10*
X146420000Y-149750000D03*
D15*
X163455000Y-149730000D03*
X159905000Y-149730000D03*
D16*
X157870000Y-149730000D03*
D10*
X165490000Y-149730000D03*
D15*
X182335000Y-149820000D03*
X178785000Y-149820000D03*
D16*
X176750000Y-149820000D03*
D10*
X184370000Y-149820000D03*
D15*
X201435000Y-149840000D03*
X197885000Y-149840000D03*
D16*
X195850000Y-149840000D03*
D10*
X203470000Y-149840000D03*
D15*
X220365000Y-149770000D03*
X216815000Y-149770000D03*
D16*
X214780000Y-149770000D03*
D10*
X222400000Y-149770000D03*
D15*
X239605000Y-149760000D03*
X236055000Y-149760000D03*
D16*
X234020000Y-149760000D03*
D10*
X241640000Y-149760000D03*
X146930000Y-166580000D03*
D16*
X139310000Y-166580000D03*
D15*
X141345000Y-166580000D03*
X144895000Y-166580000D03*
D10*
X146880000Y-168940000D03*
D16*
X139260000Y-168940000D03*
D15*
X141295000Y-168940000D03*
X144845000Y-168940000D03*
D10*
X165760000Y-168600000D03*
D16*
X158140000Y-168600000D03*
D15*
X160175000Y-168600000D03*
X163725000Y-168600000D03*
X183385000Y-168750000D03*
X179835000Y-168750000D03*
D16*
X177800000Y-168750000D03*
D10*
X185420000Y-168750000D03*
X204180000Y-168700000D03*
D16*
X196560000Y-168700000D03*
D15*
X198595000Y-168700000D03*
X202145000Y-168700000D03*
X220745000Y-168600000D03*
X217195000Y-168600000D03*
D16*
X215160000Y-168600000D03*
D10*
X222780000Y-168600000D03*
X242270000Y-168550000D03*
D16*
X234650000Y-168550000D03*
D15*
X236685000Y-168550000D03*
X240235000Y-168550000D03*
D17*
X148280000Y-95820000D03*
X135580000Y-98360000D03*
X167330000Y-95820000D03*
X154630000Y-98360000D03*
X186380000Y-95820000D03*
X173680000Y-98360000D03*
X205430000Y-95820000D03*
X192730000Y-98360000D03*
X224480000Y-95820000D03*
X211780000Y-98360000D03*
X230830000Y-98360000D03*
X243530000Y-95820000D03*
X135580000Y-117410000D03*
X148280000Y-114870000D03*
X154630000Y-117410000D03*
X167330000Y-114870000D03*
X173680000Y-117410000D03*
X186380000Y-114870000D03*
X205430000Y-114870000D03*
X192730000Y-117410000D03*
X211780000Y-117410000D03*
X224480000Y-114870000D03*
X230830000Y-117410000D03*
X243530000Y-114870000D03*
X148280000Y-133920000D03*
X135580000Y-136460000D03*
X154630000Y-136460000D03*
X167330000Y-133920000D03*
X173680000Y-136460000D03*
X186380000Y-133920000D03*
X192730000Y-136460000D03*
X205430000Y-133920000D03*
X211780000Y-136460000D03*
X224480000Y-133920000D03*
X230830000Y-136460000D03*
X243530000Y-133920000D03*
X129230000Y-152970000D03*
X116530000Y-155510000D03*
X135580000Y-155510000D03*
X148280000Y-152970000D03*
X167330000Y-152970000D03*
X154630000Y-155510000D03*
X173680000Y-155510000D03*
X186380000Y-152970000D03*
X205430000Y-152970000D03*
X192730000Y-155510000D03*
X211780000Y-155510000D03*
X224480000Y-152970000D03*
X243530000Y-152970000D03*
X230830000Y-155510000D03*
X116530000Y-174560000D03*
X129230000Y-172020000D03*
X148280000Y-172020000D03*
X135580000Y-174560000D03*
X154630000Y-174560000D03*
X167330000Y-172020000D03*
X186380000Y-172020000D03*
X173680000Y-174560000D03*
X205430000Y-172020000D03*
X192730000Y-174560000D03*
X224480000Y-172020000D03*
X211780000Y-174560000D03*
X243530000Y-172020000D03*
X230830000Y-174560000D03*
D11*
X120990000Y-164920000D03*
X125990000Y-164920000D03*
D18*
X117890000Y-157920000D03*
X129090000Y-157920000D03*
D11*
X120990000Y-150420000D03*
X123490000Y-150420000D03*
D19*
X125990000Y-150420000D03*
X126060000Y-169630000D03*
D11*
X123560000Y-169630000D03*
X121060000Y-169630000D03*
D18*
X129160000Y-177130000D03*
X117960000Y-177130000D03*
D11*
X126060000Y-184130000D03*
X121060000Y-184130000D03*
D20*
X136630000Y-93565973D03*
X155490000Y-93770000D03*
X174770000Y-93690000D03*
X193970000Y-93690000D03*
X212900000Y-94000000D03*
X232150000Y-93630000D03*
X136880000Y-132050000D03*
X155830000Y-131670000D03*
X175000000Y-131610000D03*
X193730000Y-131640000D03*
X213040000Y-131530000D03*
X231940000Y-131360000D03*
X129160000Y-150180000D03*
X133365858Y-144544142D03*
X148280000Y-148670000D03*
X148280000Y-150780000D03*
X167430000Y-148670000D03*
X167430000Y-150510000D03*
X186380000Y-148830000D03*
X186380000Y-150610000D03*
X205420000Y-148850000D03*
X205360000Y-150565000D03*
X224430000Y-148800000D03*
X224430000Y-150495000D03*
X153530000Y-109280000D03*
X155600000Y-109330000D03*
X172460000Y-109200000D03*
X174640000Y-109300000D03*
X191510000Y-109100000D03*
X193710000Y-109160000D03*
X210720000Y-109240000D03*
X212970000Y-109210000D03*
X230000000Y-109180000D03*
X231850000Y-109210000D03*
X134855000Y-107810000D03*
X137480000Y-107780000D03*
X231840000Y-110610000D03*
X229930000Y-110580000D03*
X212990000Y-110560000D03*
X210780000Y-110560000D03*
X193740000Y-110530000D03*
X191520000Y-110500000D03*
X174720000Y-110560000D03*
X172470000Y-110540000D03*
X155640000Y-110590000D03*
X153750000Y-110590000D03*
X134790000Y-110540000D03*
X137450000Y-110540000D03*
X134640000Y-148540000D03*
X153400000Y-148390000D03*
X155420000Y-148390000D03*
X172710000Y-148420000D03*
X174670000Y-148480000D03*
X191830000Y-148610000D03*
X193590000Y-148580000D03*
X210760000Y-148290000D03*
X212630000Y-148290000D03*
X229690000Y-148170000D03*
X231600000Y-148170000D03*
X134710000Y-150180000D03*
X136305000Y-150280000D03*
X153740000Y-149740000D03*
X155355000Y-149740000D03*
X172740000Y-149720000D03*
X174520000Y-149720000D03*
X191800000Y-149800000D03*
X193520000Y-149800000D03*
X210710000Y-149840000D03*
X212610000Y-149880000D03*
X229680000Y-149830000D03*
X231555000Y-149770000D03*
X147420000Y-160200000D03*
X152735000Y-151170000D03*
X124650000Y-147130000D03*
X152090000Y-124400000D03*
X144990000Y-129510000D03*
X152120010Y-129499990D03*
X144920000Y-161710000D03*
X150400000Y-161670000D03*
X150990000Y-123170000D03*
X116880000Y-143120000D03*
X116880000Y-145230000D03*
X124884990Y-144174990D03*
X136369142Y-123800858D03*
X139410000Y-122500000D03*
X148740000Y-131515000D03*
X150320000Y-141020000D03*
X115630000Y-143155000D03*
X115610000Y-145260000D03*
X141740000Y-126910000D03*
X135580000Y-103840000D03*
X137070000Y-179750000D03*
X149590000Y-168630000D03*
X154630000Y-103810000D03*
X134220000Y-127620000D03*
X137550000Y-128310000D03*
X155850000Y-179680000D03*
X173680000Y-103950000D03*
X134180000Y-130140000D03*
X136330000Y-130790000D03*
X153610000Y-130790000D03*
X155795929Y-130670579D03*
X175070000Y-179740000D03*
X192730000Y-103890000D03*
X134750000Y-141710000D03*
X148250000Y-141790000D03*
X153515000Y-141790000D03*
X167340000Y-141790000D03*
X172455000Y-141850000D03*
X186610000Y-141880000D03*
X193900000Y-179750000D03*
X211780000Y-103890000D03*
X134700000Y-143540000D03*
X148290000Y-143600000D03*
X153515000Y-143560000D03*
X167350000Y-143730000D03*
X172455000Y-143860000D03*
X186590000Y-143670000D03*
X191830000Y-143740000D03*
X205630000Y-143740000D03*
X212770000Y-179750000D03*
X230830000Y-103650000D03*
X153515000Y-145870000D03*
X167340000Y-145810000D03*
X172490000Y-145870000D03*
X186520000Y-145950000D03*
X191930000Y-146040000D03*
X205590000Y-145790000D03*
X210870000Y-145840000D03*
X224720000Y-145940000D03*
X131970000Y-141740000D03*
X137040000Y-145820000D03*
X231890000Y-179560000D03*
X116680000Y-160720000D03*
X117290000Y-179570000D03*
X131880000Y-169110000D03*
X113970000Y-134220000D03*
X113990000Y-122580000D03*
X113115000Y-133510000D03*
X113170000Y-124100000D03*
X117520000Y-148770000D03*
X133260000Y-162130000D03*
X132350000Y-171970000D03*
X115875010Y-149649003D03*
X115875010Y-161770000D03*
X119700000Y-160120000D03*
X117068779Y-149662414D03*
X118740000Y-164770000D03*
D21*
X148280000Y-95820000D02*
X148280000Y-94660000D01*
X148280000Y-94660000D02*
X147090000Y-93470000D01*
X136725973Y-93470000D02*
X136630000Y-93565973D01*
X147090000Y-93470000D02*
X136725973Y-93470000D01*
X138740000Y-109250000D02*
X140775000Y-109250000D01*
X167330000Y-95820000D02*
X167330000Y-94840000D01*
X167330000Y-94840000D02*
X166260000Y-93770000D01*
X166260000Y-93770000D02*
X155490000Y-93770000D01*
X159805000Y-109250000D02*
X157770000Y-109250000D01*
X186380000Y-95820000D02*
X186380000Y-94610000D01*
X185460000Y-93690000D02*
X174770000Y-93690000D01*
X186380000Y-94610000D02*
X185460000Y-93690000D01*
X176930000Y-109160000D02*
X178965000Y-109160000D01*
X205430000Y-95820000D02*
X205430000Y-94580000D01*
X204540000Y-93690000D02*
X193970000Y-93690000D01*
X205430000Y-94580000D02*
X204540000Y-93690000D01*
X195930000Y-109250000D02*
X197965000Y-109250000D01*
X224480000Y-95820000D02*
X224480000Y-94760000D01*
X223720000Y-94000000D02*
X212900000Y-94000000D01*
X224480000Y-94760000D02*
X223720000Y-94000000D01*
X215010000Y-109230000D02*
X217045000Y-109230000D01*
X232150000Y-93630000D02*
X242890000Y-93630000D01*
X243530000Y-94270000D02*
X243530000Y-95820000D01*
X242890000Y-93630000D02*
X243530000Y-94270000D01*
X234010000Y-109250000D02*
X236045000Y-109250000D01*
X140795000Y-111750000D02*
X138760000Y-111750000D01*
X138760000Y-111750000D02*
X138760000Y-112600000D01*
X138760000Y-112600000D02*
X139220000Y-113060000D01*
X139220000Y-113060000D02*
X147730000Y-113060000D01*
X148280000Y-113610000D02*
X148280000Y-114870000D01*
X147730000Y-113060000D02*
X148280000Y-113610000D01*
X157660000Y-111770000D02*
X159695000Y-111770000D01*
X157660000Y-111770000D02*
X157660000Y-112680000D01*
X157773501Y-112793501D02*
X166646499Y-112793501D01*
X157660000Y-112680000D02*
X157773501Y-112793501D01*
X167330000Y-113477002D02*
X167330000Y-114870000D01*
X166646499Y-112793501D02*
X167330000Y-113477002D01*
X178975000Y-111730000D02*
X176940000Y-111730000D01*
X176940000Y-111730000D02*
X176940000Y-112380000D01*
X176940000Y-112380000D02*
X177490000Y-112930000D01*
X177490000Y-112930000D02*
X185710000Y-112930000D01*
X186380000Y-113600000D02*
X186380000Y-114870000D01*
X185710000Y-112930000D02*
X186380000Y-113600000D01*
X197905000Y-111730000D02*
X195870000Y-111730000D01*
X195870000Y-111730000D02*
X195870000Y-112400000D01*
X196223501Y-112753501D02*
X204583501Y-112753501D01*
X195870000Y-112400000D02*
X196223501Y-112753501D01*
X205430000Y-113600000D02*
X205430000Y-114870000D01*
X204583501Y-112753501D02*
X205430000Y-113600000D01*
X215030000Y-111640000D02*
X217065000Y-111640000D01*
X215030000Y-111640000D02*
X215030000Y-112510000D01*
X215030000Y-112510000D02*
X215460000Y-112940000D01*
X215460000Y-112940000D02*
X223910000Y-112940000D01*
X224480000Y-113510000D02*
X224480000Y-114870000D01*
X223910000Y-112940000D02*
X224480000Y-113510000D01*
X233900000Y-111740000D02*
X235935000Y-111740000D01*
X233900000Y-111740000D02*
X233900000Y-112220000D01*
X233900000Y-112220000D02*
X234590000Y-112910000D01*
X234590000Y-112910000D02*
X243300000Y-112910000D01*
X243530000Y-113140000D02*
X243530000Y-114870000D01*
X243300000Y-112910000D02*
X243530000Y-113140000D01*
X140885000Y-147380000D02*
X138850000Y-147380000D01*
X136880000Y-132050000D02*
X147710000Y-132050000D01*
X148280000Y-132620000D02*
X148280000Y-133920000D01*
X147710000Y-132050000D02*
X148280000Y-132620000D01*
X144530000Y-141030000D02*
X143400000Y-142160000D01*
X147840000Y-141030000D02*
X144530000Y-141030000D01*
X136040000Y-142990000D02*
X136040000Y-145990000D01*
X136870000Y-142160000D02*
X136040000Y-142990000D01*
X151360000Y-135060000D02*
X151360000Y-137510000D01*
X150220000Y-133920000D02*
X151360000Y-135060000D01*
X137430000Y-147380000D02*
X138850000Y-147380000D01*
X143400000Y-142160000D02*
X136870000Y-142160000D01*
X151360000Y-137510000D02*
X147840000Y-141030000D01*
X136040000Y-145990000D02*
X137430000Y-147380000D01*
X148280000Y-133920000D02*
X150220000Y-133920000D01*
X157870000Y-147550000D02*
X159905000Y-147550000D01*
X167330000Y-133920000D02*
X167330000Y-132380000D01*
X167330000Y-132380000D02*
X166610000Y-131660000D01*
X155840000Y-131660000D02*
X155830000Y-131670000D01*
X166610000Y-131660000D02*
X155840000Y-131660000D01*
X176750000Y-147410000D02*
X178785000Y-147410000D01*
X186380000Y-132310000D02*
X186380000Y-133920000D01*
X185680000Y-131610000D02*
X186380000Y-132310000D01*
X175000000Y-131610000D02*
X185680000Y-131610000D01*
X195870000Y-147490000D02*
X197905000Y-147490000D01*
X205430000Y-133920000D02*
X205430000Y-132440000D01*
X205430000Y-132440000D02*
X204600000Y-131610000D01*
X193760000Y-131610000D02*
X193730000Y-131640000D01*
X204600000Y-131610000D02*
X193760000Y-131610000D01*
X214880000Y-147340000D02*
X216915000Y-147340000D01*
X213040000Y-131530000D02*
X223600000Y-131530000D01*
X224480000Y-132410000D02*
X224480000Y-133920000D01*
X223600000Y-131530000D02*
X224480000Y-132410000D01*
X236125000Y-147390000D02*
X234090000Y-147390000D01*
X243530000Y-133920000D02*
X243530000Y-132520000D01*
X243530000Y-132520000D02*
X243530000Y-132010000D01*
X243530000Y-132010000D02*
X243530000Y-131880000D01*
X243010000Y-131360000D02*
X231940000Y-131360000D01*
X243530000Y-131880000D02*
X243010000Y-131360000D01*
X129160000Y-152900000D02*
X129230000Y-152970000D01*
X129160000Y-150180000D02*
X129160000Y-152900000D01*
X138790000Y-144640000D02*
X140825000Y-144640000D01*
X129160000Y-148750000D02*
X129160000Y-150180000D01*
X133365858Y-144544142D02*
X129160000Y-148750000D01*
X130815001Y-154555001D02*
X129230000Y-152970000D01*
X130815001Y-158748001D02*
X130815001Y-154555001D01*
X125968003Y-163594999D02*
X130815001Y-158748001D01*
X122315001Y-163594999D02*
X125968003Y-163594999D01*
X120990000Y-164920000D02*
X122315001Y-163594999D01*
X138800000Y-149750000D02*
X140835000Y-149750000D01*
X138800000Y-149750000D02*
X138800000Y-149140000D01*
X139270000Y-148670000D02*
X148280000Y-148670000D01*
X138800000Y-149140000D02*
X139270000Y-148670000D01*
X148280000Y-150780000D02*
X148280000Y-152970000D01*
X159905000Y-149730000D02*
X157870000Y-149730000D01*
X157870000Y-149730000D02*
X157870000Y-149500000D01*
X158700000Y-148670000D02*
X167430000Y-148670000D01*
X157870000Y-149500000D02*
X158700000Y-148670000D01*
X167430000Y-152870000D02*
X167330000Y-152970000D01*
X167430000Y-150510000D02*
X167430000Y-152870000D01*
X178785000Y-149820000D02*
X176750000Y-149820000D01*
X176750000Y-149820000D02*
X176750000Y-149370000D01*
X186346499Y-148796499D02*
X186380000Y-148830000D01*
X177323501Y-148796499D02*
X186346499Y-148796499D01*
X176750000Y-149370000D02*
X177323501Y-148796499D01*
X186380000Y-150610000D02*
X186380000Y-152970000D01*
X195850000Y-149840000D02*
X197885000Y-149840000D01*
X195850000Y-149840000D02*
X195850000Y-149630000D01*
X205386499Y-148816499D02*
X205420000Y-148850000D01*
X196663501Y-148816499D02*
X205386499Y-148816499D01*
X195850000Y-149630000D02*
X196663501Y-148816499D01*
X205360000Y-152900000D02*
X205430000Y-152970000D01*
X205360000Y-150565000D02*
X205360000Y-152900000D01*
X216815000Y-149770000D02*
X214780000Y-149770000D01*
X214780000Y-149770000D02*
X214780000Y-149390000D01*
X224376499Y-148746499D02*
X224430000Y-148800000D01*
X215423501Y-148746499D02*
X224376499Y-148746499D01*
X214780000Y-149390000D02*
X215423501Y-148746499D01*
X224430000Y-152920000D02*
X224480000Y-152970000D01*
X224430000Y-150495000D02*
X224430000Y-152920000D01*
X234020000Y-149760000D02*
X236055000Y-149760000D01*
X234020000Y-149760000D02*
X234020000Y-149260000D01*
X234543501Y-148736499D02*
X242826499Y-148736499D01*
X234020000Y-149260000D02*
X234543501Y-148736499D01*
X243530000Y-149440000D02*
X243530000Y-152970000D01*
X242826499Y-148736499D02*
X243530000Y-149440000D01*
X239595000Y-109250000D02*
X241630000Y-109250000D01*
X220595000Y-109230000D02*
X222630000Y-109230000D01*
X201515000Y-109250000D02*
X203550000Y-109250000D01*
X182515000Y-109160000D02*
X184550000Y-109160000D01*
X163355000Y-109250000D02*
X165390000Y-109250000D01*
X144325000Y-109250000D02*
X146360000Y-109250000D01*
X153500000Y-109250000D02*
X153530000Y-109280000D01*
X146360000Y-109250000D02*
X153500000Y-109250000D01*
X155600000Y-109330000D02*
X155600000Y-108200000D01*
X155600000Y-108200000D02*
X156050000Y-107750000D01*
X156050000Y-107750000D02*
X164590000Y-107750000D01*
X165390000Y-108550000D02*
X165390000Y-109250000D01*
X164590000Y-107750000D02*
X165390000Y-108550000D01*
X172410000Y-109250000D02*
X172460000Y-109200000D01*
X165390000Y-109250000D02*
X172410000Y-109250000D01*
X174640000Y-109300000D02*
X174640000Y-108060000D01*
X174640000Y-108060000D02*
X174890000Y-107810000D01*
X174890000Y-107810000D02*
X184260000Y-107810000D01*
X184550000Y-108100000D02*
X184550000Y-109160000D01*
X184260000Y-107810000D02*
X184550000Y-108100000D01*
X191450000Y-109160000D02*
X191510000Y-109100000D01*
X184550000Y-109160000D02*
X191450000Y-109160000D01*
X193710000Y-109160000D02*
X193710000Y-108220000D01*
X193710000Y-108220000D02*
X194130000Y-107800000D01*
X194130000Y-107800000D02*
X202840000Y-107800000D01*
X203550000Y-108510000D02*
X203550000Y-109250000D01*
X202840000Y-107800000D02*
X203550000Y-108510000D01*
X210710000Y-109250000D02*
X210720000Y-109240000D01*
X203550000Y-109250000D02*
X210710000Y-109250000D01*
X222630000Y-108240000D02*
X222630000Y-109230000D01*
X222090000Y-107700000D02*
X222630000Y-108240000D01*
X212970000Y-108010000D02*
X213280000Y-107700000D01*
X213280000Y-107700000D02*
X222090000Y-107700000D01*
X212970000Y-109210000D02*
X212970000Y-108010000D01*
X229950000Y-109230000D02*
X230000000Y-109180000D01*
X222630000Y-109230000D02*
X229950000Y-109230000D01*
X241630000Y-108370000D02*
X241630000Y-109250000D01*
X232290000Y-107750000D02*
X241010000Y-107750000D01*
X231850000Y-108190000D02*
X232290000Y-107750000D01*
X241010000Y-107750000D02*
X241630000Y-108370000D01*
X231850000Y-109210000D02*
X231850000Y-108190000D01*
X137480000Y-107780000D02*
X145110000Y-107780000D01*
X146360000Y-109030000D02*
X146360000Y-109250000D01*
X145110000Y-107780000D02*
X146360000Y-109030000D01*
X134855000Y-107810000D02*
X133880000Y-107810000D01*
X133880000Y-107810000D02*
X132960000Y-108730000D01*
X132960000Y-119590000D02*
X132568000Y-119982000D01*
X132960000Y-108730000D02*
X132960000Y-119590000D01*
X131591400Y-119982000D02*
X132568000Y-119982000D01*
X241520000Y-111740000D02*
X239485000Y-111740000D01*
X220615000Y-111640000D02*
X222650000Y-111640000D01*
X203490000Y-111730000D02*
X201455000Y-111730000D01*
X184560000Y-111730000D02*
X182525000Y-111730000D01*
X165280000Y-111770000D02*
X163245000Y-111770000D01*
X146380000Y-111750000D02*
X144345000Y-111750000D01*
X241520000Y-111740000D02*
X241520000Y-111040000D01*
X241520000Y-111040000D02*
X241090000Y-110610000D01*
X241090000Y-110610000D02*
X231840000Y-110610000D01*
X229930000Y-110580000D02*
X223270000Y-110580000D01*
X222650000Y-111200000D02*
X222650000Y-111640000D01*
X223270000Y-110580000D02*
X222650000Y-111200000D01*
X222650000Y-111640000D02*
X221650000Y-110640000D01*
X221570000Y-110560000D02*
X212990000Y-110560000D01*
X221650000Y-110640000D02*
X221570000Y-110560000D01*
X204660000Y-110560000D02*
X203490000Y-111730000D01*
X210780000Y-110560000D02*
X204660000Y-110560000D01*
X203490000Y-111730000D02*
X202290000Y-110530000D01*
X202290000Y-110530000D02*
X193740000Y-110530000D01*
X191520000Y-110500000D02*
X185160000Y-110500000D01*
X184560000Y-111100000D02*
X184560000Y-111730000D01*
X185160000Y-110500000D02*
X184560000Y-111100000D01*
X184560000Y-111730000D02*
X183380000Y-110550000D01*
X174730000Y-110550000D02*
X174720000Y-110560000D01*
X183380000Y-110550000D02*
X174730000Y-110550000D01*
X172470000Y-110540000D02*
X166240000Y-110540000D01*
X165280000Y-111500000D02*
X165280000Y-111770000D01*
X166240000Y-110540000D02*
X165280000Y-111500000D01*
X165280000Y-111770000D02*
X164120000Y-110610000D01*
X155660000Y-110610000D02*
X155640000Y-110590000D01*
X164120000Y-110610000D02*
X155660000Y-110610000D01*
X147540000Y-110590000D02*
X146380000Y-111750000D01*
X153750000Y-110590000D02*
X147540000Y-110590000D01*
X131591400Y-122522000D02*
X133450000Y-120663400D01*
X133450000Y-120663400D02*
X133450000Y-111070000D01*
X133980000Y-110540000D02*
X134790000Y-110540000D01*
X133450000Y-111070000D02*
X133980000Y-110540000D01*
X137450000Y-110540000D02*
X145560000Y-110540000D01*
X146380000Y-111360000D02*
X146380000Y-111750000D01*
X145560000Y-110540000D02*
X146380000Y-111360000D01*
X241710000Y-147390000D02*
X239675000Y-147390000D01*
X144435000Y-147380000D02*
X146470000Y-147380000D01*
X163455000Y-147550000D02*
X165490000Y-147550000D01*
X182335000Y-147410000D02*
X184370000Y-147410000D01*
X203490000Y-147490000D02*
X201455000Y-147490000D01*
X222500000Y-147340000D02*
X220465000Y-147340000D01*
X152390000Y-147380000D02*
X153400000Y-148390000D01*
X146470000Y-147380000D02*
X152390000Y-147380000D01*
X155420000Y-148390000D02*
X155420000Y-147140000D01*
X164466499Y-146526499D02*
X165490000Y-147550000D01*
X156033501Y-146526499D02*
X164466499Y-146526499D01*
X155420000Y-147140000D02*
X156033501Y-146526499D01*
X165490000Y-147550000D02*
X171840000Y-147550000D01*
X171840000Y-147550000D02*
X172710000Y-148420000D01*
X174670000Y-148480000D02*
X174670000Y-147010000D01*
X175293501Y-146386499D02*
X183346499Y-146386499D01*
X183346499Y-146386499D02*
X184370000Y-147410000D01*
X174670000Y-147010000D02*
X175293501Y-146386499D01*
X190630000Y-147410000D02*
X191830000Y-148610000D01*
X184370000Y-147410000D02*
X190630000Y-147410000D01*
X193590000Y-147787998D02*
X193620000Y-147757998D01*
X193590000Y-148580000D02*
X193590000Y-147787998D01*
X193620000Y-147757998D02*
X193620000Y-146950000D01*
X194103501Y-146466499D02*
X202466499Y-146466499D01*
X202466499Y-146466499D02*
X203490000Y-147490000D01*
X193620000Y-146950000D02*
X194103501Y-146466499D01*
X209960000Y-147490000D02*
X210760000Y-148290000D01*
X203490000Y-147490000D02*
X209960000Y-147490000D01*
X212630000Y-148290000D02*
X212630000Y-146830000D01*
X221476499Y-146316499D02*
X222500000Y-147340000D01*
X213143501Y-146316499D02*
X221476499Y-146316499D01*
X212630000Y-146830000D02*
X213143501Y-146316499D01*
X228860000Y-147340000D02*
X229690000Y-148170000D01*
X222500000Y-147340000D02*
X228860000Y-147340000D01*
X231600000Y-148170000D02*
X231600000Y-147100000D01*
X240686499Y-146366499D02*
X241710000Y-147390000D01*
X232333501Y-146366499D02*
X240686499Y-146366499D01*
X231600000Y-147100000D02*
X232333501Y-146366499D01*
X134640000Y-144660000D02*
X134640000Y-148540000D01*
X132905000Y-142925000D02*
X134640000Y-144660000D01*
X131895000Y-142925000D02*
X132905000Y-142925000D01*
X128490000Y-139520000D02*
X131895000Y-142925000D01*
X122065019Y-139524981D02*
X122070000Y-139520000D01*
X114420010Y-138923600D02*
X115021391Y-139524981D01*
X114718000Y-135222000D02*
X114420010Y-135519990D01*
X122070000Y-139520000D02*
X128490000Y-139520000D01*
X116371400Y-135222000D02*
X114718000Y-135222000D01*
X115021391Y-139524981D02*
X122065019Y-139524981D01*
X114420010Y-135519990D02*
X114420010Y-138923600D01*
X239605000Y-149760000D02*
X241640000Y-149760000D01*
X144385000Y-149750000D02*
X146420000Y-149750000D01*
X165490000Y-149730000D02*
X163455000Y-149730000D01*
X184370000Y-149820000D02*
X182335000Y-149820000D01*
X201435000Y-149840000D02*
X203470000Y-149840000D01*
X220365000Y-149770000D02*
X222400000Y-149770000D01*
X134630000Y-150100000D02*
X134710000Y-150180000D01*
X136798501Y-150773501D02*
X145503501Y-150773501D01*
X136305000Y-150280000D02*
X136798501Y-150773501D01*
X146420000Y-149857002D02*
X146420000Y-149750000D01*
X145503501Y-150773501D02*
X146420000Y-149857002D01*
X153730000Y-149750000D02*
X153740000Y-149740000D01*
X146420000Y-149750000D02*
X153730000Y-149750000D01*
X164466499Y-150753501D02*
X165490000Y-149730000D01*
X156368501Y-150753501D02*
X164466499Y-150753501D01*
X155355000Y-149740000D02*
X156368501Y-150753501D01*
X172730000Y-149730000D02*
X172740000Y-149720000D01*
X165490000Y-149730000D02*
X172730000Y-149730000D01*
X183346499Y-150843501D02*
X184370000Y-149820000D01*
X175643501Y-150843501D02*
X183346499Y-150843501D01*
X174520000Y-149720000D02*
X175643501Y-150843501D01*
X191780000Y-149820000D02*
X191800000Y-149800000D01*
X184370000Y-149820000D02*
X191780000Y-149820000D01*
X193520000Y-149800000D02*
X194680000Y-150960000D01*
X202350000Y-150960000D02*
X203470000Y-149840000D01*
X194680000Y-150960000D02*
X202350000Y-150960000D01*
X203470000Y-149840000D02*
X210710000Y-149840000D01*
X221376499Y-150793501D02*
X222400000Y-149770000D01*
X213523501Y-150793501D02*
X221376499Y-150793501D01*
X212610000Y-149880000D02*
X213523501Y-150793501D01*
X229620000Y-149770000D02*
X229680000Y-149830000D01*
X222400000Y-149770000D02*
X229620000Y-149770000D01*
X232568501Y-150783501D02*
X240186499Y-150783501D01*
X231555000Y-149770000D02*
X232568501Y-150783501D01*
X240186499Y-150783501D02*
X240200000Y-150770000D01*
X240630000Y-150770000D02*
X241640000Y-149760000D01*
X240200000Y-150770000D02*
X240630000Y-150770000D01*
X146410000Y-144640000D02*
X144375000Y-144640000D01*
X122990000Y-142900000D02*
X122990000Y-145350000D01*
X147420000Y-160200000D02*
X152730000Y-154890000D01*
X152730000Y-151175000D02*
X152735000Y-151170000D01*
X152730000Y-154890000D02*
X152730000Y-151175000D01*
X124620000Y-147100000D02*
X124650000Y-147130000D01*
X121490000Y-147100000D02*
X124620000Y-147100000D01*
X121414990Y-147024990D02*
X121490000Y-147100000D01*
X121490000Y-142338285D02*
X121414990Y-142413295D01*
X121414990Y-142413295D02*
X121414990Y-147024990D01*
X121490000Y-141150000D02*
X121490000Y-142338285D01*
X139410000Y-124410000D02*
X139410000Y-124240000D01*
X152080000Y-124410000D02*
X152090000Y-124400000D01*
X139410000Y-124410000D02*
X152080000Y-124410000D01*
X152110000Y-129510000D02*
X152120010Y-129499990D01*
X144990000Y-129510000D02*
X152110000Y-129510000D01*
X131591400Y-114902000D02*
X131591400Y-117442000D01*
X111752000Y-112362000D02*
X111740000Y-112350000D01*
X116371400Y-112362000D02*
X111752000Y-112362000D01*
X111740000Y-103510000D02*
X111740000Y-112350000D01*
X150360000Y-161710000D02*
X150400000Y-161670000D01*
X144920000Y-161710000D02*
X150360000Y-161710000D01*
X117490000Y-142510000D02*
X116880000Y-143120000D01*
X117490000Y-141150000D02*
X117490000Y-142510000D01*
X116880000Y-146490000D02*
X117490000Y-147100000D01*
X116880000Y-145230000D02*
X116880000Y-146490000D01*
X125375001Y-148534999D02*
X125375001Y-145815001D01*
X123490000Y-150420000D02*
X125375001Y-148534999D01*
X125375001Y-145815001D02*
X124884990Y-145324990D01*
X124884990Y-145324990D02*
X124884990Y-144174990D01*
X113100000Y-102190000D02*
X113060000Y-102190000D01*
X114420000Y-100870000D02*
X113100000Y-102190000D01*
X113060000Y-102190000D02*
X111740000Y-103510000D01*
X114360000Y-100890000D02*
X113060000Y-102190000D01*
X136369142Y-128202144D02*
X136369142Y-123800858D01*
X137656998Y-129490000D02*
X136369142Y-128202144D01*
X139410000Y-129490000D02*
X137656998Y-129490000D01*
X150320000Y-122500000D02*
X150990000Y-123170000D01*
X139410000Y-122500000D02*
X150320000Y-122500000D01*
X137670000Y-122500000D02*
X136369142Y-123800858D01*
X139410000Y-122500000D02*
X137670000Y-122500000D01*
X114490000Y-142015000D02*
X115630000Y-143155000D01*
X114490000Y-141150000D02*
X114490000Y-142015000D01*
X115610000Y-145980000D02*
X114490000Y-147100000D01*
X115610000Y-145260000D02*
X115610000Y-145980000D01*
X150320000Y-141020000D02*
X150320000Y-140220000D01*
X150320000Y-140220000D02*
X151820000Y-138720000D01*
X151820000Y-138720000D02*
X151820000Y-133010000D01*
X150325000Y-131515000D02*
X148740000Y-131515000D01*
X151820000Y-133010000D02*
X150325000Y-131515000D01*
X139450000Y-126910000D02*
X139410000Y-126950000D01*
X141740000Y-126910000D02*
X139450000Y-126910000D01*
X135580000Y-98360000D02*
X135580000Y-103840000D01*
X135580000Y-136460000D02*
X135580000Y-155510000D01*
X135580000Y-103840000D02*
X135580000Y-117410000D01*
X135548000Y-125062000D02*
X135580000Y-125030000D01*
X135580000Y-125030000D02*
X135580000Y-136460000D01*
X131591400Y-125062000D02*
X135548000Y-125062000D01*
X135580000Y-117410000D02*
X135580000Y-125030000D01*
X135580000Y-178260000D02*
X137070000Y-179750000D01*
X135580000Y-174560000D02*
X135580000Y-178260000D01*
X149590000Y-167725218D02*
X142874782Y-161010000D01*
X149590000Y-168630000D02*
X149590000Y-167725218D01*
X135580000Y-158057002D02*
X135580000Y-155510000D01*
X138532998Y-161010000D02*
X135580000Y-158057002D01*
X142874782Y-161010000D02*
X138532998Y-161010000D01*
X154630000Y-155510000D02*
X154630000Y-136460000D01*
X154630000Y-117410000D02*
X154630000Y-103810000D01*
X154630000Y-103810000D02*
X154630000Y-98360000D01*
X134202000Y-127602000D02*
X134220000Y-127620000D01*
X131591400Y-127602000D02*
X134202000Y-127602000D01*
X154630000Y-128300000D02*
X154630000Y-117410000D01*
X154600000Y-128330000D02*
X154630000Y-128300000D01*
X154630000Y-136460000D02*
X154630000Y-128300000D01*
X154620000Y-128310000D02*
X154630000Y-128300000D01*
X137550000Y-128310000D02*
X154620000Y-128310000D01*
X154630000Y-178460000D02*
X155850000Y-179680000D01*
X154630000Y-174560000D02*
X154630000Y-178460000D01*
X154630000Y-155510000D02*
X154630000Y-174560000D01*
X173680000Y-98360000D02*
X173680000Y-103950000D01*
X173680000Y-136460000D02*
X173680000Y-155510000D01*
X173680000Y-103950000D02*
X173680000Y-117410000D01*
X134178000Y-130142000D02*
X134180000Y-130140000D01*
X131591400Y-130142000D02*
X134178000Y-130142000D01*
X136330000Y-130790000D02*
X153610000Y-130790000D01*
X173630579Y-130670579D02*
X173680000Y-130720000D01*
X173680000Y-130720000D02*
X173680000Y-136460000D01*
X155795929Y-130670579D02*
X173630579Y-130670579D01*
X173680000Y-117410000D02*
X173680000Y-130720000D01*
X173680000Y-178350000D02*
X175070000Y-179740000D01*
X173680000Y-174560000D02*
X173680000Y-178350000D01*
X173680000Y-155510000D02*
X173680000Y-174560000D01*
X192730000Y-136460000D02*
X192730000Y-117410000D01*
X192730000Y-117410000D02*
X192730000Y-103890000D01*
X192730000Y-103890000D02*
X192730000Y-98360000D01*
X131591400Y-132682000D02*
X132792000Y-132682000D01*
X132792000Y-132682000D02*
X134010000Y-133900000D01*
X134010000Y-140970000D02*
X134750000Y-141710000D01*
X134010000Y-133900000D02*
X134010000Y-140970000D01*
X148250000Y-141790000D02*
X153515000Y-141790000D01*
X172395000Y-141790000D02*
X172455000Y-141850000D01*
X167340000Y-141790000D02*
X172395000Y-141790000D01*
X186610000Y-141880000D02*
X192680000Y-141880000D01*
X192680000Y-141880000D02*
X192730000Y-141930000D01*
X192730000Y-141930000D02*
X192730000Y-136460000D01*
X192730000Y-155510000D02*
X192730000Y-141930000D01*
X192730000Y-178580000D02*
X193900000Y-179750000D01*
X192730000Y-174560000D02*
X192730000Y-178580000D01*
X192730000Y-155510000D02*
X192730000Y-174560000D01*
X211780000Y-98360000D02*
X211780000Y-103890000D01*
X211780000Y-117410000D02*
X211780000Y-136460000D01*
X211780000Y-103890000D02*
X211780000Y-117410000D01*
X131591400Y-135222000D02*
X132911990Y-135222000D01*
X132912000Y-135222000D02*
X133559990Y-135869990D01*
X132911990Y-135222000D02*
X132912000Y-135222000D01*
X133559990Y-135869990D02*
X133559990Y-142399990D01*
X133559990Y-142399990D02*
X134700000Y-143540000D01*
X153475000Y-143600000D02*
X153515000Y-143560000D01*
X148290000Y-143600000D02*
X153475000Y-143600000D01*
X172325000Y-143730000D02*
X172455000Y-143860000D01*
X167350000Y-143730000D02*
X172325000Y-143730000D01*
X191760000Y-143670000D02*
X191830000Y-143740000D01*
X186590000Y-143670000D02*
X191760000Y-143670000D01*
X205630000Y-143740000D02*
X211770000Y-143740000D01*
X211780000Y-143730000D02*
X211780000Y-155510000D01*
X211770000Y-143740000D02*
X211780000Y-143730000D01*
X211780000Y-136460000D02*
X211780000Y-143730000D01*
X211780000Y-178760000D02*
X212770000Y-179750000D01*
X211780000Y-174560000D02*
X211780000Y-178760000D01*
X211780000Y-155510000D02*
X211780000Y-174560000D01*
X230830000Y-117410000D02*
X230830000Y-103650000D01*
X230830000Y-103650000D02*
X230830000Y-98360000D01*
X230830000Y-136460000D02*
X230830000Y-117410000D01*
X131591400Y-137762000D02*
X132162000Y-137762000D01*
X148270000Y-145870000D02*
X153515000Y-145870000D01*
X172430000Y-145810000D02*
X172490000Y-145870000D01*
X167340000Y-145810000D02*
X172430000Y-145810000D01*
X191840000Y-145950000D02*
X191930000Y-146040000D01*
X186520000Y-145950000D02*
X191840000Y-145950000D01*
X210820000Y-145790000D02*
X210870000Y-145840000D01*
X205590000Y-145790000D02*
X210820000Y-145790000D01*
X230790000Y-145940000D02*
X230830000Y-145980000D01*
X224720000Y-145940000D02*
X230790000Y-145940000D01*
X230830000Y-145980000D02*
X230830000Y-136460000D01*
X230830000Y-155510000D02*
X230830000Y-145980000D01*
X131970000Y-138140600D02*
X131591400Y-137762000D01*
X131970000Y-141740000D02*
X131970000Y-138140600D01*
X137090000Y-145870000D02*
X137040000Y-145820000D01*
X148270000Y-145870000D02*
X137090000Y-145870000D01*
X230830000Y-178500000D02*
X231890000Y-179560000D01*
X230830000Y-174560000D02*
X230830000Y-178500000D01*
X230830000Y-174560000D02*
X230830000Y-155510000D01*
X116680000Y-160720000D02*
X116680000Y-164070000D01*
X117351501Y-144628499D02*
X117228001Y-144504999D01*
X114554003Y-144504999D02*
X112999002Y-146060000D01*
X117228001Y-144504999D02*
X114554003Y-144504999D01*
X117626501Y-144903499D02*
X117228001Y-144504999D01*
X117626501Y-144903499D02*
X117351501Y-144628499D01*
X112999002Y-146060000D02*
X112380998Y-146060000D01*
X111718000Y-132682000D02*
X114928000Y-132682000D01*
X114928000Y-132682000D02*
X116371400Y-132682000D01*
X113778000Y-132682000D02*
X114928000Y-132682000D01*
X115790000Y-156250000D02*
X116530000Y-155510000D01*
X115790000Y-159830000D02*
X115790000Y-156250000D01*
X116680000Y-160720000D02*
X115790000Y-159830000D01*
X116530000Y-151580000D02*
X116530000Y-155510000D01*
X119065010Y-148704990D02*
X116530000Y-151240000D01*
X116530000Y-151240000D02*
X116530000Y-151580000D01*
X119065010Y-146342008D02*
X119065010Y-148704990D01*
X117626501Y-144903499D02*
X119065010Y-146342008D01*
X118855001Y-166245001D02*
X117165000Y-164555000D01*
X124664999Y-166245001D02*
X118855001Y-166245001D01*
X125990000Y-164920000D02*
X124664999Y-166245001D01*
X117165000Y-164555000D02*
X117530000Y-164920000D01*
X116680000Y-164070000D02*
X117165000Y-164555000D01*
X116234999Y-174855001D02*
X116234999Y-178534999D01*
X116530000Y-174560000D02*
X116234999Y-174855001D01*
X117270000Y-179570000D02*
X117290000Y-179570000D01*
X116234999Y-178534999D02*
X117270000Y-179570000D01*
X124734999Y-185455001D02*
X126060000Y-184130000D01*
X117290000Y-182321002D02*
X120423999Y-185455001D01*
X120423999Y-185455001D02*
X124734999Y-185455001D01*
X117290000Y-179570000D02*
X117290000Y-182321002D01*
X111355499Y-133044501D02*
X111718000Y-132682000D01*
X111355499Y-145034501D02*
X111355499Y-133044501D01*
X112380998Y-146060000D02*
X111355499Y-145034501D01*
X131880000Y-169110000D02*
X131880000Y-166310000D01*
X130490000Y-164920000D02*
X125990000Y-164920000D01*
X131880000Y-166310000D02*
X130490000Y-164920000D01*
X111740000Y-118850000D02*
X111740000Y-116670000D01*
X113508000Y-114902000D02*
X116371400Y-114902000D01*
X111740000Y-116670000D02*
X113508000Y-114902000D01*
X126615218Y-150950000D02*
X126875218Y-151210000D01*
X113970000Y-139110000D02*
X113970000Y-134220000D01*
X114834989Y-139974989D02*
X113970000Y-139110000D01*
X125174989Y-139974989D02*
X114834989Y-139974989D01*
X125990000Y-140790000D02*
X125174989Y-139974989D01*
X125990000Y-150420000D02*
X125990000Y-140790000D01*
X116371400Y-120198600D02*
X116371400Y-119982000D01*
X113990000Y-122580000D02*
X116371400Y-120198600D01*
X119515019Y-148945019D02*
X119515019Y-146155607D01*
X119515019Y-146155607D02*
X117414401Y-144054989D01*
X120990000Y-150420000D02*
X119515019Y-148945019D01*
X112914990Y-133710010D02*
X113115000Y-133510000D01*
X112914990Y-141636705D02*
X112914990Y-133710010D01*
X115333274Y-144054989D02*
X112914990Y-141636705D01*
X117414401Y-144054989D02*
X115333274Y-144054989D01*
X114793400Y-124100000D02*
X116371400Y-122522000D01*
X113170000Y-124100000D02*
X114793400Y-124100000D01*
X144895000Y-166580000D02*
X146930000Y-166580000D01*
X146880000Y-168940000D02*
X144845000Y-168940000D01*
X163725000Y-168600000D02*
X165760000Y-168600000D01*
X183385000Y-168750000D02*
X185420000Y-168750000D01*
X202145000Y-168700000D02*
X204180000Y-168700000D01*
X220745000Y-168600000D02*
X222780000Y-168600000D01*
X240235000Y-168550000D02*
X242270000Y-168550000D01*
X113621590Y-130142000D02*
X110905489Y-132858101D01*
X116371400Y-130142000D02*
X113621590Y-130142000D01*
X110905491Y-145577206D02*
X113678285Y-148350000D01*
X110905489Y-132858101D02*
X110905491Y-145577206D01*
X113678285Y-148350000D02*
X115400000Y-148350000D01*
X117100000Y-148350000D02*
X117520000Y-148770000D01*
X115400000Y-148350000D02*
X117100000Y-148350000D01*
X133260000Y-162130000D02*
X133260000Y-162910000D01*
X133260000Y-162910000D02*
X135690000Y-165340000D01*
X145690000Y-165340000D02*
X146930000Y-166580000D01*
X135690000Y-165340000D02*
X145690000Y-165340000D01*
X129520000Y-171730000D02*
X129230000Y-172020000D01*
X122385001Y-182804999D02*
X121060000Y-184130000D01*
X126038003Y-182804999D02*
X122385001Y-182804999D01*
X130885001Y-177958001D02*
X126038003Y-182804999D01*
X130885001Y-173675001D02*
X130885001Y-177958001D01*
X129230000Y-172020000D02*
X130885001Y-173675001D01*
X139310000Y-166580000D02*
X141345000Y-166580000D01*
X129280000Y-171970000D02*
X129230000Y-172020000D01*
X132350000Y-171970000D02*
X129280000Y-171970000D01*
X133920000Y-171970000D02*
X139310000Y-166580000D01*
X132350000Y-171970000D02*
X133920000Y-171970000D01*
X141295000Y-168940000D02*
X139260000Y-168940000D01*
X146223501Y-169963501D02*
X148280000Y-172020000D01*
X140283501Y-169963501D02*
X146223501Y-169963501D01*
X139260000Y-168940000D02*
X140283501Y-169963501D01*
X158140000Y-168600000D02*
X160175000Y-168600000D01*
X165544999Y-170234999D02*
X159774999Y-170234999D01*
X159774999Y-170234999D02*
X158140000Y-168600000D01*
X167330000Y-172020000D02*
X165544999Y-170234999D01*
X177800000Y-168750000D02*
X179835000Y-168750000D01*
X179284999Y-170234999D02*
X177800000Y-168750000D01*
X184594999Y-170234999D02*
X179284999Y-170234999D01*
X186380000Y-172020000D02*
X184594999Y-170234999D01*
X196560000Y-168700000D02*
X198595000Y-168700000D01*
X198094999Y-170234999D02*
X196560000Y-168700000D01*
X203644999Y-170234999D02*
X198094999Y-170234999D01*
X205430000Y-172020000D02*
X203644999Y-170234999D01*
X215160000Y-168600000D02*
X217195000Y-168600000D01*
X216794999Y-170234999D02*
X215160000Y-168600000D01*
X222694999Y-170234999D02*
X216794999Y-170234999D01*
X224480000Y-172020000D02*
X222694999Y-170234999D01*
X234650000Y-168550000D02*
X236685000Y-168550000D01*
X236334999Y-170234999D02*
X234650000Y-168550000D01*
X241744999Y-170234999D02*
X236334999Y-170234999D01*
X243530000Y-172020000D02*
X241744999Y-170234999D01*
X116371400Y-125062000D02*
X113254680Y-128178720D01*
X113254680Y-128178720D02*
X113254680Y-129004681D01*
X113254680Y-129004681D02*
X110005472Y-132253892D01*
X110005472Y-132253892D02*
X110005473Y-145950008D01*
X110005473Y-145950008D02*
X113041875Y-148986410D01*
X115476027Y-149250020D02*
X115875010Y-149649003D01*
X113305485Y-149250020D02*
X115476027Y-149250020D01*
X113041875Y-148986410D02*
X113305485Y-149250020D01*
X115875010Y-163901420D02*
X118668601Y-166695011D01*
X115875010Y-161770000D02*
X115875010Y-163901420D01*
X118668601Y-166695011D02*
X125145011Y-166695011D01*
X126060000Y-167610000D02*
X126060000Y-169630000D01*
X125145011Y-166695011D02*
X126060000Y-167610000D01*
X115293770Y-127602000D02*
X110455481Y-132440291D01*
X116371400Y-127602000D02*
X115293770Y-127602000D01*
X110455481Y-132440291D02*
X110455482Y-145763607D01*
X110455482Y-145763607D02*
X113491885Y-148800010D01*
X114480000Y-148800010D02*
X115710010Y-148800010D01*
X117068779Y-149662414D02*
X116206375Y-148800010D01*
X116206375Y-148800010D02*
X114300010Y-148800010D01*
X114300010Y-148800010D02*
X114480000Y-148800010D01*
X113491885Y-148800010D02*
X114300010Y-148800010D01*
X119700000Y-160120000D02*
X119700000Y-163810000D01*
X119700000Y-163810000D02*
X118740000Y-164770000D01*
M02*
