999
"DXF R12 Output" (www.mydxf.blogspot.com)
 0 
SECTION
 2 
HEADER
 9 
$ACADVER
 1 
AC1009
 9 
$EXTMIN
 10 
 0 
 20 
 0 
 9 
$EXTMAX
 10 
 8.5 
 20 
 11 
 0 
ENDSEC
 0 
SECTION
 2 
ENTITIES
0
LINE
8
Layer 1
10
63.144400
20
-19.309300
11
63.317224
21
-19.726313
0
LINE
8
Layer 1
10
63.317224
20
-19.726313
11
63.734363
21
-19.898834
0
LINE
8
Layer 1
10
101.582000
20
-17.273000
11
64.715700
21
-17.273000
0
LINE
8
Layer 1
10
63.144400
20
-9.794200
11
63.144400
21
-19.308900
0
LINE
8
Layer 1
10
101.888000
20
-16.906000
11
101.582625
21
-17.273024
0
LINE
8
Layer 1
10
64.715700
20
-17.273000
11
64.459070
21
-16.894506
0
LINE
8
Layer 1
10
63.144400
20
-7.065180
11
64.459100
21
-7.065180
0
LINE
8
Layer 1
10
102.723000
20
-19.898800
11
63.733600
21
-19.898800
0
LINE
8
Layer 1
10
102.723000
20
-19.898800
11
103.140139
21
-19.726279
0
LINE
8
Layer 1
10
103.140139
20
-19.726279
11
103.312963
21
-19.309266
0
LINE
8
Layer 1
10
64.459100
20
-16.894500
11
64.459100
21
-7.065180
0
LINE
8
Layer 1
10
103.313000
20
11.530200
11
103.140430
21
11.946960
0
LINE
8
Layer 1
10
103.140430
20
11.946960
11
102.723754
21
12.119734
0
LINE
8
Layer 1
10
102.723000
20
12.119700
11
69.017000
21
12.120547
0
LINE
8
Layer 1
10
101.588000
20
9.270260
11
69.016800
21
9.270260
0
LINE
8
Layer 1
10
101.888000
20
8.852340
11
101.588359
21
9.270260
0
LINE
8
Layer 1
10
69.016800
20
9.270260
11
69.016800
21
12.120400
0
LINE
8
Layer 1
10
63.144400
20
-9.794200
11
61.831900
21
-9.794200
0
LINE
8
Layer 1
10
61.831900
20
-9.794200
11
61.831900
21
-7.065180
0
LINE
8
Layer 1
10
64.459100
20
-7.065180
11
61.831900
21
-7.065180
0
LINE
8
Layer 1
10
103.313000
20
11.530200
11
103.140430
21
11.946960
0
LINE
8
Layer 1
10
103.140430
20
11.946960
11
102.723754
21
12.119734
0
LINE
8
Layer 1
10
101.888000
20
8.852340
11
101.888000
21
-16.906000
0
LINE
8
Layer 1
10
102.723000
20
-19.898800
11
103.139676
21
-19.726026
0
LINE
8
Layer 1
10
103.139676
20
-19.726026
11
103.312246
21
-19.309266
0
LINE
8
Layer 1
10
103.313000
20
11.530500
11
103.313000
21
-19.308900
0
LINE
8
Layer 1
10
63.316400
20
-59.763200
11
63.489326
21
-60.180027
0
LINE
8
Layer 1
10
63.489326
20
-60.180027
11
63.906363
21
-60.352446
0
LINE
8
Layer 1
10
101.754000
20
-57.726700
11
64.887800
21
-57.726700
0
LINE
8
Layer 1
10
63.316400
20
-50.361100
11
63.316400
21
-59.762500
0
LINE
8
Layer 1
10
102.060000
20
-57.359700
11
101.754625
21
-57.726724
0
LINE
8
Layer 1
10
64.887800
20
-57.726700
11
64.631170
21
-57.348923
0
LINE
8
Layer 1
10
102.895000
20
-60.352500
11
63.905700
21
-60.352500
0
LINE
8
Layer 1
10
102.896000
20
-60.352500
11
103.312574
21
-60.179828
0
LINE
8
Layer 1
10
103.312574
20
-60.179828
11
103.485246
21
-59.763254
0
LINE
8
Layer 1
10
64.631100
20
-57.348900
11
64.631100
21
-50.361100
0
LINE
8
Layer 1
10
103.485000
20
-28.923500
11
103.312430
21
-28.506740
0
LINE
8
Layer 1
10
103.312430
20
-28.506740
11
102.895754
21
-28.333966
0
LINE
8
Layer 1
10
102.895000
20
-28.333900
11
69.189000
21
-28.333053
0
LINE
8
Layer 1
10
101.760000
20
-31.184100
11
69.188800
21
-31.184100
0
LINE
8
Layer 1
10
102.060000
20
-31.601300
11
101.760359
21
-31.184097
0
LINE
8
Layer 1
10
69.188800
20
-31.184100
11
69.188800
21
-28.333200
0
LINE
8
Layer 1
10
64.631100
20
-50.361100
11
63.316400
21
-50.361100
0
LINE
8
Layer 1
10
103.485000
20
-28.923500
11
103.312430
21
-28.506740
0
LINE
8
Layer 1
10
103.312430
20
-28.506740
11
102.895754
21
-28.333966
0
LINE
8
Layer 1
10
102.060000
20
-31.601300
11
102.060000
21
-57.359700
0
LINE
8
Layer 1
10
103.485000
20
-28.923200
11
103.485000
21
-59.762500
0
LINE
8
Layer 1
10
102.896000
20
-60.352500
11
103.312574
21
-60.179828
0
LINE
8
Layer 1
10
103.312574
20
-60.179828
11
103.485246
21
-59.763254
0
LINE
8
Layer 1
10
103.485000
20
-28.923500
11
103.312430
21
-28.506740
0
LINE
8
Layer 1
10
103.312430
20
-28.506740
11
102.895754
21
-28.333966
0
LINE
8
Layer 1
10
102.895000
20
-28.333900
11
69.189000
21
-28.333053
0
LINE
8
Layer 1
10
101.760000
20
-31.184100
11
69.188800
21
-31.184100
0
LINE
8
Layer 1
10
102.060000
20
-31.601300
11
101.760359
21
-31.184097
0
LINE
8
Layer 1
10
69.188800
20
-31.184100
11
69.188800
21
-28.333200
0
LINE
8
Layer 1
10
64.631100
20
-50.361100
11
63.316400
21
-50.361100
0
LINE
8
Layer 1
10
103.485000
20
-28.923500
11
103.312430
21
-28.506740
0
LINE
8
Layer 1
10
103.312430
20
-28.506740
11
102.895754
21
-28.333966
0
LINE
8
Layer 1
10
63.316400
20
-59.763200
11
63.489326
21
-60.180027
0
LINE
8
Layer 1
10
63.489326
20
-60.180027
11
63.906363
21
-60.352446
0
LINE
8
Layer 1
10
101.754000
20
-57.726700
11
64.887800
21
-57.726700
0
LINE
8
Layer 1
10
63.316400
20
-50.361100
11
63.316400
21
-59.762500
0
LINE
8
Layer 1
10
102.060000
20
-57.359700
11
101.754625
21
-57.726724
0
LINE
8
Layer 1
10
64.887800
20
-57.726700
11
64.631170
21
-57.348923
0
LINE
8
Layer 1
10
102.895000
20
-60.352500
11
63.905700
21
-60.352500
0
LINE
8
Layer 1
10
102.896000
20
-60.352500
11
103.312574
21
-60.179828
0
LINE
8
Layer 1
10
103.312574
20
-60.179828
11
103.485246
21
-59.763254
0
LINE
8
Layer 1
10
64.631100
20
-57.348900
11
64.631100
21
-50.361100
0
LINE
8
Layer 1
10
102.060000
20
-31.601300
11
102.060000
21
-57.359700
0
LINE
8
Layer 1
10
103.485000
20
-28.923200
11
103.485000
21
-59.762500
0
LINE
8
Layer 1
10
102.896000
20
-60.352500
11
103.312574
21
-60.179828
0
LINE
8
Layer 1
10
103.312574
20
-60.179828
11
103.485246
21
-59.763254
0
LINE
8
Layer 1
10
16.888600
20
-60.618400
11
17.061272
21
-61.034974
0
LINE
8
Layer 1
10
17.061272
20
-61.034974
11
17.477846
21
-61.207646
0
LINE
8
Layer 1
10
55.326500
20
-58.581900
11
18.459900
21
-58.581900
0
LINE
8
Layer 1
10
16.887900
20
-51.215600
11
16.887900
21
-60.617700
0
LINE
8
Layer 1
10
55.631200
20
-58.214900
11
55.326541
21
-58.581924
0
LINE
8
Layer 1
10
18.459900
20
-58.581900
11
18.202553
21
-58.203406
0
LINE
8
Layer 1
10
56.466300
20
-61.207700
11
17.477900
21
-61.207700
0
LINE
8
Layer 1
10
56.467000
20
-61.207700
11
56.883574
21
-61.035028
0
LINE
8
Layer 1
10
56.883574
20
-61.035028
11
57.056246
21
-60.618454
0
LINE
8
Layer 1
10
18.202600
20
-58.203400
11
18.202600
21
-51.215600
0
LINE
8
Layer 1
10
57.057000
20
-29.778400
11
56.884074
21
-29.361573
0
LINE
8
Layer 1
10
56.884074
20
-29.361573
11
56.467037
21
-29.189154
0
LINE
8
Layer 1
10
56.467000
20
-29.189100
11
22.761000
21
-29.188253
0
LINE
8
Layer 1
10
55.332200
20
-32.038600
11
22.761000
21
-32.038600
0
LINE
8
Layer 1
10
55.631200
20
-32.456500
11
55.332276
21
-32.038580
0
LINE
8
Layer 1
10
22.761000
20
-32.038600
11
22.761000
21
-29.188400
0
LINE
8
Layer 1
10
18.202600
20
-51.215600
11
16.887900
21
-51.215600
0
LINE
8
Layer 1
10
57.057000
20
-29.778400
11
56.884074
21
-29.361573
0
LINE
8
Layer 1
10
56.884074
20
-29.361573
11
56.467037
21
-29.189154
0
LINE
8
Layer 1
10
55.631200
20
-32.456500
11
55.631200
21
-58.214900
0
LINE
8
Layer 1
10
57.056200
20
-29.778400
11
57.056200
21
-60.617700
0
LINE
8
Layer 1
10
56.467000
20
-61.207700
11
56.884037
21
-61.035281
0
LINE
8
Layer 1
10
56.884037
20
-61.035281
11
57.056963
21
-60.618454
0
LINE
8
Layer 1
10
16.888600
20
-60.618400
11
17.061272
21
-61.034974
0
LINE
8
Layer 1
10
17.061272
20
-61.034974
11
17.477846
21
-61.207646
0
LINE
8
Layer 1
10
55.326500
20
-58.581900
11
18.459900
21
-58.581900
0
LINE
8
Layer 1
10
16.887900
20
-51.215600
11
16.887900
21
-60.617700
0
LINE
8
Layer 1
10
55.631200
20
-58.214900
11
55.326541
21
-58.581924
0
LINE
8
Layer 1
10
18.459900
20
-58.581900
11
18.202553
21
-58.203406
0
LINE
8
Layer 1
10
56.466300
20
-61.207700
11
17.477900
21
-61.207700
0
LINE
8
Layer 1
10
56.467000
20
-61.207700
11
56.883574
21
-61.035028
0
LINE
8
Layer 1
10
56.883574
20
-61.035028
11
57.056246
21
-60.618454
0
LINE
8
Layer 1
10
18.202600
20
-58.203400
11
18.202600
21
-51.215600
0
LINE
8
Layer 1
10
57.057000
20
-29.778400
11
56.884074
21
-29.361573
0
LINE
8
Layer 1
10
56.884074
20
-29.361573
11
56.467037
21
-29.189154
0
LINE
8
Layer 1
10
56.467000
20
-29.189100
11
22.761000
21
-29.188253
0
LINE
8
Layer 1
10
55.332200
20
-32.038600
11
22.761000
21
-32.038600
0
LINE
8
Layer 1
10
55.631200
20
-32.456500
11
55.332276
21
-32.038580
0
LINE
8
Layer 1
10
22.761000
20
-32.038600
11
22.761000
21
-29.188400
0
LINE
8
Layer 1
10
18.202600
20
-51.215600
11
16.887900
21
-51.215600
0
LINE
8
Layer 1
10
57.057000
20
-29.778400
11
56.884074
21
-29.361573
0
LINE
8
Layer 1
10
56.884074
20
-29.361573
11
56.467037
21
-29.189154
0
LINE
8
Layer 1
10
55.631200
20
-32.456500
11
55.631200
21
-58.214900
0
LINE
8
Layer 1
10
56.467000
20
-61.207700
11
56.884037
21
-61.035281
0
LINE
8
Layer 1
10
56.884037
20
-61.035281
11
57.056963
21
-60.618454
0
LINE
8
Layer 1
10
57.056200
20
-29.778400
11
57.056200
21
-60.617700
0
LINE
8
Layer 1
10
16.715800
20
-10.649400
11
15.403300
21
-10.649400
0
LINE
8
Layer 1
10
18.030500
20
-7.920370
11
15.403300
21
-7.920370
0
LINE
8
Layer 1
10
15.403300
20
-10.649400
11
15.403300
21
-7.920370
0
LINE
8
Layer 1
10
16.715800
20
-20.164400
11
16.888599
21
-20.581459
0
LINE
8
Layer 1
10
16.888599
20
-20.581459
11
17.305763
21
-20.754004
0
LINE
8
Layer 1
10
55.154500
20
-18.128200
11
18.287200
21
-18.128200
0
LINE
8
Layer 1
10
16.715800
20
-10.649400
11
16.715800
21
-20.164100
0
LINE
8
Layer 1
10
55.459100
20
-17.761200
11
55.154441
21
-18.128224
0
LINE
8
Layer 1
10
18.287200
20
-18.128200
11
18.030570
21
-17.749706
0
LINE
8
Layer 1
10
16.715800
20
-7.920370
11
18.030500
21
-7.920370
0
LINE
8
Layer 1
10
56.294200
20
-20.753300
11
17.305100
21
-20.753300
0
LINE
8
Layer 1
10
56.294900
20
-20.754000
11
56.711600
21
-20.581201
0
LINE
8
Layer 1
10
56.711600
20
-20.581201
11
56.884146
21
-20.164396
0
LINE
8
Layer 1
10
18.030500
20
-17.749700
11
18.030500
21
-7.920370
0
LINE
8
Layer 1
10
56.884900
20
10.675000
11
56.712076
21
11.092013
0
LINE
8
Layer 1
10
56.712076
20
11.092013
11
56.294937
21
11.264534
0
LINE
8
Layer 1
10
56.294900
20
11.265200
11
22.588200
21
11.265200
0
LINE
8
Layer 1
10
55.159500
20
8.415070
11
22.588200
21
8.415070
0
LINE
8
Layer 1
10
22.588200
20
8.415070
11
22.588200
21
11.265200
0
LINE
8
Layer 1
10
55.459100
20
7.997150
11
55.159459
21
8.415070
0
LINE
8
Layer 1
10
56.884200
20
10.675300
11
56.884200
21
-20.164100
0
LINE
8
Layer 1
10
56.884900
20
10.675000
11
56.712076
21
11.092013
0
LINE
8
Layer 1
10
56.712076
20
11.092013
11
56.294937
21
11.264534
0
LINE
8
Layer 1
10
55.459100
20
7.997150
11
55.459100
21
-17.761200
0
LINE
8
Layer 1
10
56.294900
20
-20.754000
11
56.712064
21
-20.581455
0
LINE
8
Layer 1
10
56.712064
20
-20.581455
11
56.884863
21
-20.164396
0
LINE
8
Layer 1
10
12.391800
20
58.359000
11
52.560900
21
58.359000
0
LINE
8
Layer 1
10
51.969500
20
61.116000
11
12.981800
21
61.116000
0
LINE
8
Layer 1
10
52.559500
20
60.527000
11
52.386929
21
60.943759
0
LINE
8
Layer 1
10
52.386929
20
60.943759
11
51.970254
21
61.116532
0
LINE
8
Layer 1
10
52.559500
20
60.526700
11
52.560911
21
58.358960
0
LINE
8
Layer 1
10
12.981800
20
61.116600
11
12.565130
21
60.943822
0
LINE
8
Layer 1
10
12.565130
20
60.943822
11
12.392554
21
60.527068
0
LINE
8
Layer 1
10
12.391800
20
60.526700
11
12.391800
21
58.359000
0
LINE
8
Layer 1
10
12.391800
20
62.913800
11
52.560900
21
62.913800
0
LINE
8
Layer 1
10
52.559500
20
65.081600
11
52.560911
21
62.913860
0
LINE
8
Layer 1
10
52.559500
20
65.082100
11
52.386929
21
65.498859
0
LINE
8
Layer 1
10
52.386929
20
65.498859
11
51.970254
21
65.671632
0
LINE
8
Layer 1
10
51.969500
20
65.671500
11
12.981800
21
65.671500
0
LINE
8
Layer 1
10
12.391800
20
65.081600
11
12.391800
21
62.913800
0
LINE
8
Layer 1
10
12.981800
20
65.671600
11
12.565130
21
65.498822
0
LINE
8
Layer 1
10
12.565130
20
65.498822
11
12.392554
21
65.082068
0
LINE
8
Layer 1
10
99.760800
20
49.147600
11
99.760800
21
18.308900
0
LINE
8
Layer 1
10
99.171500
20
17.719000
11
60.183100
21
17.719000
0
LINE
8
Layer 1
10
99.171500
20
17.718800
11
99.588639
21
17.891321
0
LINE
8
Layer 1
10
99.588639
20
17.891321
11
99.761463
21
18.308334
0
LINE
8
Layer 1
10
62.113600
20
43.477300
11
65.345130
21
43.474421
0
LINE
8
Layer 1
10
62.113600
20
43.477300
11
62.113600
21
49.733900
0
LINE
8
Layer 1
10
59.593900
20
18.308100
11
59.766725
21
17.891088
0
LINE
8
Layer 1
10
59.766725
20
17.891088
11
60.183863
21
17.718569
0
LINE
8
Layer 1
10
59.593900
20
49.147600
11
59.593900
21
18.308200
0
LINE
8
Layer 1
10
60.183800
20
49.737400
11
59.766656
21
49.564865
0
LINE
8
Layer 1
10
59.766656
20
49.564865
11
59.593837
21
49.147838
0
LINE
8
Layer 1
10
99.171500
20
49.736800
11
65.345100
21
49.736800
0
LINE
8
Layer 1
10
60.183100
20
49.736800
11
62.113560
21
49.733921
0
LINE
8
Layer 1
10
99.761500
20
49.147800
11
99.588678
21
49.564817
0
LINE
8
Layer 1
10
99.588678
20
49.564817
11
99.171537
21
49.737339
0
LINE
8
Layer 1
10
65.345100
20
43.474500
11
65.345100
21
49.736800
0
LINE
8
Layer 1
10
14.254900
20
21.427900
11
18.205400
21
21.427900
0
LINE
8
Layer 1
10
18.205400
20
25.379200
11
14.254900
21
25.379200
0
LINE
8
Layer 1
10
41.136600
20
21.427900
11
45.087100
21
21.427900
0
LINE
8
Layer 1
10
34.334400
20
25.379200
11
30.383900
21
25.379200
0
LINE
8
Layer 1
10
51.803200
20
18.091700
11
12.815500
21
18.091700
0
LINE
8
Layer 1
10
12.226300
20
18.680600
11
12.398870
21
18.263840
0
LINE
8
Layer 1
10
12.398870
20
18.263840
11
12.815546
21
18.091066
0
LINE
8
Layer 1
10
51.803900
20
18.091400
11
52.220576
21
18.264174
0
LINE
8
Layer 1
10
52.220576
20
18.264174
11
52.393146
21
18.680934
0
LINE
8
Layer 1
10
30.383900
20
25.379200
11
30.383900
21
21.427900
0
LINE
8
Layer 1
10
41.136600
20
25.379200
11
41.136600
21
21.427900
0
LINE
8
Layer 1
10
28.958100
20
25.379200
11
25.007600
21
25.379200
0
LINE
8
Layer 1
10
45.087100
20
25.379200
11
41.136600
21
25.379200
0
LINE
8
Layer 1
10
18.205400
20
21.427900
11
18.205400
21
25.379200
0
LINE
8
Layer 1
10
45.087100
20
21.427900
11
45.087100
21
25.379200
0
LINE
8
Layer 1
10
39.710800
20
25.379200
11
35.760200
21
25.379200
0
LINE
8
Layer 1
10
50.463400
20
25.379200
11
46.512900
21
25.379200
0
LINE
8
Layer 1
10
50.463400
20
21.427900
11
50.463400
21
25.379200
0
LINE
8
Layer 1
10
35.760200
20
25.379200
11
35.760200
21
21.427900
0
LINE
8
Layer 1
10
28.958100
20
21.427900
11
28.958100
21
25.379200
0
LINE
8
Layer 1
10
25.007600
20
21.427900
11
28.958100
21
21.427900
0
LINE
8
Layer 1
10
25.007600
20
25.379200
11
25.007600
21
21.427900
0
LINE
8
Layer 1
10
23.581800
20
25.379200
11
19.631300
21
25.379200
0
LINE
8
Layer 1
10
46.512900
20
25.379200
11
46.512900
21
21.427900
0
LINE
8
Layer 1
10
19.631300
20
25.379200
11
19.631300
21
21.427900
0
LINE
8
Layer 1
10
23.581800
20
21.427900
11
23.581800
21
25.379200
0
LINE
8
Layer 1
10
19.631300
20
21.427900
11
23.581800
21
21.427900
0
LINE
8
Layer 1
10
39.710800
20
21.427900
11
39.710800
21
25.379200
0
LINE
8
Layer 1
10
34.334400
20
21.427900
11
34.334400
21
25.379200
0
LINE
8
Layer 1
10
46.512900
20
21.427900
11
50.463400
21
21.427900
0
LINE
8
Layer 1
10
35.760200
20
21.427900
11
39.710800
21
21.427900
0
LINE
8
Layer 1
10
30.383900
20
21.427900
11
34.334400
21
21.427900
0
LINE
8
Layer 1
10
14.254900
20
25.379200
11
14.254900
21
21.427900
0
LINE
8
Layer 1
10
30.383900
20
37.556900
11
34.334400
21
37.556900
0
LINE
8
Layer 1
10
34.334400
20
41.508200
11
30.383900
21
41.508200
0
LINE
8
Layer 1
10
46.512900
20
46.883800
11
46.512900
21
42.932500
0
LINE
8
Layer 1
10
41.136600
20
37.556900
11
45.087100
21
37.556900
0
LINE
8
Layer 1
10
46.512900
20
37.556900
11
50.463400
21
37.556900
0
LINE
8
Layer 1
10
35.760200
20
46.883800
11
35.760200
21
42.932500
0
LINE
8
Layer 1
10
14.254900
20
26.804300
11
18.205400
21
26.804300
0
LINE
8
Layer 1
10
18.205400
20
30.755500
11
14.254900
21
30.755500
0
LINE
8
Layer 1
10
45.087100
20
37.556900
11
45.087100
21
41.508200
0
LINE
8
Layer 1
10
41.136600
20
26.804300
11
45.087100
21
26.804300
0
LINE
8
Layer 1
10
34.334400
20
30.755500
11
30.383900
21
30.755500
0
LINE
8
Layer 1
10
28.958100
20
32.180600
11
28.958100
21
36.131800
0
LINE
8
Layer 1
10
30.383900
20
41.508200
11
30.383900
21
37.556900
0
LINE
8
Layer 1
10
46.512900
20
41.508200
11
46.512900
21
37.556900
0
LINE
8
Layer 1
10
50.463400
20
37.556900
11
50.463400
21
41.508200
0
LINE
8
Layer 1
10
23.581800
20
36.131800
11
19.631300
21
36.131800
0
LINE
8
Layer 1
10
12.815500
20
50.109600
11
14.745960
21
50.106721
0
LINE
8
Layer 1
10
39.710800
20
46.883800
11
35.760200
21
46.883800
0
LINE
8
Layer 1
10
52.393200
20
49.520300
11
52.393200
21
18.681000
0
LINE
8
Layer 1
10
52.393200
20
49.520400
11
52.220639
21
49.937178
0
LINE
8
Layer 1
10
52.220639
20
49.937178
11
51.803954
21
50.109962
0
LINE
8
Layer 1
10
51.803200
20
50.109600
11
14.746000
21
50.106721
0
LINE
8
Layer 1
10
23.581800
20
42.932500
11
23.581800
21
46.883800
0
LINE
8
Layer 1
10
12.225500
20
49.520300
11
12.225500
21
33.888100
0
LINE
8
Layer 1
10
12.815500
20
50.109900
11
12.398815
21
49.937106
0
LINE
8
Layer 1
10
12.398815
20
49.937106
11
12.226254
21
49.520324
0
LINE
8
Layer 1
10
34.334400
20
32.180600
11
34.334400
21
36.131800
0
LINE
8
Layer 1
10
28.958100
20
41.508200
11
25.007600
21
41.508200
0
LINE
8
Layer 1
10
28.958100
20
37.556900
11
28.958100
21
41.508200
0
LINE
8
Layer 1
10
45.087100
20
42.932500
11
45.087100
21
46.883800
0
LINE
8
Layer 1
10
41.136600
20
46.883800
11
41.136600
21
42.932500
0
LINE
8
Layer 1
10
30.383900
20
30.755500
11
30.383900
21
26.804300
0
LINE
8
Layer 1
10
28.958100
20
42.932500
11
28.958100
21
46.883800
0
LINE
8
Layer 1
10
41.136600
20
30.755500
11
41.136600
21
26.804300
0
LINE
8
Layer 1
10
25.007600
20
46.883800
11
25.007600
21
42.932500
0
LINE
8
Layer 1
10
28.958100
20
30.755500
11
25.007600
21
30.755500
0
LINE
8
Layer 1
10
45.087100
20
30.755500
11
41.136600
21
30.755500
0
LINE
8
Layer 1
10
18.205400
20
26.804300
11
18.205400
21
30.755500
0
LINE
8
Layer 1
10
35.760200
20
42.932500
11
39.710800
21
42.932500
0
LINE
8
Layer 1
10
39.710800
20
32.180600
11
39.710800
21
36.131800
0
LINE
8
Layer 1
10
45.087100
20
26.804300
11
45.087100
21
30.755500
0
LINE
8
Layer 1
10
23.581800
20
32.180600
11
23.581800
21
36.131800
0
LINE
8
Layer 1
10
25.007600
20
36.131800
11
25.007600
21
32.180600
0
LINE
8
Layer 1
10
34.334400
20
42.932500
11
34.334400
21
46.883800
0
LINE
8
Layer 1
10
39.710800
20
30.755500
11
35.760200
21
30.755500
0
LINE
8
Layer 1
10
30.383900
20
36.131800
11
30.383900
21
32.180600
0
LINE
8
Layer 1
10
19.631300
20
37.556900
11
23.581800
21
37.556900
0
LINE
8
Layer 1
10
19.631300
20
41.508200
11
19.631300
21
37.556900
0
LINE
8
Layer 1
10
23.581800
20
41.508200
11
19.631300
21
41.508200
0
LINE
8
Layer 1
10
23.581800
20
37.556900
11
23.581800
21
41.508200
0
LINE
8
Layer 1
10
30.383900
20
46.883800
11
30.383900
21
42.932500
0
LINE
8
Layer 1
10
25.007600
20
32.180600
11
28.958100
21
32.180600
0
LINE
8
Layer 1
10
46.512900
20
36.131800
11
46.512900
21
32.180600
0
LINE
8
Layer 1
10
19.631300
20
36.131800
11
19.631300
21
32.180600
0
LINE
8
Layer 1
10
50.463400
20
41.508200
11
46.512900
21
41.508200
0
LINE
8
Layer 1
10
34.334400
20
37.556900
11
34.334400
21
41.508200
0
LINE
8
Layer 1
10
25.007600
20
37.556900
11
28.958100
21
37.556900
0
LINE
8
Layer 1
10
45.087100
20
32.180600
11
45.087100
21
36.131800
0
LINE
8
Layer 1
10
50.463400
20
30.755500
11
46.512900
21
30.755500
0
LINE
8
Layer 1
10
50.463400
20
36.131800
11
46.512900
21
36.131800
0
LINE
8
Layer 1
10
50.463400
20
26.804300
11
50.463400
21
30.755500
0
LINE
8
Layer 1
10
25.007600
20
41.508200
11
25.007600
21
37.556900
0
LINE
8
Layer 1
10
23.581800
20
46.883800
11
19.631300
21
46.883800
0
LINE
8
Layer 1
10
30.383900
20
32.180600
11
34.334400
21
32.180600
0
LINE
8
Layer 1
10
35.760200
20
30.755500
11
35.760200
21
26.804300
0
LINE
8
Layer 1
10
19.631300
20
46.883800
11
19.631300
21
42.932500
0
LINE
8
Layer 1
10
34.334400
20
36.131800
11
30.383900
21
36.131800
0
LINE
8
Layer 1
10
28.958100
20
36.131800
11
25.007600
21
36.131800
0
LINE
8
Layer 1
10
45.087100
20
46.883800
11
41.136600
21
46.883800
0
LINE
8
Layer 1
10
28.958100
20
26.804300
11
28.958100
21
30.755500
0
LINE
8
Layer 1
10
25.007600
20
26.804300
11
28.958100
21
26.804300
0
LINE
8
Layer 1
10
46.512900
20
42.932500
11
50.463400
21
42.932500
0
LINE
8
Layer 1
10
39.710800
20
42.932500
11
39.710800
21
46.883800
0
LINE
8
Layer 1
10
25.007600
20
30.755500
11
25.007600
21
26.804300
0
LINE
8
Layer 1
10
23.581800
20
30.755500
11
19.631300
21
30.755500
0
LINE
8
Layer 1
10
46.512900
20
32.180600
11
50.463400
21
32.180600
0
LINE
8
Layer 1
10
46.512900
20
30.755500
11
46.512900
21
26.804300
0
LINE
8
Layer 1
10
19.631300
20
30.755500
11
19.631300
21
26.804300
0
LINE
8
Layer 1
10
23.581800
20
26.804300
11
23.581800
21
30.755500
0
LINE
8
Layer 1
10
19.631300
20
26.804300
11
23.581800
21
26.804300
0
LINE
8
Layer 1
10
41.136600
20
32.180600
11
45.087100
21
32.180600
0
LINE
8
Layer 1
10
39.710800
20
26.804300
11
39.710800
21
30.755500
0
LINE
8
Layer 1
10
45.087100
20
36.131800
11
41.136600
21
36.131800
0
LINE
8
Layer 1
10
41.136600
20
36.131800
11
41.136600
21
32.180600
0
LINE
8
Layer 1
10
50.463400
20
32.180600
11
50.463400
21
36.131800
0
LINE
8
Layer 1
10
35.760200
20
41.508200
11
35.760200
21
37.556900
0
LINE
8
Layer 1
10
50.463400
20
42.932500
11
50.463400
21
46.883800
0
LINE
8
Layer 1
10
41.136600
20
42.932500
11
45.087100
21
42.932500
0
LINE
8
Layer 1
10
50.463400
20
46.883800
11
46.512900
21
46.883800
0
LINE
8
Layer 1
10
35.760200
20
37.556900
11
39.710800
21
37.556900
0
LINE
8
Layer 1
10
39.710800
20
41.508200
11
35.760200
21
41.508200
0
LINE
8
Layer 1
10
19.631300
20
32.180600
11
23.581800
21
32.180600
0
LINE
8
Layer 1
10
35.760200
20
32.180600
11
39.710800
21
32.180600
0
LINE
8
Layer 1
10
12.225500
20
33.888100
11
16.286500
21
33.888100
0
LINE
8
Layer 1
10
16.286500
20
33.888100
11
16.286500
21
31.562700
0
LINE
8
Layer 1
10
16.286500
20
31.562700
11
12.225500
21
31.562700
0
LINE
8
Layer 1
10
12.225500
20
18.681000
11
12.225500
21
31.562700
0
LINE
8
Layer 1
10
12.642700
20
41.310300
11
13.148100
21
41.310300
0
LINE
8
Layer 1
10
13.148100
20
41.310300
11
13.148100
21
40.221400
0
LINE
8
Layer 1
10
13.148100
20
40.221400
11
12.642700
21
40.221400
0
LINE
8
Layer 1
10
12.642700
20
40.221400
11
12.642700
21
41.310300
0
LINE
8
Layer 1
10
34.334400
20
26.804300
11
34.334400
21
30.755500
0
LINE
8
Layer 1
10
39.710800
20
37.556900
11
39.710800
21
41.508200
0
LINE
8
Layer 1
10
41.136600
20
41.508200
11
41.136600
21
37.556900
0
LINE
8
Layer 1
10
45.087100
20
41.508200
11
41.136600
21
41.508200
0
LINE
8
Layer 1
10
28.958100
20
46.883800
11
25.007600
21
46.883800
0
LINE
8
Layer 1
10
39.710800
20
36.131800
11
35.760200
21
36.131800
0
LINE
8
Layer 1
10
46.512900
20
26.804300
11
50.463400
21
26.804300
0
LINE
8
Layer 1
10
35.760200
20
26.804300
11
39.710800
21
26.804300
0
LINE
8
Layer 1
10
30.383900
20
26.804300
11
34.334400
21
26.804300
0
LINE
8
Layer 1
10
14.254900
20
30.755500
11
14.254900
21
26.804300
0
LINE
8
Layer 1
10
35.760200
20
36.131800
11
35.760200
21
32.180600
0
LINE
8
Layer 1
10
34.334400
20
46.883800
11
30.383900
21
46.883800
0
LINE
8
Layer 1
10
30.383900
20
42.932500
11
34.334400
21
42.932500
0
LINE
8
Layer 1
10
19.631300
20
42.932500
11
23.581800
21
42.932500
0
LINE
8
Layer 1
10
25.007600
20
42.932500
11
28.958100
21
42.932500
0
LINE
8
Layer 1
10
116.755000
20
66.644200
11
116.662420
21
66.867748
0
LINE
8
Layer 1
10
116.662420
20
66.867748
11
116.438872
21
66.960328
0
LINE
8
Layer 1
10
101.526000
20
66.960300
11
101.302452
21
66.867720
0
LINE
8
Layer 1
10
101.302452
20
66.867720
11
101.209872
21
66.644172
0
LINE
8
Layer 1
10
101.210000
20
60.669200
11
101.210000
21
66.644100
0
LINE
8
Layer 1
10
116.439000
20
60.353400
11
116.662548
21
60.445980
0
LINE
8
Layer 1
10
116.662548
20
60.445980
11
116.755128
21
60.669528
0
LINE
8
Layer 1
10
101.526000
20
60.353100
11
116.440000
21
60.353100
0
LINE
8
Layer 1
10
116.440000
20
66.960200
11
101.526000
21
66.960200
0
LINE
8
Layer 1
10
101.210000
20
60.669500
11
101.302580
21
60.445952
0
LINE
8
Layer 1
10
101.302580
20
60.445952
11
101.526128
21
60.353372
0
LINE
8
Layer 1
10
116.755000
20
60.669200
11
116.755000
21
66.644100
0
LINE
8
Layer 1
10
129.058000
20
50.565300
11
129.058000
21
56.540200
0
LINE
8
Layer 1
10
101.332000
20
50.566000
11
101.424580
21
50.342452
0
LINE
8
Layer 1
10
101.424580
20
50.342452
11
101.648128
21
50.249872
0
LINE
8
Layer 1
10
128.741000
20
56.856300
11
101.648000
21
56.856300
0
LINE
8
Layer 1
10
101.648000
20
50.249900
11
128.741000
21
50.249900
0
LINE
8
Layer 1
10
128.741000
20
50.249900
11
128.964548
21
50.342480
0
LINE
8
Layer 1
10
128.964548
20
50.342480
11
129.057128
21
50.566028
0
LINE
8
Layer 1
10
101.332000
20
50.565300
11
101.332000
21
56.540200
0
LINE
8
Layer 1
10
101.648000
20
56.856700
11
101.424452
21
56.764120
0
LINE
8
Layer 1
10
101.424452
20
56.764120
11
101.331872
21
56.540572
0
LINE
8
Layer 1
10
129.057000
20
56.540600
11
128.964420
21
56.764148
0
LINE
8
Layer 1
10
128.964420
20
56.764148
11
128.740872
21
56.856728
0
LINE
8
Layer 1
10
158.743000
20
47.161700
11
131.651000
21
47.161700
0
LINE
8
Layer 1
10
158.744000
20
40.555600
11
158.967502
21
40.648205
0
LINE
8
Layer 1
10
158.967502
20
40.648205
11
159.060058
21
40.871728
0
LINE
8
Layer 1
10
159.060000
20
40.871400
11
159.060000
21
46.846300
0
LINE
8
Layer 1
10
131.335000
20
40.871700
11
131.427567
21
40.648165
0
LINE
8
Layer 1
10
131.427567
20
40.648165
11
131.651091
21
40.555572
0
LINE
8
Layer 1
10
131.651000
20
40.555300
11
158.743000
21
40.555300
0
LINE
8
Layer 1
10
131.651000
20
47.162400
11
131.427476
21
47.069807
0
LINE
8
Layer 1
10
131.427476
20
47.069807
11
131.334909
21
46.846272
0
LINE
8
Layer 1
10
159.060000
20
46.846300
11
158.967444
21
47.069823
0
LINE
8
Layer 1
10
158.967444
20
47.069823
11
158.743942
21
47.162428
0
LINE
8
Layer 1
10
131.335000
20
40.871400
11
131.335000
21
46.846300
0
LINE
8
Layer 1
10
129.057000
20
46.990200
11
128.964395
21
47.213702
0
LINE
8
Layer 1
10
128.964395
20
47.213702
11
128.740872
21
47.306258
0
LINE
8
Layer 1
10
101.648000
20
47.306300
11
101.424477
21
47.213744
0
LINE
8
Layer 1
10
101.424477
20
47.213744
11
101.331872
21
46.990242
0
LINE
8
Layer 1
10
101.332000
20
41.015500
11
101.332000
21
46.989700
0
LINE
8
Layer 1
10
128.741000
20
40.699500
11
128.964548
21
40.792080
0
LINE
8
Layer 1
10
128.964548
20
40.792080
11
129.057128
21
41.015628
0
LINE
8
Layer 1
10
101.648000
20
40.699400
11
128.741000
21
40.699400
0
LINE
8
Layer 1
10
128.741000
20
47.305800
11
101.648000
21
47.305800
0
LINE
8
Layer 1
10
101.332000
20
41.015600
11
101.424580
21
40.792052
0
LINE
8
Layer 1
10
101.424580
20
40.792052
11
101.648128
21
40.699472
0
LINE
8
Layer 1
10
129.058000
20
41.015500
11
129.058000
21
46.989700
0
LINE
8
Layer 1
10
121.847000
20
45.367400
11
121.847000
21
41.819800
0
LINE
8
Layer 1
10
121.847000
20
41.819800
11
118.073000
21
41.819800
0
LINE
8
Layer 1
10
118.073000
20
45.367400
11
121.847000
21
45.367400
0
LINE
8
Layer 1
10
118.073000
20
41.819800
11
118.073000
21
45.367400
0
LINE
8
Layer 1
10
127.381000
20
45.367400
11
127.381000
21
41.819800
0
LINE
8
Layer 1
10
123.608000
20
45.367400
11
127.381000
21
45.367400
0
LINE
8
Layer 1
10
123.608000
20
41.819800
11
123.608000
21
45.367400
0
LINE
8
Layer 1
10
127.381000
20
41.819800
11
123.608000
21
41.819800
0
LINE
8
Layer 1
10
116.755000
20
66.644200
11
116.662420
21
66.867748
0
LINE
8
Layer 1
10
116.662420
20
66.867748
11
116.438872
21
66.960328
0
LINE
8
Layer 1
10
101.526000
20
66.960300
11
101.302452
21
66.867720
0
LINE
8
Layer 1
10
101.302452
20
66.867720
11
101.209872
21
66.644172
0
LINE
8
Layer 1
10
101.210000
20
60.669200
11
101.210000
21
66.644100
0
LINE
8
Layer 1
10
116.439000
20
60.353400
11
116.662548
21
60.445980
0
LINE
8
Layer 1
10
116.662548
20
60.445980
11
116.755128
21
60.669528
0
LINE
8
Layer 1
10
101.526000
20
60.353100
11
116.440000
21
60.353100
0
LINE
8
Layer 1
10
116.440000
20
66.960200
11
101.526000
21
66.960200
0
LINE
8
Layer 1
10
101.210000
20
60.669500
11
101.302580
21
60.445952
0
LINE
8
Layer 1
10
101.302580
20
60.445952
11
101.526128
21
60.353372
0
LINE
8
Layer 1
10
116.755000
20
60.669200
11
116.755000
21
66.644100
0
LINE
8
Layer 1
10
116.755000
20
66.644200
11
116.662420
21
66.867748
0
LINE
8
Layer 1
10
116.662420
20
66.867748
11
116.438872
21
66.960328
0
LINE
8
Layer 1
10
101.526000
20
66.960300
11
101.302452
21
66.867720
0
LINE
8
Layer 1
10
101.302452
20
66.867720
11
101.209872
21
66.644172
0
LINE
8
Layer 1
10
101.210000
20
60.669200
11
101.210000
21
66.644100
0
LINE
8
Layer 1
10
116.439000
20
60.353400
11
116.662548
21
60.445980
0
LINE
8
Layer 1
10
116.662548
20
60.445980
11
116.755128
21
60.669528
0
LINE
8
Layer 1
10
101.526000
20
60.353100
11
116.440000
21
60.353100
0
LINE
8
Layer 1
10
116.440000
20
66.960200
11
101.526000
21
66.960200
0
LINE
8
Layer 1
10
101.210000
20
60.669500
11
101.302580
21
60.445952
0
LINE
8
Layer 1
10
101.302580
20
60.445952
11
101.526128
21
60.353372
0
LINE
8
Layer 1
10
116.755000
20
60.669200
11
116.755000
21
66.644100
0
LINE
8
Layer 1
10
116.755000
20
66.644200
11
116.662420
21
66.867748
0
LINE
8
Layer 1
10
116.662420
20
66.867748
11
116.438872
21
66.960328
0
LINE
8
Layer 1
10
101.526000
20
66.960300
11
101.302452
21
66.867720
0
LINE
8
Layer 1
10
101.302452
20
66.867720
11
101.209872
21
66.644172
0
LINE
8
Layer 1
10
101.210000
20
60.669200
11
101.210000
21
66.644100
0
LINE
8
Layer 1
10
116.439000
20
60.353400
11
116.662548
21
60.445980
0
LINE
8
Layer 1
10
116.662548
20
60.445980
11
116.755128
21
60.669528
0
LINE
8
Layer 1
10
101.526000
20
60.353100
11
116.440000
21
60.353100
0
LINE
8
Layer 1
10
116.440000
20
66.960200
11
101.526000
21
66.960200
0
LINE
8
Layer 1
10
101.210000
20
60.669500
11
101.302580
21
60.445952
0
LINE
8
Layer 1
10
101.302580
20
60.445952
11
101.526128
21
60.353372
0
LINE
8
Layer 1
10
116.755000
20
60.669200
11
116.755000
21
66.644100
0
LINE
8
Layer 1
10
129.058000
20
50.565300
11
129.058000
21
56.540200
0
LINE
8
Layer 1
10
101.332000
20
50.566000
11
101.424580
21
50.342452
0
LINE
8
Layer 1
10
101.424580
20
50.342452
11
101.648128
21
50.249872
0
LINE
8
Layer 1
10
128.741000
20
56.856300
11
101.648000
21
56.856300
0
LINE
8
Layer 1
10
101.648000
20
50.249900
11
128.741000
21
50.249900
0
LINE
8
Layer 1
10
128.741000
20
50.249900
11
128.964548
21
50.342480
0
LINE
8
Layer 1
10
128.964548
20
50.342480
11
129.057128
21
50.566028
0
LINE
8
Layer 1
10
101.332000
20
50.565300
11
101.332000
21
56.540200
0
LINE
8
Layer 1
10
101.648000
20
56.856700
11
101.424452
21
56.764120
0
LINE
8
Layer 1
10
101.424452
20
56.764120
11
101.331872
21
56.540572
0
LINE
8
Layer 1
10
129.057000
20
56.540600
11
128.964420
21
56.764148
0
LINE
8
Layer 1
10
128.964420
20
56.764148
11
128.740872
21
56.856728
0
LINE
8
Layer 1
10
129.058000
20
50.565300
11
129.058000
21
56.540200
0
LINE
8
Layer 1
10
101.332000
20
50.566000
11
101.424580
21
50.342452
0
LINE
8
Layer 1
10
101.424580
20
50.342452
11
101.648128
21
50.249872
0
LINE
8
Layer 1
10
128.741000
20
56.856300
11
101.648000
21
56.856300
0
LINE
8
Layer 1
10
101.648000
20
50.249900
11
128.741000
21
50.249900
0
LINE
8
Layer 1
10
128.741000
20
50.249900
11
128.964548
21
50.342480
0
LINE
8
Layer 1
10
128.964548
20
50.342480
11
129.057128
21
50.566028
0
LINE
8
Layer 1
10
101.332000
20
50.565300
11
101.332000
21
56.540200
0
LINE
8
Layer 1
10
101.648000
20
56.856700
11
101.424452
21
56.764120
0
LINE
8
Layer 1
10
101.424452
20
56.764120
11
101.331872
21
56.540572
0
LINE
8
Layer 1
10
129.057000
20
56.540600
11
128.964420
21
56.764148
0
LINE
8
Layer 1
10
128.964420
20
56.764148
11
128.740872
21
56.856728
0
LINE
8
Layer 1
10
129.058000
20
50.565300
11
129.058000
21
56.540200
0
LINE
8
Layer 1
10
101.332000
20
50.566000
11
101.424580
21
50.342452
0
LINE
8
Layer 1
10
101.424580
20
50.342452
11
101.648128
21
50.249872
0
LINE
8
Layer 1
10
128.741000
20
56.856300
11
101.648000
21
56.856300
0
LINE
8
Layer 1
10
101.648000
20
50.249900
11
128.741000
21
50.249900
0
LINE
8
Layer 1
10
128.741000
20
50.249900
11
128.964548
21
50.342480
0
LINE
8
Layer 1
10
128.964548
20
50.342480
11
129.057128
21
50.566028
0
LINE
8
Layer 1
10
101.332000
20
50.565300
11
101.332000
21
56.540200
0
LINE
8
Layer 1
10
101.648000
20
56.856700
11
101.424452
21
56.764120
0
LINE
8
Layer 1
10
101.424452
20
56.764120
11
101.331872
21
56.540572
0
LINE
8
Layer 1
10
129.057000
20
56.540600
11
128.964420
21
56.764148
0
LINE
8
Layer 1
10
128.964420
20
56.764148
11
128.740872
21
56.856728
 0 
ENDSEC
 0 
EOF