999
"DXF R12 Output" (www.mydxf.blogspot.com)
 0 
SECTION
 2 
HEADER
 9 
$ACADVER
 1 
AC1009
 9 
$EXTMIN
 10 
 0 
 20 
 0 
 9 
$EXTMAX
 10 
 8.5 
 20 
 11 
 0 
ENDSEC
 0 
SECTION
 2 
ENTITIES
0
LINE
8
Layer 1
10
63.144400
20
-19.309300
11
63.317224
21
-19.726313
0
LINE
8
Layer 1
10
63.317224
20
-19.726313
11
63.734363
21
-19.898834
0
LINE
8
Layer 1
10
101.582000
20
-17.273000
11
64.715700
21
-17.273000
0
LINE
8
Layer 1
10
63.144400
20
-9.794200
11
63.144400
21
-19.308900
0
LINE
8
Layer 1
10
101.888000
20
-16.906000
11
101.582625
21
-17.273024
0
LINE
8
Layer 1
10
64.715700
20
-17.273000
11
64.459070
21
-16.894506
0
LINE
8
Layer 1
10
63.144400
20
-7.065180
11
64.459100
21
-7.065180
0
LINE
8
Layer 1
10
102.723000
20
-19.898800
11
63.733600
21
-19.898800
0
LINE
8
Layer 1
10
102.723000
20
-19.898800
11
103.140139
21
-19.726279
0
LINE
8
Layer 1
10
103.140139
20
-19.726279
11
103.312963
21
-19.309266
0
LINE
8
Layer 1
10
64.459100
20
-16.894500
11
64.459100
21
-7.065180
0
LINE
8
Layer 1
10
103.313000
20
11.530200
11
103.140430
21
11.946960
0
LINE
8
Layer 1
10
103.140430
20
11.946960
11
102.723754
21
12.119734
0
LINE
8
Layer 1
10
102.723000
20
12.119700
11
69.017000
21
12.120547
0
LINE
8
Layer 1
10
101.588000
20
9.270260
11
69.016800
21
9.270260
0
LINE
8
Layer 1
10
101.888000
20
8.852340
11
101.588359
21
9.270260
0
LINE
8
Layer 1
10
69.016800
20
9.270260
11
69.016800
21
12.120400
0
LINE
8
Layer 1
10
63.144400
20
-9.794200
11
61.831900
21
-9.794200
0
LINE
8
Layer 1
10
61.831900
20
-9.794200
11
61.831900
21
-7.065180
0
LINE
8
Layer 1
10
64.459100
20
-7.065180
11
61.831900
21
-7.065180
0
LINE
8
Layer 1
10
103.313000
20
11.530200
11
103.140430
21
11.946960
0
LINE
8
Layer 1
10
103.140430
20
11.946960
11
102.723754
21
12.119734
0
LINE
8
Layer 1
10
101.888000
20
8.852340
11
101.888000
21
-16.906000
0
LINE
8
Layer 1
10
102.723000
20
-19.898800
11
103.139676
21
-19.726026
0
LINE
8
Layer 1
10
103.139676
20
-19.726026
11
103.312246
21
-19.309266
0
LINE
8
Layer 1
10
103.313000
20
11.530500
11
103.313000
21
-19.308900
0
LINE
8
Layer 1
10
63.316400
20
-59.763200
11
63.489326
21
-60.180027
0
LINE
8
Layer 1
10
63.489326
20
-60.180027
11
63.906363
21
-60.352446
0
LINE
8
Layer 1
10
101.754000
20
-57.726700
11
64.887800
21
-57.726700
0
LINE
8
Layer 1
10
63.316400
20
-50.361100
11
63.316400
21
-59.762500
0
LINE
8
Layer 1
10
102.060000
20
-57.359700
11
101.754625
21
-57.726724
0
LINE
8
Layer 1
10
64.887800
20
-57.726700
11
64.631170
21
-57.348923
0
LINE
8
Layer 1
10
102.895000
20
-60.352500
11
63.905700
21
-60.352500
0
LINE
8
Layer 1
10
102.896000
20
-60.352500
11
103.312574
21
-60.179828
0
LINE
8
Layer 1
10
103.312574
20
-60.179828
11
103.485246
21
-59.763254
0
LINE
8
Layer 1
10
64.631100
20
-57.348900
11
64.631100
21
-50.361100
0
LINE
8
Layer 1
10
103.485000
20
-28.923500
11
103.312430
21
-28.506740
0
LINE
8
Layer 1
10
103.312430
20
-28.506740
11
102.895754
21
-28.333966
0
LINE
8
Layer 1
10
102.895000
20
-28.333900
11
69.189000
21
-28.333053
0
LINE
8
Layer 1
10
101.760000
20
-31.184100
11
69.188800
21
-31.184100
0
LINE
8
Layer 1
10
102.060000
20
-31.601300
11
101.760359
21
-31.184097
0
LINE
8
Layer 1
10
69.188800
20
-31.184100
11
69.188800
21
-28.333200
0
LINE
8
Layer 1
10
64.631100
20
-50.361100
11
63.316400
21
-50.361100
0
LINE
8
Layer 1
10
103.485000
20
-28.923500
11
103.312430
21
-28.506740
0
LINE
8
Layer 1
10
103.312430
20
-28.506740
11
102.895754
21
-28.333966
0
LINE
8
Layer 1
10
102.060000
20
-31.601300
11
102.060000
21
-57.359700
0
LINE
8
Layer 1
10
103.485000
20
-28.923200
11
103.485000
21
-59.762500
0
LINE
8
Layer 1
10
102.896000
20
-60.352500
11
103.312574
21
-60.179828
0
LINE
8
Layer 1
10
103.312574
20
-60.179828
11
103.485246
21
-59.763254
0
LINE
8
Layer 1
10
103.485000
20
-28.923500
11
103.312430
21
-28.506740
0
LINE
8
Layer 1
10
103.312430
20
-28.506740
11
102.895754
21
-28.333966
0
LINE
8
Layer 1
10
102.895000
20
-28.333900
11
69.189000
21
-28.333053
0
LINE
8
Layer 1
10
101.760000
20
-31.184100
11
69.188800
21
-31.184100
0
LINE
8
Layer 1
10
102.060000
20
-31.601300
11
101.760359
21
-31.184097
0
LINE
8
Layer 1
10
69.188800
20
-31.184100
11
69.188800
21
-28.333200
0
LINE
8
Layer 1
10
64.631100
20
-50.361100
11
63.316400
21
-50.361100
0
LINE
8
Layer 1
10
103.485000
20
-28.923500
11
103.312430
21
-28.506740
0
LINE
8
Layer 1
10
103.312430
20
-28.506740
11
102.895754
21
-28.333966
0
LINE
8
Layer 1
10
63.316400
20
-59.763200
11
63.489326
21
-60.180027
0
LINE
8
Layer 1
10
63.489326
20
-60.180027
11
63.906363
21
-60.352446
0
LINE
8
Layer 1
10
101.754000
20
-57.726700
11
64.887800
21
-57.726700
0
LINE
8
Layer 1
10
63.316400
20
-50.361100
11
63.316400
21
-59.762500
0
LINE
8
Layer 1
10
102.060000
20
-57.359700
11
101.754625
21
-57.726724
0
LINE
8
Layer 1
10
64.887800
20
-57.726700
11
64.631170
21
-57.348923
0
LINE
8
Layer 1
10
102.895000
20
-60.352500
11
63.905700
21
-60.352500
0
LINE
8
Layer 1
10
102.896000
20
-60.352500
11
103.312574
21
-60.179828
0
LINE
8
Layer 1
10
103.312574
20
-60.179828
11
103.485246
21
-59.763254
0
LINE
8
Layer 1
10
64.631100
20
-57.348900
11
64.631100
21
-50.361100
0
LINE
8
Layer 1
10
102.060000
20
-31.601300
11
102.060000
21
-57.359700
0
LINE
8
Layer 1
10
103.485000
20
-28.923200
11
103.485000
21
-59.762500
0
LINE
8
Layer 1
10
102.896000
20
-60.352500
11
103.312574
21
-60.179828
0
LINE
8
Layer 1
10
103.312574
20
-60.179828
11
103.485246
21
-59.763254
0
LINE
8
Layer 1
10
16.888600
20
-60.618400
11
17.061272
21
-61.034974
0
LINE
8
Layer 1
10
17.061272
20
-61.034974
11
17.477846
21
-61.207646
0
LINE
8
Layer 1
10
55.326500
20
-58.581900
11
18.459900
21
-58.581900
0
LINE
8
Layer 1
10
16.887900
20
-51.215600
11
16.887900
21
-60.617700
0
LINE
8
Layer 1
10
55.631200
20
-58.214900
11
55.326541
21
-58.581924
0
LINE
8
Layer 1
10
18.459900
20
-58.581900
11
18.202553
21
-58.203406
0
LINE
8
Layer 1
10
56.466300
20
-61.207700
11
17.477900
21
-61.207700
0
LINE
8
Layer 1
10
56.467000
20
-61.207700
11
56.883574
21
-61.035028
0
LINE
8
Layer 1
10
56.883574
20
-61.035028
11
57.056246
21
-60.618454
0
LINE
8
Layer 1
10
18.202600
20
-58.203400
11
18.202600
21
-51.215600
0
LINE
8
Layer 1
10
57.057000
20
-29.778400
11
56.884074
21
-29.361573
0
LINE
8
Layer 1
10
56.884074
20
-29.361573
11
56.467037
21
-29.189154
0
LINE
8
Layer 1
10
56.467000
20
-29.189100
11
22.761000
21
-29.188253
0
LINE
8
Layer 1
10
55.332200
20
-32.038600
11
22.761000
21
-32.038600
0
LINE
8
Layer 1
10
55.631200
20
-32.456500
11
55.332276
21
-32.038580
0
LINE
8
Layer 1
10
22.761000
20
-32.038600
11
22.761000
21
-29.188400
0
LINE
8
Layer 1
10
18.202600
20
-51.215600
11
16.887900
21
-51.215600
0
LINE
8
Layer 1
10
57.057000
20
-29.778400
11
56.884074
21
-29.361573
0
LINE
8
Layer 1
10
56.884074
20
-29.361573
11
56.467037
21
-29.189154
0
LINE
8
Layer 1
10
55.631200
20
-32.456500
11
55.631200
21
-58.214900
0
LINE
8
Layer 1
10
57.056200
20
-29.778400
11
57.056200
21
-60.617700
0
LINE
8
Layer 1
10
56.467000
20
-61.207700
11
56.884037
21
-61.035281
0
LINE
8
Layer 1
10
56.884037
20
-61.035281
11
57.056963
21
-60.618454
0
LINE
8
Layer 1
10
16.888600
20
-60.618400
11
17.061272
21
-61.034974
0
LINE
8
Layer 1
10
17.061272
20
-61.034974
11
17.477846
21
-61.207646
0
LINE
8
Layer 1
10
55.326500
20
-58.581900
11
18.459900
21
-58.581900
0
LINE
8
Layer 1
10
16.887900
20
-51.215600
11
16.887900
21
-60.617700
0
LINE
8
Layer 1
10
55.631200
20
-58.214900
11
55.326541
21
-58.581924
0
LINE
8
Layer 1
10
18.459900
20
-58.581900
11
18.202553
21
-58.203406
0
LINE
8
Layer 1
10
56.466300
20
-61.207700
11
17.477900
21
-61.207700
0
LINE
8
Layer 1
10
56.467000
20
-61.207700
11
56.883574
21
-61.035028
0
LINE
8
Layer 1
10
56.883574
20
-61.035028
11
57.056246
21
-60.618454
0
LINE
8
Layer 1
10
18.202600
20
-58.203400
11
18.202600
21
-51.215600
0
LINE
8
Layer 1
10
57.057000
20
-29.778400
11
56.884074
21
-29.361573
0
LINE
8
Layer 1
10
56.884074
20
-29.361573
11
56.467037
21
-29.189154
0
LINE
8
Layer 1
10
56.467000
20
-29.189100
11
22.761000
21
-29.188253
0
LINE
8
Layer 1
10
55.332200
20
-32.038600
11
22.761000
21
-32.038600
0
LINE
8
Layer 1
10
55.631200
20
-32.456500
11
55.332276
21
-32.038580
0
LINE
8
Layer 1
10
22.761000
20
-32.038600
11
22.761000
21
-29.188400
0
LINE
8
Layer 1
10
18.202600
20
-51.215600
11
16.887900
21
-51.215600
0
LINE
8
Layer 1
10
57.057000
20
-29.778400
11
56.884074
21
-29.361573
0
LINE
8
Layer 1
10
56.884074
20
-29.361573
11
56.467037
21
-29.189154
0
LINE
8
Layer 1
10
55.631200
20
-32.456500
11
55.631200
21
-58.214900
0
LINE
8
Layer 1
10
56.467000
20
-61.207700
11
56.884037
21
-61.035281
0
LINE
8
Layer 1
10
56.884037
20
-61.035281
11
57.056963
21
-60.618454
0
LINE
8
Layer 1
10
57.056200
20
-29.778400
11
57.056200
21
-60.617700
0
LINE
8
Layer 1
10
16.715800
20
-10.649400
11
15.403300
21
-10.649400
0
LINE
8
Layer 1
10
18.030500
20
-7.920370
11
15.403300
21
-7.920370
0
LINE
8
Layer 1
10
15.403300
20
-10.649400
11
15.403300
21
-7.920370
0
LINE
8
Layer 1
10
16.715800
20
-20.164400
11
16.888599
21
-20.581459
0
LINE
8
Layer 1
10
16.888599
20
-20.581459
11
17.305763
21
-20.754004
0
LINE
8
Layer 1
10
55.154500
20
-18.128200
11
18.287200
21
-18.128200
0
LINE
8
Layer 1
10
16.715800
20
-10.649400
11
16.715800
21
-20.164100
0
LINE
8
Layer 1
10
55.459100
20
-17.761200
11
55.154441
21
-18.128224
0
LINE
8
Layer 1
10
18.287200
20
-18.128200
11
18.030570
21
-17.749706
0
LINE
8
Layer 1
10
16.715800
20
-7.920370
11
18.030500
21
-7.920370
0
LINE
8
Layer 1
10
56.294200
20
-20.753300
11
17.305100
21
-20.753300
0
LINE
8
Layer 1
10
56.294900
20
-20.754000
11
56.711600
21
-20.581201
0
LINE
8
Layer 1
10
56.711600
20
-20.581201
11
56.884146
21
-20.164396
0
LINE
8
Layer 1
10
18.030500
20
-17.749700
11
18.030500
21
-7.920370
0
LINE
8
Layer 1
10
56.884900
20
10.675000
11
56.712076
21
11.092013
0
LINE
8
Layer 1
10
56.712076
20
11.092013
11
56.294937
21
11.264534
0
LINE
8
Layer 1
10
56.294900
20
11.265200
11
22.588200
21
11.265200
0
LINE
8
Layer 1
10
55.159500
20
8.415070
11
22.588200
21
8.415070
0
LINE
8
Layer 1
10
22.588200
20
8.415070
11
22.588200
21
11.265200
0
LINE
8
Layer 1
10
55.459100
20
7.997150
11
55.159459
21
8.415070
0
LINE
8
Layer 1
10
56.884200
20
10.675300
11
56.884200
21
-20.164100
0
LINE
8
Layer 1
10
56.884900
20
10.675000
11
56.712076
21
11.092013
0
LINE
8
Layer 1
10
56.712076
20
11.092013
11
56.294937
21
11.264534
0
LINE
8
Layer 1
10
55.459100
20
7.997150
11
55.459100
21
-17.761200
0
LINE
8
Layer 1
10
56.294900
20
-20.754000
11
56.712064
21
-20.581455
0
LINE
8
Layer 1
10
56.712064
20
-20.581455
11
56.884863
21
-20.164396
0
LINE
8
Layer 1
10
12.391800
20
58.359000
11
52.560900
21
58.359000
0
LINE
8
Layer 1
10
51.969500
20
61.116000
11
12.981800
21
61.116000
0
LINE
8
Layer 1
10
52.559500
20
60.527000
11
52.386929
21
60.943759
0
LINE
8
Layer 1
10
52.386929
20
60.943759
11
51.970254
21
61.116532
0
LINE
8
Layer 1
10
52.559500
20
60.526700
11
52.560911
21
58.358960
0
LINE
8
Layer 1
10
12.981800
20
61.116600
11
12.565130
21
60.943822
0
LINE
8
Layer 1
10
12.565130
20
60.943822
11
12.392554
21
60.527068
0
LINE
8
Layer 1
10
12.391800
20
60.526700
11
12.391800
21
58.359000
0
LINE
8
Layer 1
10
12.391800
20
62.913800
11
52.560900
21
62.913800
0
LINE
8
Layer 1
10
52.559500
20
65.081600
11
52.560911
21
62.913860
0
LINE
8
Layer 1
10
52.559500
20
65.082100
11
52.386929
21
65.498859
0
LINE
8
Layer 1
10
52.386929
20
65.498859
11
51.970254
21
65.671632
0
LINE
8
Layer 1
10
51.969500
20
65.671500
11
12.981800
21
65.671500
0
LINE
8
Layer 1
10
12.391800
20
65.081600
11
12.391800
21
62.913800
0
LINE
8
Layer 1
10
12.981800
20
65.671600
11
12.565130
21
65.498822
0
LINE
8
Layer 1
10
12.565130
20
65.498822
11
12.392554
21
65.082068
0
LINE
8
Layer 1
10
99.760800
20
49.147600
11
99.760800
21
18.308900
0
LINE
8
Layer 1
10
99.171500
20
17.719000
11
60.183100
21
17.719000
0
LINE
8
Layer 1
10
99.171500
20
17.718800
11
99.588639
21
17.891321
0
LINE
8
Layer 1
10
99.588639
20
17.891321
11
99.761463
21
18.308334
0
LINE
8
Layer 1
10
62.113600
20
43.477300
11
65.345130
21
43.474421
0
LINE
8
Layer 1
10
62.113600
20
43.477300
11
62.113600
21
49.733900
0
LINE
8
Layer 1
10
59.593900
20
18.308100
11
59.766725
21
17.891088
0
LINE
8
Layer 1
10
59.766725
20
17.891088
11
60.183863
21
17.718569
0
LINE
8
Layer 1
10
59.593900
20
49.147600
11
59.593900
21
18.308200
0
LINE
8
Layer 1
10
60.183800
20
49.737400
11
59.766656
21
49.564865
0
LINE
8
Layer 1
10
59.766656
20
49.564865
11
59.593837
21
49.147838
0
LINE
8
Layer 1
10
99.171500
20
49.736800
11
65.345100
21
49.736800
0
LINE
8
Layer 1
10
60.183100
20
49.736800
11
62.113560
21
49.733921
0
LINE
8
Layer 1
10
99.761500
20
49.147800
11
99.588678
21
49.564817
0
LINE
8
Layer 1
10
99.588678
20
49.564817
11
99.171537
21
49.737339
0
LINE
8
Layer 1
10
65.345100
20
43.474500
11
65.345100
21
49.736800
0
LINE
8
Layer 1
10
14.254900
20
21.427900
11
18.205400
21
21.427900
0
LINE
8
Layer 1
10
18.205400
20
25.379200
11
14.254900
21
25.379200
0
LINE
8
Layer 1
10
41.136600
20
21.427900
11
45.087100
21
21.427900
0
LINE
8
Layer 1
10
34.334400
20
25.379200
11
30.383900
21
25.379200
0
LINE
8
Layer 1
10
51.803200
20
18.091700
11
12.815500
21
18.091700
0
LINE
8
Layer 1
10
12.226300
20
18.680600
11
12.398870
21
18.263840
0
LINE
8
Layer 1
10
12.398870
20
18.263840
11
12.815546
21
18.091066
0
LINE
8
Layer 1
10
51.803900
20
18.091400
11
52.220576
21
18.264174
0
LINE
8
Layer 1
10
52.220576
20
18.264174
11
52.393146
21
18.680934
0
LINE
8
Layer 1
10
30.383900
20
25.379200
11
30.383900
21
21.427900
0
LINE
8
Layer 1
10
41.136600
20
25.379200
11
41.136600
21
21.427900
0
LINE
8
Layer 1
10
28.958100
20
25.379200
11
25.007600
21
25.379200
0
LINE
8
Layer 1
10
45.087100
20
25.379200
11
41.136600
21
25.379200
0
LINE
8
Layer 1
10
18.205400
20
21.427900
11
18.205400
21
25.379200
0
LINE
8
Layer 1
10
45.087100
20
21.427900
11
45.087100
21
25.379200
0
LINE
8
Layer 1
10
39.710800
20
25.379200
11
35.760200
21
25.379200
0
LINE
8
Layer 1
10
50.463400
20
25.379200
11
46.512900
21
25.379200
0
LINE
8
Layer 1
10
50.463400
20
21.427900
11
50.463400
21
25.379200
0
LINE
8
Layer 1
10
35.760200
20
25.379200
11
35.760200
21
21.427900
0
LINE
8
Layer 1
10
28.958100
20
21.427900
11
28.958100
21
25.379200
0
LINE
8
Layer 1
10
25.007600
20
21.427900
11
28.958100
21
21.427900
0
LINE
8
Layer 1
10
25.007600
20
25.379200
11
25.007600
21
21.427900
0
LINE
8
Layer 1
10
23.581800
20
25.379200
11
19.631300
21
25.379200
0
LINE
8
Layer 1
10
46.512900
20
25.379200
11
46.512900
21
21.427900
0
LINE
8
Layer 1
10
19.631300
20
25.379200
11
19.631300
21
21.427900
0
LINE
8
Layer 1
10
23.581800
20
21.427900
11
23.581800
21
25.379200
0
LINE
8
Layer 1
10
19.631300
20
21.427900
11
23.581800
21
21.427900
0
LINE
8
Layer 1
10
39.710800
20
21.427900
11
39.710800
21
25.379200
0
LINE
8
Layer 1
10
34.334400
20
21.427900
11
34.334400
21
25.379200
0
LINE
8
Layer 1
10
46.512900
20
21.427900
11
50.463400
21
21.427900
0
LINE
8
Layer 1
10
35.760200
20
21.427900
11
39.710800
21
21.427900
0
LINE
8
Layer 1
10
30.383900
20
21.427900
11
34.334400
21
21.427900
0
LINE
8
Layer 1
10
14.254900
20
25.379200
11
14.254900
21
21.427900
0
LINE
8
Layer 1
10
30.383900
20
37.556900
11
34.334400
21
37.556900
0
LINE
8
Layer 1
10
34.334400
20
41.508200
11
30.383900
21
41.508200
0
LINE
8
Layer 1
10
46.512900
20
46.883800
11
46.512900
21
42.932500
0
LINE
8
Layer 1
10
41.136600
20
37.556900
11
45.087100
21
37.556900
0
LINE
8
Layer 1
10
46.512900
20
37.556900
11
50.463400
21
37.556900
0
LINE
8
Layer 1
10
35.760200
20
46.883800
11
35.760200
21
42.932500
0
LINE
8
Layer 1
10
14.254900
20
26.804300
11
18.205400
21
26.804300
0
LINE
8
Layer 1
10
18.205400
20
30.755500
11
14.254900
21
30.755500
0
LINE
8
Layer 1
10
45.087100
20
37.556900
11
45.087100
21
41.508200
0
LINE
8
Layer 1
10
41.136600
20
26.804300
11
45.087100
21
26.804300
0
LINE
8
Layer 1
10
34.334400
20
30.755500
11
30.383900
21
30.755500
0
LINE
8
Layer 1
10
28.958100
20
32.180600
11
28.958100
21
36.131800
0
LINE
8
Layer 1
10
30.383900
20
41.508200
11
30.383900
21
37.556900
0
LINE
8
Layer 1
10
46.512900
20
41.508200
11
46.512900
21
37.556900
0
LINE
8
Layer 1
10
50.463400
20
37.556900
11
50.463400
21
41.508200
0
LINE
8
Layer 1
10
23.581800
20
36.131800
11
19.631300
21
36.131800
0
LINE
8
Layer 1
10
12.815500
20
50.109600
11
14.745960
21
50.106721
0
LINE
8
Layer 1
10
39.710800
20
46.883800
11
35.760200
21
46.883800
0
LINE
8
Layer 1
10
52.393200
20
49.520300
11
52.393200
21
18.681000
0
LINE
8
Layer 1
10
52.393200
20
49.520400
11
52.220639
21
49.937178
0
LINE
8
Layer 1
10
52.220639
20
49.937178
11
51.803954
21
50.109962
0
LINE
8
Layer 1
10
51.803200
20
50.109600
11
14.746000
21
50.106721
0
LINE
8
Layer 1
10
23.581800
20
42.932500
11
23.581800
21
46.883800
0
LINE
8
Layer 1
10
12.225500
20
49.520300
11
12.225500
21
33.888100
0
LINE
8
Layer 1
10
12.815500
20
50.109900
11
12.398815
21
49.937106
0
LINE
8
Layer 1
10
12.398815
20
49.937106
11
12.226254
21
49.520324
0
LINE
8
Layer 1
10
34.334400
20
32.180600
11
34.334400
21
36.131800
0
LINE
8
Layer 1
10
28.958100
20
41.508200
11
25.007600
21
41.508200
0
LINE
8
Layer 1
10
28.958100
20
37.556900
11
28.958100
21
41.508200
0
LINE
8
Layer 1
10
45.087100
20
42.932500
11
45.087100
21
46.883800
0
LINE
8
Layer 1
10
41.136600
20
46.883800
11
41.136600
21
42.932500
0
LINE
8
Layer 1
10
30.383900
20
30.755500
11
30.383900
21
26.804300
0
LINE
8
Layer 1
10
28.958100
20
42.932500
11
28.958100
21
46.883800
0
LINE
8
Layer 1
10
41.136600
20
30.755500
11
41.136600
21
26.804300
0
LINE
8
Layer 1
10
25.007600
20
46.883800
11
25.007600
21
42.932500
0
LINE
8
Layer 1
10
28.958100
20
30.755500
11
25.007600
21
30.755500
0
LINE
8
Layer 1
10
45.087100
20
30.755500
11
41.136600
21
30.755500
0
LINE
8
Layer 1
10
18.205400
20
26.804300
11
18.205400
21
30.755500
0
LINE
8
Layer 1
10
35.760200
20
42.932500
11
39.710800
21
42.932500
0
LINE
8
Layer 1
10
39.710800
20
32.180600
11
39.710800
21
36.131800
0
LINE
8
Layer 1
10
45.087100
20
26.804300
11
45.087100
21
30.755500
0
LINE
8
Layer 1
10
23.581800
20
32.180600
11
23.581800
21
36.131800
0
LINE
8
Layer 1
10
25.007600
20
36.131800
11
25.007600
21
32.180600
0
LINE
8
Layer 1
10
34.334400
20
42.932500
11
34.334400
21
46.883800
0
LINE
8
Layer 1
10
39.710800
20
30.755500
11
35.760200
21
30.755500
0
LINE
8
Layer 1
10
30.383900
20
36.131800
11
30.383900
21
32.180600
0
LINE
8
Layer 1
10
19.631300
20
37.556900
11
23.581800
21
37.556900
0
LINE
8
Layer 1
10
19.631300
20
41.508200
11
19.631300
21
37.556900
0
LINE
8
Layer 1
10
23.581800
20
41.508200
11
19.631300
21
41.508200
0
LINE
8
Layer 1
10
23.581800
20
37.556900
11
23.581800
21
41.508200
0
LINE
8
Layer 1
10
30.383900
20
46.883800
11
30.383900
21
42.932500
0
LINE
8
Layer 1
10
25.007600
20
32.180600
11
28.958100
21
32.180600
0
LINE
8
Layer 1
10
46.512900
20
36.131800
11
46.512900
21
32.180600
0
LINE
8
Layer 1
10
19.631300
20
36.131800
11
19.631300
21
32.180600
0
LINE
8
Layer 1
10
50.463400
20
41.508200
11
46.512900
21
41.508200
0
LINE
8
Layer 1
10
34.334400
20
37.556900
11
34.334400
21
41.508200
0
LINE
8
Layer 1
10
25.007600
20
37.556900
11
28.958100
21
37.556900
0
LINE
8
Layer 1
10
45.087100
20
32.180600
11
45.087100
21
36.131800
0
LINE
8
Layer 1
10
50.463400
20
30.755500
11
46.512900
21
30.755500
0
LINE
8
Layer 1
10
50.463400
20
36.131800
11
46.512900
21
36.131800
0
LINE
8
Layer 1
10
50.463400
20
26.804300
11
50.463400
21
30.755500
0
LINE
8
Layer 1
10
25.007600
20
41.508200
11
25.007600
21
37.556900
0
LINE
8
Layer 1
10
23.581800
20
46.883800
11
19.631300
21
46.883800
0
LINE
8
Layer 1
10
30.383900
20
32.180600
11
34.334400
21
32.180600
0
LINE
8
Layer 1
10
35.760200
20
30.755500
11
35.760200
21
26.804300
0
LINE
8
Layer 1
10
19.631300
20
46.883800
11
19.631300
21
42.932500
0
LINE
8
Layer 1
10
34.334400
20
36.131800
11
30.383900
21
36.131800
0
LINE
8
Layer 1
10
28.958100
20
36.131800
11
25.007600
21
36.131800
0
LINE
8
Layer 1
10
45.087100
20
46.883800
11
41.136600
21
46.883800
0
LINE
8
Layer 1
10
28.958100
20
26.804300
11
28.958100
21
30.755500
0
LINE
8
Layer 1
10
25.007600
20
26.804300
11
28.958100
21
26.804300
0
LINE
8
Layer 1
10
46.512900
20
42.932500
11
50.463400
21
42.932500
0
LINE
8
Layer 1
10
39.710800
20
42.932500
11
39.710800
21
46.883800
0
LINE
8
Layer 1
10
25.007600
20
30.755500
11
25.007600
21
26.804300
0
LINE
8
Layer 1
10
23.581800
20
30.755500
11
19.631300
21
30.755500
0
LINE
8
Layer 1
10
46.512900
20
32.180600
11
50.463400
21
32.180600
0
LINE
8
Layer 1
10
46.512900
20
30.755500
11
46.512900
21
26.804300
0
LINE
8
Layer 1
10
19.631300
20
30.755500
11
19.631300
21
26.804300
0
LINE
8
Layer 1
10
23.581800
20
26.804300
11
23.581800
21
30.755500
0
LINE
8
Layer 1
10
19.631300
20
26.804300
11
23.581800
21
26.804300
0
LINE
8
Layer 1
10
41.136600
20
32.180600
11
45.087100
21
32.180600
0
LINE
8
Layer 1
10
39.710800
20
26.804300
11
39.710800
21
30.755500
0
LINE
8
Layer 1
10
45.087100
20
36.131800
11
41.136600
21
36.131800
0
LINE
8
Layer 1
10
41.136600
20
36.131800
11
41.136600
21
32.180600
0
LINE
8
Layer 1
10
50.463400
20
32.180600
11
50.463400
21
36.131800
0
LINE
8
Layer 1
10
35.760200
20
41.508200
11
35.760200
21
37.556900
0
LINE
8
Layer 1
10
50.463400
20
42.932500
11
50.463400
21
46.883800
0
LINE
8
Layer 1
10
41.136600
20
42.932500
11
45.087100
21
42.932500
0
LINE
8
Layer 1
10
50.463400
20
46.883800
11
46.512900
21
46.883800
0
LINE
8
Layer 1
10
35.760200
20
37.556900
11
39.710800
21
37.556900
0
LINE
8
Layer 1
10
39.710800
20
41.508200
11
35.760200
21
41.508200
0
LINE
8
Layer 1
10
19.631300
20
32.180600
11
23.581800
21
32.180600
0
LINE
8
Layer 1
10
35.760200
20
32.180600
11
39.710800
21
32.180600
0
LINE
8
Layer 1
10
12.225500
20
33.888100
11
16.286500
21
33.888100
0
LINE
8
Layer 1
10
16.286500
20
33.888100
11
16.286500
21
31.562700
0
LINE
8
Layer 1
10
16.286500
20
31.562700
11
12.225500
21
31.562700
0
LINE
8
Layer 1
10
12.225500
20
18.681000
11
12.225500
21
31.562700
0
LINE
8
Layer 1
10
12.642700
20
41.310300
11
13.148100
21
41.310300
0
LINE
8
Layer 1
10
13.148100
20
41.310300
11
13.148100
21
40.221400
0
LINE
8
Layer 1
10
13.148100
20
40.221400
11
12.642700
21
40.221400
0
LINE
8
Layer 1
10
12.642700
20
40.221400
11
12.642700
21
41.310300
0
LINE
8
Layer 1
10
34.334400
20
26.804300
11
34.334400
21
30.755500
0
LINE
8
Layer 1
10
39.710800
20
37.556900
11
39.710800
21
41.508200
0
LINE
8
Layer 1
10
41.136600
20
41.508200
11
41.136600
21
37.556900
0
LINE
8
Layer 1
10
45.087100
20
41.508200
11
41.136600
21
41.508200
0
LINE
8
Layer 1
10
28.958100
20
46.883800
11
25.007600
21
46.883800
0
LINE
8
Layer 1
10
39.710800
20
36.131800
11
35.760200
21
36.131800
0
LINE
8
Layer 1
10
46.512900
20
26.804300
11
50.463400
21
26.804300
0
LINE
8
Layer 1
10
35.760200
20
26.804300
11
39.710800
21
26.804300
0
LINE
8
Layer 1
10
30.383900
20
26.804300
11
34.334400
21
26.804300
0
LINE
8
Layer 1
10
14.254900
20
30.755500
11
14.254900
21
26.804300
0
LINE
8
Layer 1
10
35.760200
20
36.131800
11
35.760200
21
32.180600
0
LINE
8
Layer 1
10
34.334400
20
46.883800
11
30.383900
21
46.883800
0
LINE
8
Layer 1
10
30.383900
20
42.932500
11
34.334400
21
42.932500
0
LINE
8
Layer 1
10
19.631300
20
42.932500
11
23.581800
21
42.932500
0
LINE
8
Layer 1
10
25.007600
20
42.932500
11
28.958100
21
42.932500
0
LINE
8
Layer 1
10
-3393.320000
20
13088.000000
11
-3393.473542
21
13094.170936
0
LINE
8
Layer 1
10
-3393.473542
20
13094.170936
11
-3393.930157
21
13100.299957
0
LINE
8
Layer 1
10
-3393.930157
20
13100.299957
11
-3394.685619
21
13106.376863
0
LINE
8
Layer 1
10
-3394.685619
20
13106.376863
11
-3395.735702
21
13112.391455
0
LINE
8
Layer 1
10
-3395.735702
20
13112.391455
11
-3397.076179
21
13118.333532
0
LINE
8
Layer 1
10
-3397.076179
20
13118.333532
11
-3398.702823
21
13124.192893
0
LINE
8
Layer 1
10
-3398.702823
20
13124.192893
11
-3400.611409
21
13129.959338
0
LINE
8
Layer 1
10
-3400.611409
20
13129.959338
11
-3402.797710
21
13135.622668
0
LINE
8
Layer 1
10
-3402.797710
20
13135.622668
11
-3405.257500
21
13141.172681
0
LINE
8
Layer 1
10
-3405.257500
20
13141.172681
11
-3407.986552
21
13146.599178
0
LINE
8
Layer 1
10
-3407.986552
20
13146.599178
11
-3410.980641
21
13151.891958
0
LINE
8
Layer 1
10
-3410.980641
20
13151.891958
11
-3414.235539
21
13157.040820
0
LINE
8
Layer 1
10
-3414.235539
20
13157.040820
11
-3417.747021
21
13162.035566
0
LINE
8
Layer 1
10
-3417.747021
20
13162.035566
11
-3421.510860
21
13166.865994
0
LINE
8
Layer 1
10
-3421.510860
20
13166.865994
11
-3425.522829
21
13171.521904
0
LINE
8
Layer 1
10
-3425.522829
20
13171.521904
11
-3429.778703
21
13175.993096
0
LINE
8
Layer 1
10
-3429.778703
20
13175.993096
11
-3434.250852
21
13180.247964
0
LINE
8
Layer 1
10
-3434.250852
20
13180.247964
11
-3438.907665
21
13184.258886
0
LINE
8
Layer 1
10
-3438.907665
20
13184.258886
11
-3443.738940
21
13188.021638
0
LINE
8
Layer 1
10
-3443.738940
20
13188.021638
11
-3448.734475
21
13191.531995
0
LINE
8
Layer 1
10
-3448.734475
20
13191.531995
11
-3453.884070
21
13194.785735
0
LINE
8
Layer 1
10
-3453.884070
20
13194.785735
11
-3459.177524
21
13197.778633
0
LINE
8
Layer 1
10
-3459.177524
20
13197.778633
11
-3464.604635
21
13200.506464
0
LINE
8
Layer 1
10
-3464.604635
20
13200.506464
11
-3470.155201
21
13202.965005
0
LINE
8
Layer 1
10
-3470.155201
20
13202.965005
11
-3475.819022
21
13205.150032
0
LINE
8
Layer 1
10
-3475.819022
20
13205.150032
11
-3481.585897
21
13207.057320
0
LINE
8
Layer 1
10
-3481.585897
20
13207.057320
11
-3487.445624
21
13208.682646
0
LINE
8
Layer 1
10
-3487.445624
20
13208.682646
11
-3493.388002
21
13210.021786
0
LINE
8
Layer 1
10
-3493.388002
20
13210.021786
11
-3499.402830
21
13211.070515
0
LINE
8
Layer 1
10
-3499.402830
20
13211.070515
11
-3505.479906
21
13211.824610
0
LINE
8
Layer 1
10
-3505.479906
20
13211.824610
11
-3511.609030
21
13212.279846
0
LINE
8
Layer 1
10
-3511.609030
20
13212.279846
11
-3517.780000
21
13212.432000
0
LINE
8
Layer 1
10
-14184.400000
20
13212.400000
11
-14190.570970
21
13212.247846
0
LINE
8
Layer 1
10
-14190.570970
20
13212.247846
11
-14196.700094
21
13211.792610
0
LINE
8
Layer 1
10
-14196.700094
20
13211.792610
11
-14202.777170
21
13211.038515
0
LINE
8
Layer 1
10
-14202.777170
20
13211.038515
11
-14208.791998
21
13209.989786
0
LINE
8
Layer 1
10
-14208.791998
20
13209.989786
11
-14214.734376
21
13208.650646
0
LINE
8
Layer 1
10
-14214.734376
20
13208.650646
11
-14220.594103
21
13207.025320
0
LINE
8
Layer 1
10
-14220.594103
20
13207.025320
11
-14226.360978
21
13205.118032
0
LINE
8
Layer 1
10
-14226.360978
20
13205.118032
11
-14232.024799
21
13202.933005
0
LINE
8
Layer 1
10
-14232.024799
20
13202.933005
11
-14237.575365
21
13200.474464
0
LINE
8
Layer 1
10
-14237.575365
20
13200.474464
11
-14243.002476
21
13197.746633
0
LINE
8
Layer 1
10
-14243.002476
20
13197.746633
11
-14248.295930
21
13194.753735
0
LINE
8
Layer 1
10
-14248.295930
20
13194.753735
11
-14253.445525
21
13191.499995
0
LINE
8
Layer 1
10
-14253.445525
20
13191.499995
11
-14258.441060
21
13187.989638
0
LINE
8
Layer 1
10
-14258.441060
20
13187.989638
11
-14263.272335
21
13184.226886
0
LINE
8
Layer 1
10
-14263.272335
20
13184.226886
11
-14267.929148
21
13180.215964
0
LINE
8
Layer 1
10
-14267.929148
20
13180.215964
11
-14272.401297
21
13175.961096
0
LINE
8
Layer 1
10
-14272.401297
20
13175.961096
11
-14276.657171
21
13171.489904
0
LINE
8
Layer 1
10
-14276.657171
20
13171.489904
11
-14280.669140
21
13166.833994
0
LINE
8
Layer 1
10
-14280.669140
20
13166.833994
11
-14284.432979
21
13162.003566
0
LINE
8
Layer 1
10
-14284.432979
20
13162.003566
11
-14287.944461
21
13157.008820
0
LINE
8
Layer 1
10
-14287.944461
20
13157.008820
11
-14291.199359
21
13151.859958
0
LINE
8
Layer 1
10
-14291.199359
20
13151.859958
11
-14294.193448
21
13146.567178
0
LINE
8
Layer 1
10
-14294.193448
20
13146.567178
11
-14296.922500
21
13141.140681
0
LINE
8
Layer 1
10
-14296.922500
20
13141.140681
11
-14299.382290
21
13135.590668
0
LINE
8
Layer 1
10
-14299.382290
20
13135.590668
11
-14301.568591
21
13129.927338
0
LINE
8
Layer 1
10
-14301.568591
20
13129.927338
11
-14303.477177
21
13124.160893
0
LINE
8
Layer 1
10
-14303.477177
20
13124.160893
11
-14305.103821
21
13118.301532
0
LINE
8
Layer 1
10
-14305.103821
20
13118.301532
11
-14306.444298
21
13112.359455
0
LINE
8
Layer 1
10
-14306.444298
20
13112.359455
11
-14307.494381
21
13106.344863
0
LINE
8
Layer 1
10
-14307.494381
20
13106.344863
11
-14308.249843
21
13100.267957
0
LINE
8
Layer 1
10
-14308.249843
20
13100.267957
11
-14308.706458
21
13094.138936
0
LINE
8
Layer 1
10
-14308.706458
20
13094.138936
11
-14308.860000
21
13087.968000
0
LINE
8
Layer 1
10
-14308.700000
20
10735.700000
11
-14308.700000
21
13087.800000
0
LINE
8
Layer 1
10
-3517.780000
20
10611.300000
11
-3511.608128
21
10611.452198
0
LINE
8
Layer 1
10
-3511.608128
20
10611.452198
11
-3505.478121
21
10611.907567
0
LINE
8
Layer 1
10
-3505.478121
20
10611.907567
11
-3499.400184
21
10612.661879
0
LINE
8
Layer 1
10
-3499.400184
20
10612.661879
11
-3493.384522
21
10613.710909
0
LINE
8
Layer 1
10
-3493.384522
20
10613.710909
11
-3487.441340
21
10615.050429
0
LINE
8
Layer 1
10
-3487.441340
20
10615.050429
11
-3481.580845
21
10616.676215
0
LINE
8
Layer 1
10
-3481.580845
20
10616.676215
11
-3475.813241
21
10618.584038
0
LINE
8
Layer 1
10
-3475.813241
20
10618.584038
11
-3470.148734
21
10620.769673
0
LINE
8
Layer 1
10
-3470.148734
20
10620.769673
11
-3464.597528
21
10623.228893
0
LINE
8
Layer 1
10
-3464.597528
20
10623.228893
11
-3459.169831
21
10625.957473
0
LINE
8
Layer 1
10
-3459.169831
20
10625.957473
11
-3453.875846
21
10628.951184
0
LINE
8
Layer 1
10
-3453.875846
20
10628.951184
11
-3448.725779
21
10632.205802
0
LINE
8
Layer 1
10
-3448.725779
20
10632.205802
11
-3443.729836
21
10635.717099
0
LINE
8
Layer 1
10
-3443.729836
20
10635.717099
11
-3438.898222
21
10639.480849
0
LINE
8
Layer 1
10
-3438.898222
20
10639.480849
11
-3434.241143
21
10643.492826
0
LINE
8
Layer 1
10
-3434.241143
20
10643.492826
11
-3429.768803
21
10647.748803
0
LINE
8
Layer 1
10
-3429.768803
20
10647.748803
11
-3425.512826
21
10652.221143
0
LINE
8
Layer 1
10
-3425.512826
20
10652.221143
11
-3421.500849
21
10656.878222
0
LINE
8
Layer 1
10
-3421.500849
20
10656.878222
11
-3417.737099
21
10661.709836
0
LINE
8
Layer 1
10
-3417.737099
20
10661.709836
11
-3414.225802
21
10666.705779
0
LINE
8
Layer 1
10
-3414.225802
20
10666.705779
11
-3410.971184
21
10671.855846
0
LINE
8
Layer 1
10
-3410.971184
20
10671.855846
11
-3407.977473
21
10677.149831
0
LINE
8
Layer 1
10
-3407.977473
20
10677.149831
11
-3405.248893
21
10682.577528
0
LINE
8
Layer 1
10
-3405.248893
20
10682.577528
11
-3402.789673
21
10688.128734
0
LINE
8
Layer 1
10
-3402.789673
20
10688.128734
11
-3400.604038
21
10693.793241
0
LINE
8
Layer 1
10
-3400.604038
20
10693.793241
11
-3398.696215
21
10699.560845
0
LINE
8
Layer 1
10
-3398.696215
20
10699.560845
11
-3397.070429
21
10705.421340
0
LINE
8
Layer 1
10
-3397.070429
20
10705.421340
11
-3395.730909
21
10711.364522
0
LINE
8
Layer 1
10
-3395.730909
20
10711.364522
11
-3394.681879
21
10717.380184
0
LINE
8
Layer 1
10
-3394.681879
20
10717.380184
11
-3393.927567
21
10723.458121
0
LINE
8
Layer 1
10
-3393.927567
20
10723.458121
11
-3393.472198
21
10729.588128
0
LINE
8
Layer 1
10
-3393.472198
20
10729.588128
11
-3393.320000
21
10735.760000
0
LINE
8
Layer 1
10
-14184.200000
20
10611.300000
11
-3517.620000
21
10611.300000
0
LINE
8
Layer 1
10
-3517.620000
20
13212.200000
11
-14184.200000
21
13212.200000
0
LINE
8
Layer 1
10
-14308.900000
20
10735.800000
11
-14308.747802
21
10729.628128
0
LINE
8
Layer 1
10
-14308.747802
20
10729.628128
11
-14308.292433
21
10723.498121
0
LINE
8
Layer 1
10
-14308.292433
20
10723.498121
11
-14307.538121
21
10717.420184
0
LINE
8
Layer 1
10
-14307.538121
20
10717.420184
11
-14306.489091
21
10711.404522
0
LINE
8
Layer 1
10
-14306.489091
20
10711.404522
11
-14305.149571
21
10705.461340
0
LINE
8
Layer 1
10
-14305.149571
20
10705.461340
11
-14303.523785
21
10699.600845
0
LINE
8
Layer 1
10
-14303.523785
20
10699.600845
11
-14301.615962
21
10693.833241
0
LINE
8
Layer 1
10
-14301.615962
20
10693.833241
11
-14299.430327
21
10688.168734
0
LINE
8
Layer 1
10
-14299.430327
20
10688.168734
11
-14296.971107
21
10682.617528
0
LINE
8
Layer 1
10
-14296.971107
20
10682.617528
11
-14294.242527
21
10677.189831
0
LINE
8
Layer 1
10
-14294.242527
20
10677.189831
11
-14291.248816
21
10671.895846
0
LINE
8
Layer 1
10
-14291.248816
20
10671.895846
11
-14287.994198
21
10666.745779
0
LINE
8
Layer 1
10
-14287.994198
20
10666.745779
11
-14284.482901
21
10661.749836
0
LINE
8
Layer 1
10
-14284.482901
20
10661.749836
11
-14280.719151
21
10656.918222
0
LINE
8
Layer 1
10
-14280.719151
20
10656.918222
11
-14276.707174
21
10652.261143
0
LINE
8
Layer 1
10
-14276.707174
20
10652.261143
11
-14272.451197
21
10647.788803
0
LINE
8
Layer 1
10
-14272.451197
20
10647.788803
11
-14267.978857
21
10643.532826
0
LINE
8
Layer 1
10
-14267.978857
20
10643.532826
11
-14263.321778
21
10639.520849
0
LINE
8
Layer 1
10
-14263.321778
20
10639.520849
11
-14258.490164
21
10635.757099
0
LINE
8
Layer 1
10
-14258.490164
20
10635.757099
11
-14253.494221
21
10632.245802
0
LINE
8
Layer 1
10
-14253.494221
20
10632.245802
11
-14248.344154
21
10628.991184
0
LINE
8
Layer 1
10
-14248.344154
20
10628.991184
11
-14243.050169
21
10625.997473
0
LINE
8
Layer 1
10
-14243.050169
20
10625.997473
11
-14237.622472
21
10623.268893
0
LINE
8
Layer 1
10
-14237.622472
20
10623.268893
11
-14232.071266
21
10620.809673
0
LINE
8
Layer 1
10
-14232.071266
20
10620.809673
11
-14226.406759
21
10618.624038
0
LINE
8
Layer 1
10
-14226.406759
20
10618.624038
11
-14220.639155
21
10616.716215
0
LINE
8
Layer 1
10
-14220.639155
20
10616.716215
11
-14214.778660
21
10615.090429
0
LINE
8
Layer 1
10
-14214.778660
20
10615.090429
11
-14208.835478
21
10613.750909
0
LINE
8
Layer 1
10
-14208.835478
20
10613.750909
11
-14202.819816
21
10612.701879
0
LINE
8
Layer 1
10
-14202.819816
20
10612.701879
11
-14196.741879
21
10611.947567
0
LINE
8
Layer 1
10
-14196.741879
20
10611.947567
11
-14190.611872
21
10611.492198
0
LINE
8
Layer 1
10
-14190.611872
20
10611.492198
11
-14184.440000
21
10611.340000
0
LINE
8
Layer 1
10
-3393.160000
20
10735.700000
11
-3393.160000
21
13087.800000
0
LINE
8
Layer 1
10
-6232.030000
20
12449.100000
11
-6232.030000
21
11052.400000
0
LINE
8
Layer 1
10
-6232.030000
20
11052.400000
11
-7717.640000
21
11052.400000
0
LINE
8
Layer 1
10
-7717.640000
20
12449.100000
11
-6232.030000
21
12449.100000
0
LINE
8
Layer 1
10
-7717.640000
20
11052.400000
11
-7717.640000
21
12449.100000
0
LINE
8
Layer 1
10
-4053.270000
20
12449.100000
11
-4053.270000
21
11052.400000
0
LINE
8
Layer 1
10
-5538.610000
20
12449.100000
11
-4053.270000
21
12449.100000
0
LINE
8
Layer 1
10
-5538.610000
20
11052.400000
11
-5538.610000
21
12449.100000
0
LINE
8
Layer 1
10
-4053.270000
20
11052.400000
11
-5538.610000
21
11052.400000
0
LINE
8
Layer 1
10
-3393.320000
20
13088.000000
11
-3393.473542
21
13094.170936
0
LINE
8
Layer 1
10
-3393.473542
20
13094.170936
11
-3393.930157
21
13100.299957
0
LINE
8
Layer 1
10
-3393.930157
20
13100.299957
11
-3394.685619
21
13106.376863
0
LINE
8
Layer 1
10
-3394.685619
20
13106.376863
11
-3395.735702
21
13112.391455
0
LINE
8
Layer 1
10
-3395.735702
20
13112.391455
11
-3397.076179
21
13118.333532
0
LINE
8
Layer 1
10
-3397.076179
20
13118.333532
11
-3398.702823
21
13124.192893
0
LINE
8
Layer 1
10
-3398.702823
20
13124.192893
11
-3400.611409
21
13129.959338
0
LINE
8
Layer 1
10
-3400.611409
20
13129.959338
11
-3402.797710
21
13135.622668
0
LINE
8
Layer 1
10
-3402.797710
20
13135.622668
11
-3405.257500
21
13141.172681
0
LINE
8
Layer 1
10
-3405.257500
20
13141.172681
11
-3407.986552
21
13146.599178
0
LINE
8
Layer 1
10
-3407.986552
20
13146.599178
11
-3410.980641
21
13151.891958
0
LINE
8
Layer 1
10
-3410.980641
20
13151.891958
11
-3414.235539
21
13157.040820
0
LINE
8
Layer 1
10
-3414.235539
20
13157.040820
11
-3417.747021
21
13162.035566
0
LINE
8
Layer 1
10
-3417.747021
20
13162.035566
11
-3421.510860
21
13166.865994
0
LINE
8
Layer 1
10
-3421.510860
20
13166.865994
11
-3425.522829
21
13171.521904
0
LINE
8
Layer 1
10
-3425.522829
20
13171.521904
11
-3429.778703
21
13175.993096
0
LINE
8
Layer 1
10
-3429.778703
20
13175.993096
11
-3434.250852
21
13180.247964
0
LINE
8
Layer 1
10
-3434.250852
20
13180.247964
11
-3438.907665
21
13184.258886
0
LINE
8
Layer 1
10
-3438.907665
20
13184.258886
11
-3443.738940
21
13188.021638
0
LINE
8
Layer 1
10
-3443.738940
20
13188.021638
11
-3448.734475
21
13191.531995
0
LINE
8
Layer 1
10
-3448.734475
20
13191.531995
11
-3453.884070
21
13194.785735
0
LINE
8
Layer 1
10
-3453.884070
20
13194.785735
11
-3459.177524
21
13197.778633
0
LINE
8
Layer 1
10
-3459.177524
20
13197.778633
11
-3464.604635
21
13200.506464
0
LINE
8
Layer 1
10
-3464.604635
20
13200.506464
11
-3470.155201
21
13202.965005
0
LINE
8
Layer 1
10
-3470.155201
20
13202.965005
11
-3475.819022
21
13205.150032
0
LINE
8
Layer 1
10
-3475.819022
20
13205.150032
11
-3481.585897
21
13207.057320
0
LINE
8
Layer 1
10
-3481.585897
20
13207.057320
11
-3487.445624
21
13208.682646
0
LINE
8
Layer 1
10
-3487.445624
20
13208.682646
11
-3493.388002
21
13210.021786
0
LINE
8
Layer 1
10
-3493.388002
20
13210.021786
11
-3499.402830
21
13211.070515
0
LINE
8
Layer 1
10
-3499.402830
20
13211.070515
11
-3505.479906
21
13211.824610
0
LINE
8
Layer 1
10
-3505.479906
20
13211.824610
11
-3511.609030
21
13212.279846
0
LINE
8
Layer 1
10
-3511.609030
20
13212.279846
11
-3517.780000
21
13212.432000
0
LINE
8
Layer 1
10
-14184.400000
20
13212.400000
11
-14190.570970
21
13212.247846
0
LINE
8
Layer 1
10
-14190.570970
20
13212.247846
11
-14196.700094
21
13211.792610
0
LINE
8
Layer 1
10
-14196.700094
20
13211.792610
11
-14202.777170
21
13211.038515
0
LINE
8
Layer 1
10
-14202.777170
20
13211.038515
11
-14208.791998
21
13209.989786
0
LINE
8
Layer 1
10
-14208.791998
20
13209.989786
11
-14214.734376
21
13208.650646
0
LINE
8
Layer 1
10
-14214.734376
20
13208.650646
11
-14220.594103
21
13207.025320
0
LINE
8
Layer 1
10
-14220.594103
20
13207.025320
11
-14226.360978
21
13205.118032
0
LINE
8
Layer 1
10
-14226.360978
20
13205.118032
11
-14232.024799
21
13202.933005
0
LINE
8
Layer 1
10
-14232.024799
20
13202.933005
11
-14237.575365
21
13200.474464
0
LINE
8
Layer 1
10
-14237.575365
20
13200.474464
11
-14243.002476
21
13197.746633
0
LINE
8
Layer 1
10
-14243.002476
20
13197.746633
11
-14248.295930
21
13194.753735
0
LINE
8
Layer 1
10
-14248.295930
20
13194.753735
11
-14253.445525
21
13191.499995
0
LINE
8
Layer 1
10
-14253.445525
20
13191.499995
11
-14258.441060
21
13187.989638
0
LINE
8
Layer 1
10
-14258.441060
20
13187.989638
11
-14263.272335
21
13184.226886
0
LINE
8
Layer 1
10
-14263.272335
20
13184.226886
11
-14267.929148
21
13180.215964
0
LINE
8
Layer 1
10
-14267.929148
20
13180.215964
11
-14272.401297
21
13175.961096
0
LINE
8
Layer 1
10
-14272.401297
20
13175.961096
11
-14276.657171
21
13171.489904
0
LINE
8
Layer 1
10
-14276.657171
20
13171.489904
11
-14280.669140
21
13166.833994
0
LINE
8
Layer 1
10
-14280.669140
20
13166.833994
11
-14284.432979
21
13162.003566
0
LINE
8
Layer 1
10
-14284.432979
20
13162.003566
11
-14287.944461
21
13157.008820
0
LINE
8
Layer 1
10
-14287.944461
20
13157.008820
11
-14291.199359
21
13151.859958
0
LINE
8
Layer 1
10
-14291.199359
20
13151.859958
11
-14294.193448
21
13146.567178
0
LINE
8
Layer 1
10
-14294.193448
20
13146.567178
11
-14296.922500
21
13141.140681
0
LINE
8
Layer 1
10
-14296.922500
20
13141.140681
11
-14299.382290
21
13135.590668
0
LINE
8
Layer 1
10
-14299.382290
20
13135.590668
11
-14301.568591
21
13129.927338
0
LINE
8
Layer 1
10
-14301.568591
20
13129.927338
11
-14303.477177
21
13124.160893
0
LINE
8
Layer 1
10
-14303.477177
20
13124.160893
11
-14305.103821
21
13118.301532
0
LINE
8
Layer 1
10
-14305.103821
20
13118.301532
11
-14306.444298
21
13112.359455
0
LINE
8
Layer 1
10
-14306.444298
20
13112.359455
11
-14307.494381
21
13106.344863
0
LINE
8
Layer 1
10
-14307.494381
20
13106.344863
11
-14308.249843
21
13100.267957
0
LINE
8
Layer 1
10
-14308.249843
20
13100.267957
11
-14308.706458
21
13094.138936
0
LINE
8
Layer 1
10
-14308.706458
20
13094.138936
11
-14308.860000
21
13087.968000
0
LINE
8
Layer 1
10
-14308.700000
20
10735.700000
11
-14308.700000
21
13087.800000
0
LINE
8
Layer 1
10
-3517.780000
20
10611.300000
11
-3511.608128
21
10611.452198
0
LINE
8
Layer 1
10
-3511.608128
20
10611.452198
11
-3505.478121
21
10611.907567
0
LINE
8
Layer 1
10
-3505.478121
20
10611.907567
11
-3499.400184
21
10612.661879
0
LINE
8
Layer 1
10
-3499.400184
20
10612.661879
11
-3493.384522
21
10613.710909
0
LINE
8
Layer 1
10
-3493.384522
20
10613.710909
11
-3487.441340
21
10615.050429
0
LINE
8
Layer 1
10
-3487.441340
20
10615.050429
11
-3481.580845
21
10616.676215
0
LINE
8
Layer 1
10
-3481.580845
20
10616.676215
11
-3475.813241
21
10618.584038
0
LINE
8
Layer 1
10
-3475.813241
20
10618.584038
11
-3470.148734
21
10620.769673
0
LINE
8
Layer 1
10
-3470.148734
20
10620.769673
11
-3464.597528
21
10623.228893
0
LINE
8
Layer 1
10
-3464.597528
20
10623.228893
11
-3459.169831
21
10625.957473
0
LINE
8
Layer 1
10
-3459.169831
20
10625.957473
11
-3453.875846
21
10628.951184
0
LINE
8
Layer 1
10
-3453.875846
20
10628.951184
11
-3448.725779
21
10632.205802
0
LINE
8
Layer 1
10
-3448.725779
20
10632.205802
11
-3443.729836
21
10635.717099
0
LINE
8
Layer 1
10
-3443.729836
20
10635.717099
11
-3438.898222
21
10639.480849
0
LINE
8
Layer 1
10
-3438.898222
20
10639.480849
11
-3434.241143
21
10643.492826
0
LINE
8
Layer 1
10
-3434.241143
20
10643.492826
11
-3429.768803
21
10647.748803
0
LINE
8
Layer 1
10
-3429.768803
20
10647.748803
11
-3425.512826
21
10652.221143
0
LINE
8
Layer 1
10
-3425.512826
20
10652.221143
11
-3421.500849
21
10656.878222
0
LINE
8
Layer 1
10
-3421.500849
20
10656.878222
11
-3417.737099
21
10661.709836
0
LINE
8
Layer 1
10
-3417.737099
20
10661.709836
11
-3414.225802
21
10666.705779
0
LINE
8
Layer 1
10
-3414.225802
20
10666.705779
11
-3410.971184
21
10671.855846
0
LINE
8
Layer 1
10
-3410.971184
20
10671.855846
11
-3407.977473
21
10677.149831
0
LINE
8
Layer 1
10
-3407.977473
20
10677.149831
11
-3405.248893
21
10682.577528
0
LINE
8
Layer 1
10
-3405.248893
20
10682.577528
11
-3402.789673
21
10688.128734
0
LINE
8
Layer 1
10
-3402.789673
20
10688.128734
11
-3400.604038
21
10693.793241
0
LINE
8
Layer 1
10
-3400.604038
20
10693.793241
11
-3398.696215
21
10699.560845
0
LINE
8
Layer 1
10
-3398.696215
20
10699.560845
11
-3397.070429
21
10705.421340
0
LINE
8
Layer 1
10
-3397.070429
20
10705.421340
11
-3395.730909
21
10711.364522
0
LINE
8
Layer 1
10
-3395.730909
20
10711.364522
11
-3394.681879
21
10717.380184
0
LINE
8
Layer 1
10
-3394.681879
20
10717.380184
11
-3393.927567
21
10723.458121
0
LINE
8
Layer 1
10
-3393.927567
20
10723.458121
11
-3393.472198
21
10729.588128
0
LINE
8
Layer 1
10
-3393.472198
20
10729.588128
11
-3393.320000
21
10735.760000
0
LINE
8
Layer 1
10
-14184.200000
20
10611.300000
11
-3517.620000
21
10611.300000
0
LINE
8
Layer 1
10
-3517.620000
20
13212.200000
11
-14184.200000
21
13212.200000
0
LINE
8
Layer 1
10
-14308.900000
20
10735.800000
11
-14308.747802
21
10729.628128
0
LINE
8
Layer 1
10
-14308.747802
20
10729.628128
11
-14308.292433
21
10723.498121
0
LINE
8
Layer 1
10
-14308.292433
20
10723.498121
11
-14307.538121
21
10717.420184
0
LINE
8
Layer 1
10
-14307.538121
20
10717.420184
11
-14306.489091
21
10711.404522
0
LINE
8
Layer 1
10
-14306.489091
20
10711.404522
11
-14305.149571
21
10705.461340
0
LINE
8
Layer 1
10
-14305.149571
20
10705.461340
11
-14303.523785
21
10699.600845
0
LINE
8
Layer 1
10
-14303.523785
20
10699.600845
11
-14301.615962
21
10693.833241
0
LINE
8
Layer 1
10
-14301.615962
20
10693.833241
11
-14299.430327
21
10688.168734
0
LINE
8
Layer 1
10
-14299.430327
20
10688.168734
11
-14296.971107
21
10682.617528
0
LINE
8
Layer 1
10
-14296.971107
20
10682.617528
11
-14294.242527
21
10677.189831
0
LINE
8
Layer 1
10
-14294.242527
20
10677.189831
11
-14291.248816
21
10671.895846
0
LINE
8
Layer 1
10
-14291.248816
20
10671.895846
11
-14287.994198
21
10666.745779
0
LINE
8
Layer 1
10
-14287.994198
20
10666.745779
11
-14284.482901
21
10661.749836
0
LINE
8
Layer 1
10
-14284.482901
20
10661.749836
11
-14280.719151
21
10656.918222
0
LINE
8
Layer 1
10
-14280.719151
20
10656.918222
11
-14276.707174
21
10652.261143
0
LINE
8
Layer 1
10
-14276.707174
20
10652.261143
11
-14272.451197
21
10647.788803
0
LINE
8
Layer 1
10
-14272.451197
20
10647.788803
11
-14267.978857
21
10643.532826
0
LINE
8
Layer 1
10
-14267.978857
20
10643.532826
11
-14263.321778
21
10639.520849
0
LINE
8
Layer 1
10
-14263.321778
20
10639.520849
11
-14258.490164
21
10635.757099
0
LINE
8
Layer 1
10
-14258.490164
20
10635.757099
11
-14253.494221
21
10632.245802
0
LINE
8
Layer 1
10
-14253.494221
20
10632.245802
11
-14248.344154
21
10628.991184
0
LINE
8
Layer 1
10
-14248.344154
20
10628.991184
11
-14243.050169
21
10625.997473
0
LINE
8
Layer 1
10
-14243.050169
20
10625.997473
11
-14237.622472
21
10623.268893
0
LINE
8
Layer 1
10
-14237.622472
20
10623.268893
11
-14232.071266
21
10620.809673
0
LINE
8
Layer 1
10
-14232.071266
20
10620.809673
11
-14226.406759
21
10618.624038
0
LINE
8
Layer 1
10
-14226.406759
20
10618.624038
11
-14220.639155
21
10616.716215
0
LINE
8
Layer 1
10
-14220.639155
20
10616.716215
11
-14214.778660
21
10615.090429
0
LINE
8
Layer 1
10
-14214.778660
20
10615.090429
11
-14208.835478
21
10613.750909
0
LINE
8
Layer 1
10
-14208.835478
20
10613.750909
11
-14202.819816
21
10612.701879
0
LINE
8
Layer 1
10
-14202.819816
20
10612.701879
11
-14196.741879
21
10611.947567
0
LINE
8
Layer 1
10
-14196.741879
20
10611.947567
11
-14190.611872
21
10611.492198
0
LINE
8
Layer 1
10
-14190.611872
20
10611.492198
11
-14184.440000
21
10611.340000
0
LINE
8
Layer 1
10
-3393.160000
20
10735.700000
11
-3393.160000
21
13087.800000
0
LINE
8
Layer 1
10
-6232.030000
20
12449.100000
11
-6232.030000
21
11052.400000
0
LINE
8
Layer 1
10
-6232.030000
20
11052.400000
11
-7717.640000
21
11052.400000
0
LINE
8
Layer 1
10
-7717.640000
20
12449.100000
11
-6232.030000
21
12449.100000
0
LINE
8
Layer 1
10
-7717.640000
20
11052.400000
11
-7717.640000
21
12449.100000
0
LINE
8
Layer 1
10
-4053.270000
20
12449.100000
11
-4053.270000
21
11052.400000
0
LINE
8
Layer 1
10
-5538.610000
20
12449.100000
11
-4053.270000
21
12449.100000
0
LINE
8
Layer 1
10
-5538.610000
20
11052.400000
11
-5538.610000
21
12449.100000
0
LINE
8
Layer 1
10
-4053.270000
20
11052.400000
11
-5538.610000
21
11052.400000
0
LINE
8
Layer 1
10
-3393.320000
20
13088.000000
11
-3393.473542
21
13094.170936
0
LINE
8
Layer 1
10
-3393.473542
20
13094.170936
11
-3393.930157
21
13100.299957
0
LINE
8
Layer 1
10
-3393.930157
20
13100.299957
11
-3394.685619
21
13106.376863
0
LINE
8
Layer 1
10
-3394.685619
20
13106.376863
11
-3395.735702
21
13112.391455
0
LINE
8
Layer 1
10
-3395.735702
20
13112.391455
11
-3397.076179
21
13118.333532
0
LINE
8
Layer 1
10
-3397.076179
20
13118.333532
11
-3398.702823
21
13124.192893
0
LINE
8
Layer 1
10
-3398.702823
20
13124.192893
11
-3400.611409
21
13129.959338
0
LINE
8
Layer 1
10
-3400.611409
20
13129.959338
11
-3402.797710
21
13135.622668
0
LINE
8
Layer 1
10
-3402.797710
20
13135.622668
11
-3405.257500
21
13141.172681
0
LINE
8
Layer 1
10
-3405.257500
20
13141.172681
11
-3407.986552
21
13146.599178
0
LINE
8
Layer 1
10
-3407.986552
20
13146.599178
11
-3410.980641
21
13151.891958
0
LINE
8
Layer 1
10
-3410.980641
20
13151.891958
11
-3414.235539
21
13157.040820
0
LINE
8
Layer 1
10
-3414.235539
20
13157.040820
11
-3417.747021
21
13162.035566
0
LINE
8
Layer 1
10
-3417.747021
20
13162.035566
11
-3421.510860
21
13166.865994
0
LINE
8
Layer 1
10
-3421.510860
20
13166.865994
11
-3425.522829
21
13171.521904
0
LINE
8
Layer 1
10
-3425.522829
20
13171.521904
11
-3429.778703
21
13175.993096
0
LINE
8
Layer 1
10
-3429.778703
20
13175.993096
11
-3434.250852
21
13180.247964
0
LINE
8
Layer 1
10
-3434.250852
20
13180.247964
11
-3438.907665
21
13184.258886
0
LINE
8
Layer 1
10
-3438.907665
20
13184.258886
11
-3443.738940
21
13188.021638
0
LINE
8
Layer 1
10
-3443.738940
20
13188.021638
11
-3448.734475
21
13191.531995
0
LINE
8
Layer 1
10
-3448.734475
20
13191.531995
11
-3453.884070
21
13194.785735
0
LINE
8
Layer 1
10
-3453.884070
20
13194.785735
11
-3459.177524
21
13197.778633
0
LINE
8
Layer 1
10
-3459.177524
20
13197.778633
11
-3464.604635
21
13200.506464
0
LINE
8
Layer 1
10
-3464.604635
20
13200.506464
11
-3470.155201
21
13202.965005
0
LINE
8
Layer 1
10
-3470.155201
20
13202.965005
11
-3475.819022
21
13205.150032
0
LINE
8
Layer 1
10
-3475.819022
20
13205.150032
11
-3481.585897
21
13207.057320
0
LINE
8
Layer 1
10
-3481.585897
20
13207.057320
11
-3487.445624
21
13208.682646
0
LINE
8
Layer 1
10
-3487.445624
20
13208.682646
11
-3493.388002
21
13210.021786
0
LINE
8
Layer 1
10
-3493.388002
20
13210.021786
11
-3499.402830
21
13211.070515
0
LINE
8
Layer 1
10
-3499.402830
20
13211.070515
11
-3505.479906
21
13211.824610
0
LINE
8
Layer 1
10
-3505.479906
20
13211.824610
11
-3511.609030
21
13212.279846
0
LINE
8
Layer 1
10
-3511.609030
20
13212.279846
11
-3517.780000
21
13212.432000
0
LINE
8
Layer 1
10
-14184.400000
20
13212.400000
11
-14190.570970
21
13212.247846
0
LINE
8
Layer 1
10
-14190.570970
20
13212.247846
11
-14196.700094
21
13211.792610
0
LINE
8
Layer 1
10
-14196.700094
20
13211.792610
11
-14202.777170
21
13211.038515
0
LINE
8
Layer 1
10
-14202.777170
20
13211.038515
11
-14208.791998
21
13209.989786
0
LINE
8
Layer 1
10
-14208.791998
20
13209.989786
11
-14214.734376
21
13208.650646
0
LINE
8
Layer 1
10
-14214.734376
20
13208.650646
11
-14220.594103
21
13207.025320
0
LINE
8
Layer 1
10
-14220.594103
20
13207.025320
11
-14226.360978
21
13205.118032
0
LINE
8
Layer 1
10
-14226.360978
20
13205.118032
11
-14232.024799
21
13202.933005
0
LINE
8
Layer 1
10
-14232.024799
20
13202.933005
11
-14237.575365
21
13200.474464
0
LINE
8
Layer 1
10
-14237.575365
20
13200.474464
11
-14243.002476
21
13197.746633
0
LINE
8
Layer 1
10
-14243.002476
20
13197.746633
11
-14248.295930
21
13194.753735
0
LINE
8
Layer 1
10
-14248.295930
20
13194.753735
11
-14253.445525
21
13191.499995
0
LINE
8
Layer 1
10
-14253.445525
20
13191.499995
11
-14258.441060
21
13187.989638
0
LINE
8
Layer 1
10
-14258.441060
20
13187.989638
11
-14263.272335
21
13184.226886
0
LINE
8
Layer 1
10
-14263.272335
20
13184.226886
11
-14267.929148
21
13180.215964
0
LINE
8
Layer 1
10
-14267.929148
20
13180.215964
11
-14272.401297
21
13175.961096
0
LINE
8
Layer 1
10
-14272.401297
20
13175.961096
11
-14276.657171
21
13171.489904
0
LINE
8
Layer 1
10
-14276.657171
20
13171.489904
11
-14280.669140
21
13166.833994
0
LINE
8
Layer 1
10
-14280.669140
20
13166.833994
11
-14284.432979
21
13162.003566
0
LINE
8
Layer 1
10
-14284.432979
20
13162.003566
11
-14287.944461
21
13157.008820
0
LINE
8
Layer 1
10
-14287.944461
20
13157.008820
11
-14291.199359
21
13151.859958
0
LINE
8
Layer 1
10
-14291.199359
20
13151.859958
11
-14294.193448
21
13146.567178
0
LINE
8
Layer 1
10
-14294.193448
20
13146.567178
11
-14296.922500
21
13141.140681
0
LINE
8
Layer 1
10
-14296.922500
20
13141.140681
11
-14299.382290
21
13135.590668
0
LINE
8
Layer 1
10
-14299.382290
20
13135.590668
11
-14301.568591
21
13129.927338
0
LINE
8
Layer 1
10
-14301.568591
20
13129.927338
11
-14303.477177
21
13124.160893
0
LINE
8
Layer 1
10
-14303.477177
20
13124.160893
11
-14305.103821
21
13118.301532
0
LINE
8
Layer 1
10
-14305.103821
20
13118.301532
11
-14306.444298
21
13112.359455
0
LINE
8
Layer 1
10
-14306.444298
20
13112.359455
11
-14307.494381
21
13106.344863
0
LINE
8
Layer 1
10
-14307.494381
20
13106.344863
11
-14308.249843
21
13100.267957
0
LINE
8
Layer 1
10
-14308.249843
20
13100.267957
11
-14308.706458
21
13094.138936
0
LINE
8
Layer 1
10
-14308.706458
20
13094.138936
11
-14308.860000
21
13087.968000
0
LINE
8
Layer 1
10
-14308.700000
20
10735.700000
11
-14308.700000
21
13087.800000
0
LINE
8
Layer 1
10
-3517.780000
20
10611.300000
11
-3511.608128
21
10611.452198
0
LINE
8
Layer 1
10
-3511.608128
20
10611.452198
11
-3505.478121
21
10611.907567
0
LINE
8
Layer 1
10
-3505.478121
20
10611.907567
11
-3499.400184
21
10612.661879
0
LINE
8
Layer 1
10
-3499.400184
20
10612.661879
11
-3493.384522
21
10613.710909
0
LINE
8
Layer 1
10
-3493.384522
20
10613.710909
11
-3487.441340
21
10615.050429
0
LINE
8
Layer 1
10
-3487.441340
20
10615.050429
11
-3481.580845
21
10616.676215
0
LINE
8
Layer 1
10
-3481.580845
20
10616.676215
11
-3475.813241
21
10618.584038
0
LINE
8
Layer 1
10
-3475.813241
20
10618.584038
11
-3470.148734
21
10620.769673
0
LINE
8
Layer 1
10
-3470.148734
20
10620.769673
11
-3464.597528
21
10623.228893
0
LINE
8
Layer 1
10
-3464.597528
20
10623.228893
11
-3459.169831
21
10625.957473
0
LINE
8
Layer 1
10
-3459.169831
20
10625.957473
11
-3453.875846
21
10628.951184
0
LINE
8
Layer 1
10
-3453.875846
20
10628.951184
11
-3448.725779
21
10632.205802
0
LINE
8
Layer 1
10
-3448.725779
20
10632.205802
11
-3443.729836
21
10635.717099
0
LINE
8
Layer 1
10
-3443.729836
20
10635.717099
11
-3438.898222
21
10639.480849
0
LINE
8
Layer 1
10
-3438.898222
20
10639.480849
11
-3434.241143
21
10643.492826
0
LINE
8
Layer 1
10
-3434.241143
20
10643.492826
11
-3429.768803
21
10647.748803
0
LINE
8
Layer 1
10
-3429.768803
20
10647.748803
11
-3425.512826
21
10652.221143
0
LINE
8
Layer 1
10
-3425.512826
20
10652.221143
11
-3421.500849
21
10656.878222
0
LINE
8
Layer 1
10
-3421.500849
20
10656.878222
11
-3417.737099
21
10661.709836
0
LINE
8
Layer 1
10
-3417.737099
20
10661.709836
11
-3414.225802
21
10666.705779
0
LINE
8
Layer 1
10
-3414.225802
20
10666.705779
11
-3410.971184
21
10671.855846
0
LINE
8
Layer 1
10
-3410.971184
20
10671.855846
11
-3407.977473
21
10677.149831
0
LINE
8
Layer 1
10
-3407.977473
20
10677.149831
11
-3405.248893
21
10682.577528
0
LINE
8
Layer 1
10
-3405.248893
20
10682.577528
11
-3402.789673
21
10688.128734
0
LINE
8
Layer 1
10
-3402.789673
20
10688.128734
11
-3400.604038
21
10693.793241
0
LINE
8
Layer 1
10
-3400.604038
20
10693.793241
11
-3398.696215
21
10699.560845
0
LINE
8
Layer 1
10
-3398.696215
20
10699.560845
11
-3397.070429
21
10705.421340
0
LINE
8
Layer 1
10
-3397.070429
20
10705.421340
11
-3395.730909
21
10711.364522
0
LINE
8
Layer 1
10
-3395.730909
20
10711.364522
11
-3394.681879
21
10717.380184
0
LINE
8
Layer 1
10
-3394.681879
20
10717.380184
11
-3393.927567
21
10723.458121
0
LINE
8
Layer 1
10
-3393.927567
20
10723.458121
11
-3393.472198
21
10729.588128
0
LINE
8
Layer 1
10
-3393.472198
20
10729.588128
11
-3393.320000
21
10735.760000
0
LINE
8
Layer 1
10
-14184.200000
20
10611.300000
11
-3517.620000
21
10611.300000
0
LINE
8
Layer 1
10
-3517.620000
20
13212.200000
11
-14184.200000
21
13212.200000
0
LINE
8
Layer 1
10
-14308.900000
20
10735.800000
11
-14308.747802
21
10729.628128
0
LINE
8
Layer 1
10
-14308.747802
20
10729.628128
11
-14308.292433
21
10723.498121
0
LINE
8
Layer 1
10
-14308.292433
20
10723.498121
11
-14307.538121
21
10717.420184
0
LINE
8
Layer 1
10
-14307.538121
20
10717.420184
11
-14306.489091
21
10711.404522
0
LINE
8
Layer 1
10
-14306.489091
20
10711.404522
11
-14305.149571
21
10705.461340
0
LINE
8
Layer 1
10
-14305.149571
20
10705.461340
11
-14303.523785
21
10699.600845
0
LINE
8
Layer 1
10
-14303.523785
20
10699.600845
11
-14301.615962
21
10693.833241
0
LINE
8
Layer 1
10
-14301.615962
20
10693.833241
11
-14299.430327
21
10688.168734
0
LINE
8
Layer 1
10
-14299.430327
20
10688.168734
11
-14296.971107
21
10682.617528
0
LINE
8
Layer 1
10
-14296.971107
20
10682.617528
11
-14294.242527
21
10677.189831
0
LINE
8
Layer 1
10
-14294.242527
20
10677.189831
11
-14291.248816
21
10671.895846
0
LINE
8
Layer 1
10
-14291.248816
20
10671.895846
11
-14287.994198
21
10666.745779
0
LINE
8
Layer 1
10
-14287.994198
20
10666.745779
11
-14284.482901
21
10661.749836
0
LINE
8
Layer 1
10
-14284.482901
20
10661.749836
11
-14280.719151
21
10656.918222
0
LINE
8
Layer 1
10
-14280.719151
20
10656.918222
11
-14276.707174
21
10652.261143
0
LINE
8
Layer 1
10
-14276.707174
20
10652.261143
11
-14272.451197
21
10647.788803
0
LINE
8
Layer 1
10
-14272.451197
20
10647.788803
11
-14267.978857
21
10643.532826
0
LINE
8
Layer 1
10
-14267.978857
20
10643.532826
11
-14263.321778
21
10639.520849
0
LINE
8
Layer 1
10
-14263.321778
20
10639.520849
11
-14258.490164
21
10635.757099
0
LINE
8
Layer 1
10
-14258.490164
20
10635.757099
11
-14253.494221
21
10632.245802
0
LINE
8
Layer 1
10
-14253.494221
20
10632.245802
11
-14248.344154
21
10628.991184
0
LINE
8
Layer 1
10
-14248.344154
20
10628.991184
11
-14243.050169
21
10625.997473
0
LINE
8
Layer 1
10
-14243.050169
20
10625.997473
11
-14237.622472
21
10623.268893
0
LINE
8
Layer 1
10
-14237.622472
20
10623.268893
11
-14232.071266
21
10620.809673
0
LINE
8
Layer 1
10
-14232.071266
20
10620.809673
11
-14226.406759
21
10618.624038
0
LINE
8
Layer 1
10
-14226.406759
20
10618.624038
11
-14220.639155
21
10616.716215
0
LINE
8
Layer 1
10
-14220.639155
20
10616.716215
11
-14214.778660
21
10615.090429
0
LINE
8
Layer 1
10
-14214.778660
20
10615.090429
11
-14208.835478
21
10613.750909
0
LINE
8
Layer 1
10
-14208.835478
20
10613.750909
11
-14202.819816
21
10612.701879
0
LINE
8
Layer 1
10
-14202.819816
20
10612.701879
11
-14196.741879
21
10611.947567
0
LINE
8
Layer 1
10
-14196.741879
20
10611.947567
11
-14190.611872
21
10611.492198
0
LINE
8
Layer 1
10
-14190.611872
20
10611.492198
11
-14184.440000
21
10611.340000
0
LINE
8
Layer 1
10
-3393.160000
20
10735.700000
11
-3393.160000
21
13087.800000
0
LINE
8
Layer 1
10
-6232.030000
20
12449.100000
11
-6232.030000
21
11052.400000
0
LINE
8
Layer 1
10
-6232.030000
20
11052.400000
11
-7717.640000
21
11052.400000
0
LINE
8
Layer 1
10
-7717.640000
20
12449.100000
11
-6232.030000
21
12449.100000
0
LINE
8
Layer 1
10
-7717.640000
20
11052.400000
11
-7717.640000
21
12449.100000
0
LINE
8
Layer 1
10
-4053.270000
20
12449.100000
11
-4053.270000
21
11052.400000
0
LINE
8
Layer 1
10
-5538.610000
20
12449.100000
11
-4053.270000
21
12449.100000
0
LINE
8
Layer 1
10
-5538.610000
20
11052.400000
11
-5538.610000
21
12449.100000
0
LINE
8
Layer 1
10
-4053.270000
20
11052.400000
11
-5538.610000
21
11052.400000
0
LINE
8
Layer 1
10
-3393.320000
20
13088.000000
11
-3393.473542
21
13094.170936
0
LINE
8
Layer 1
10
-3393.473542
20
13094.170936
11
-3393.930157
21
13100.299957
0
LINE
8
Layer 1
10
-3393.930157
20
13100.299957
11
-3394.685619
21
13106.376863
0
LINE
8
Layer 1
10
-3394.685619
20
13106.376863
11
-3395.735702
21
13112.391455
0
LINE
8
Layer 1
10
-3395.735702
20
13112.391455
11
-3397.076179
21
13118.333532
0
LINE
8
Layer 1
10
-3397.076179
20
13118.333532
11
-3398.702823
21
13124.192893
0
LINE
8
Layer 1
10
-3398.702823
20
13124.192893
11
-3400.611409
21
13129.959338
0
LINE
8
Layer 1
10
-3400.611409
20
13129.959338
11
-3402.797710
21
13135.622668
0
LINE
8
Layer 1
10
-3402.797710
20
13135.622668
11
-3405.257500
21
13141.172681
0
LINE
8
Layer 1
10
-3405.257500
20
13141.172681
11
-3407.986552
21
13146.599178
0
LINE
8
Layer 1
10
-3407.986552
20
13146.599178
11
-3410.980641
21
13151.891958
0
LINE
8
Layer 1
10
-3410.980641
20
13151.891958
11
-3414.235539
21
13157.040820
0
LINE
8
Layer 1
10
-3414.235539
20
13157.040820
11
-3417.747021
21
13162.035566
0
LINE
8
Layer 1
10
-3417.747021
20
13162.035566
11
-3421.510860
21
13166.865994
0
LINE
8
Layer 1
10
-3421.510860
20
13166.865994
11
-3425.522829
21
13171.521904
0
LINE
8
Layer 1
10
-3425.522829
20
13171.521904
11
-3429.778703
21
13175.993096
0
LINE
8
Layer 1
10
-3429.778703
20
13175.993096
11
-3434.250852
21
13180.247964
0
LINE
8
Layer 1
10
-3434.250852
20
13180.247964
11
-3438.907665
21
13184.258886
0
LINE
8
Layer 1
10
-3438.907665
20
13184.258886
11
-3443.738940
21
13188.021638
0
LINE
8
Layer 1
10
-3443.738940
20
13188.021638
11
-3448.734475
21
13191.531995
0
LINE
8
Layer 1
10
-3448.734475
20
13191.531995
11
-3453.884070
21
13194.785735
0
LINE
8
Layer 1
10
-3453.884070
20
13194.785735
11
-3459.177524
21
13197.778633
0
LINE
8
Layer 1
10
-3459.177524
20
13197.778633
11
-3464.604635
21
13200.506464
0
LINE
8
Layer 1
10
-3464.604635
20
13200.506464
11
-3470.155201
21
13202.965005
0
LINE
8
Layer 1
10
-3470.155201
20
13202.965005
11
-3475.819022
21
13205.150032
0
LINE
8
Layer 1
10
-3475.819022
20
13205.150032
11
-3481.585897
21
13207.057320
0
LINE
8
Layer 1
10
-3481.585897
20
13207.057320
11
-3487.445624
21
13208.682646
0
LINE
8
Layer 1
10
-3487.445624
20
13208.682646
11
-3493.388002
21
13210.021786
0
LINE
8
Layer 1
10
-3493.388002
20
13210.021786
11
-3499.402830
21
13211.070515
0
LINE
8
Layer 1
10
-3499.402830
20
13211.070515
11
-3505.479906
21
13211.824610
0
LINE
8
Layer 1
10
-3505.479906
20
13211.824610
11
-3511.609030
21
13212.279846
0
LINE
8
Layer 1
10
-3511.609030
20
13212.279846
11
-3517.780000
21
13212.432000
0
LINE
8
Layer 1
10
-14184.400000
20
13212.400000
11
-14190.570970
21
13212.247846
0
LINE
8
Layer 1
10
-14190.570970
20
13212.247846
11
-14196.700094
21
13211.792610
0
LINE
8
Layer 1
10
-14196.700094
20
13211.792610
11
-14202.777170
21
13211.038515
0
LINE
8
Layer 1
10
-14202.777170
20
13211.038515
11
-14208.791998
21
13209.989786
0
LINE
8
Layer 1
10
-14208.791998
20
13209.989786
11
-14214.734376
21
13208.650646
0
LINE
8
Layer 1
10
-14214.734376
20
13208.650646
11
-14220.594103
21
13207.025320
0
LINE
8
Layer 1
10
-14220.594103
20
13207.025320
11
-14226.360978
21
13205.118032
0
LINE
8
Layer 1
10
-14226.360978
20
13205.118032
11
-14232.024799
21
13202.933005
0
LINE
8
Layer 1
10
-14232.024799
20
13202.933005
11
-14237.575365
21
13200.474464
0
LINE
8
Layer 1
10
-14237.575365
20
13200.474464
11
-14243.002476
21
13197.746633
0
LINE
8
Layer 1
10
-14243.002476
20
13197.746633
11
-14248.295930
21
13194.753735
0
LINE
8
Layer 1
10
-14248.295930
20
13194.753735
11
-14253.445525
21
13191.499995
0
LINE
8
Layer 1
10
-14253.445525
20
13191.499995
11
-14258.441060
21
13187.989638
0
LINE
8
Layer 1
10
-14258.441060
20
13187.989638
11
-14263.272335
21
13184.226886
0
LINE
8
Layer 1
10
-14263.272335
20
13184.226886
11
-14267.929148
21
13180.215964
0
LINE
8
Layer 1
10
-14267.929148
20
13180.215964
11
-14272.401297
21
13175.961096
0
LINE
8
Layer 1
10
-14272.401297
20
13175.961096
11
-14276.657171
21
13171.489904
0
LINE
8
Layer 1
10
-14276.657171
20
13171.489904
11
-14280.669140
21
13166.833994
0
LINE
8
Layer 1
10
-14280.669140
20
13166.833994
11
-14284.432979
21
13162.003566
0
LINE
8
Layer 1
10
-14284.432979
20
13162.003566
11
-14287.944461
21
13157.008820
0
LINE
8
Layer 1
10
-14287.944461
20
13157.008820
11
-14291.199359
21
13151.859958
0
LINE
8
Layer 1
10
-14291.199359
20
13151.859958
11
-14294.193448
21
13146.567178
0
LINE
8
Layer 1
10
-14294.193448
20
13146.567178
11
-14296.922500
21
13141.140681
0
LINE
8
Layer 1
10
-14296.922500
20
13141.140681
11
-14299.382290
21
13135.590668
0
LINE
8
Layer 1
10
-14299.382290
20
13135.590668
11
-14301.568591
21
13129.927338
0
LINE
8
Layer 1
10
-14301.568591
20
13129.927338
11
-14303.477177
21
13124.160893
0
LINE
8
Layer 1
10
-14303.477177
20
13124.160893
11
-14305.103821
21
13118.301532
0
LINE
8
Layer 1
10
-14305.103821
20
13118.301532
11
-14306.444298
21
13112.359455
0
LINE
8
Layer 1
10
-14306.444298
20
13112.359455
11
-14307.494381
21
13106.344863
0
LINE
8
Layer 1
10
-14307.494381
20
13106.344863
11
-14308.249843
21
13100.267957
0
LINE
8
Layer 1
10
-14308.249843
20
13100.267957
11
-14308.706458
21
13094.138936
0
LINE
8
Layer 1
10
-14308.706458
20
13094.138936
11
-14308.860000
21
13087.968000
0
LINE
8
Layer 1
10
-14308.700000
20
10735.700000
11
-14308.700000
21
13087.800000
0
LINE
8
Layer 1
10
-3517.780000
20
10611.300000
11
-3511.608128
21
10611.452198
0
LINE
8
Layer 1
10
-3511.608128
20
10611.452198
11
-3505.478121
21
10611.907567
0
LINE
8
Layer 1
10
-3505.478121
20
10611.907567
11
-3499.400184
21
10612.661879
0
LINE
8
Layer 1
10
-3499.400184
20
10612.661879
11
-3493.384522
21
10613.710909
0
LINE
8
Layer 1
10
-3493.384522
20
10613.710909
11
-3487.441340
21
10615.050429
0
LINE
8
Layer 1
10
-3487.441340
20
10615.050429
11
-3481.580845
21
10616.676215
0
LINE
8
Layer 1
10
-3481.580845
20
10616.676215
11
-3475.813241
21
10618.584038
0
LINE
8
Layer 1
10
-3475.813241
20
10618.584038
11
-3470.148734
21
10620.769673
0
LINE
8
Layer 1
10
-3470.148734
20
10620.769673
11
-3464.597528
21
10623.228893
0
LINE
8
Layer 1
10
-3464.597528
20
10623.228893
11
-3459.169831
21
10625.957473
0
LINE
8
Layer 1
10
-3459.169831
20
10625.957473
11
-3453.875846
21
10628.951184
0
LINE
8
Layer 1
10
-3453.875846
20
10628.951184
11
-3448.725779
21
10632.205802
0
LINE
8
Layer 1
10
-3448.725779
20
10632.205802
11
-3443.729836
21
10635.717099
0
LINE
8
Layer 1
10
-3443.729836
20
10635.717099
11
-3438.898222
21
10639.480849
0
LINE
8
Layer 1
10
-3438.898222
20
10639.480849
11
-3434.241143
21
10643.492826
0
LINE
8
Layer 1
10
-3434.241143
20
10643.492826
11
-3429.768803
21
10647.748803
0
LINE
8
Layer 1
10
-3429.768803
20
10647.748803
11
-3425.512826
21
10652.221143
0
LINE
8
Layer 1
10
-3425.512826
20
10652.221143
11
-3421.500849
21
10656.878222
0
LINE
8
Layer 1
10
-3421.500849
20
10656.878222
11
-3417.737099
21
10661.709836
0
LINE
8
Layer 1
10
-3417.737099
20
10661.709836
11
-3414.225802
21
10666.705779
0
LINE
8
Layer 1
10
-3414.225802
20
10666.705779
11
-3410.971184
21
10671.855846
0
LINE
8
Layer 1
10
-3410.971184
20
10671.855846
11
-3407.977473
21
10677.149831
0
LINE
8
Layer 1
10
-3407.977473
20
10677.149831
11
-3405.248893
21
10682.577528
0
LINE
8
Layer 1
10
-3405.248893
20
10682.577528
11
-3402.789673
21
10688.128734
0
LINE
8
Layer 1
10
-3402.789673
20
10688.128734
11
-3400.604038
21
10693.793241
0
LINE
8
Layer 1
10
-3400.604038
20
10693.793241
11
-3398.696215
21
10699.560845
0
LINE
8
Layer 1
10
-3398.696215
20
10699.560845
11
-3397.070429
21
10705.421340
0
LINE
8
Layer 1
10
-3397.070429
20
10705.421340
11
-3395.730909
21
10711.364522
0
LINE
8
Layer 1
10
-3395.730909
20
10711.364522
11
-3394.681879
21
10717.380184
0
LINE
8
Layer 1
10
-3394.681879
20
10717.380184
11
-3393.927567
21
10723.458121
0
LINE
8
Layer 1
10
-3393.927567
20
10723.458121
11
-3393.472198
21
10729.588128
0
LINE
8
Layer 1
10
-3393.472198
20
10729.588128
11
-3393.320000
21
10735.760000
0
LINE
8
Layer 1
10
-14184.200000
20
10611.300000
11
-3517.620000
21
10611.300000
0
LINE
8
Layer 1
10
-3517.620000
20
13212.200000
11
-14184.200000
21
13212.200000
0
LINE
8
Layer 1
10
-14308.900000
20
10735.800000
11
-14308.747802
21
10729.628128
0
LINE
8
Layer 1
10
-14308.747802
20
10729.628128
11
-14308.292433
21
10723.498121
0
LINE
8
Layer 1
10
-14308.292433
20
10723.498121
11
-14307.538121
21
10717.420184
0
LINE
8
Layer 1
10
-14307.538121
20
10717.420184
11
-14306.489091
21
10711.404522
0
LINE
8
Layer 1
10
-14306.489091
20
10711.404522
11
-14305.149571
21
10705.461340
0
LINE
8
Layer 1
10
-14305.149571
20
10705.461340
11
-14303.523785
21
10699.600845
0
LINE
8
Layer 1
10
-14303.523785
20
10699.600845
11
-14301.615962
21
10693.833241
0
LINE
8
Layer 1
10
-14301.615962
20
10693.833241
11
-14299.430327
21
10688.168734
0
LINE
8
Layer 1
10
-14299.430327
20
10688.168734
11
-14296.971107
21
10682.617528
0
LINE
8
Layer 1
10
-14296.971107
20
10682.617528
11
-14294.242527
21
10677.189831
0
LINE
8
Layer 1
10
-14294.242527
20
10677.189831
11
-14291.248816
21
10671.895846
0
LINE
8
Layer 1
10
-14291.248816
20
10671.895846
11
-14287.994198
21
10666.745779
0
LINE
8
Layer 1
10
-14287.994198
20
10666.745779
11
-14284.482901
21
10661.749836
0
LINE
8
Layer 1
10
-14284.482901
20
10661.749836
11
-14280.719151
21
10656.918222
0
LINE
8
Layer 1
10
-14280.719151
20
10656.918222
11
-14276.707174
21
10652.261143
0
LINE
8
Layer 1
10
-14276.707174
20
10652.261143
11
-14272.451197
21
10647.788803
0
LINE
8
Layer 1
10
-14272.451197
20
10647.788803
11
-14267.978857
21
10643.532826
0
LINE
8
Layer 1
10
-14267.978857
20
10643.532826
11
-14263.321778
21
10639.520849
0
LINE
8
Layer 1
10
-14263.321778
20
10639.520849
11
-14258.490164
21
10635.757099
0
LINE
8
Layer 1
10
-14258.490164
20
10635.757099
11
-14253.494221
21
10632.245802
0
LINE
8
Layer 1
10
-14253.494221
20
10632.245802
11
-14248.344154
21
10628.991184
0
LINE
8
Layer 1
10
-14248.344154
20
10628.991184
11
-14243.050169
21
10625.997473
0
LINE
8
Layer 1
10
-14243.050169
20
10625.997473
11
-14237.622472
21
10623.268893
0
LINE
8
Layer 1
10
-14237.622472
20
10623.268893
11
-14232.071266
21
10620.809673
0
LINE
8
Layer 1
10
-14232.071266
20
10620.809673
11
-14226.406759
21
10618.624038
0
LINE
8
Layer 1
10
-14226.406759
20
10618.624038
11
-14220.639155
21
10616.716215
0
LINE
8
Layer 1
10
-14220.639155
20
10616.716215
11
-14214.778660
21
10615.090429
0
LINE
8
Layer 1
10
-14214.778660
20
10615.090429
11
-14208.835478
21
10613.750909
0
LINE
8
Layer 1
10
-14208.835478
20
10613.750909
11
-14202.819816
21
10612.701879
0
LINE
8
Layer 1
10
-14202.819816
20
10612.701879
11
-14196.741879
21
10611.947567
0
LINE
8
Layer 1
10
-14196.741879
20
10611.947567
11
-14190.611872
21
10611.492198
0
LINE
8
Layer 1
10
-14190.611872
20
10611.492198
11
-14184.440000
21
10611.340000
0
LINE
8
Layer 1
10
-3393.160000
20
10735.700000
11
-3393.160000
21
13087.800000
0
LINE
8
Layer 1
10
-6232.030000
20
12449.100000
11
-6232.030000
21
11052.400000
0
LINE
8
Layer 1
10
-6232.030000
20
11052.400000
11
-7717.640000
21
11052.400000
0
LINE
8
Layer 1
10
-7717.640000
20
12449.100000
11
-6232.030000
21
12449.100000
0
LINE
8
Layer 1
10
-7717.640000
20
11052.400000
11
-7717.640000
21
12449.100000
0
LINE
8
Layer 1
10
-4053.270000
20
12449.100000
11
-4053.270000
21
11052.400000
0
LINE
8
Layer 1
10
-5538.610000
20
12449.100000
11
-4053.270000
21
12449.100000
0
LINE
8
Layer 1
10
-5538.610000
20
11052.400000
11
-5538.610000
21
12449.100000
0
LINE
8
Layer 1
10
-4053.270000
20
11052.400000
11
-5538.610000
21
11052.400000
 0 
ENDSEC
 0 
EOF